<svg width="573" height="1158" viewBox="0 0 573 1158" fill="none" xmlns="http://www.w3.org/2000/svg">
<g filter="url(#filter0_d_6_113)">
<g filter="url(#filter1_i_6_113)">
<rect x="221" y="141" width="243" height="238" rx="39" fill="#432B19"/>
</g>
<g filter="url(#filter2_i_6_113)">
<path d="M231.301 553.901C230.206 562.67 222.211 568.891 213.442 567.796L210.465 567.425C200.053 566.125 192.665 556.63 193.965 546.218L212.791 395.388L250.498 400.094L231.301 553.901Z" fill="#FFDFBA"/>
<path d="M230.774 551.552C232.869 542.967 227.608 534.31 219.023 532.215L216.109 531.504C205.914 529.016 195.634 535.264 193.146 545.458L166.742 653.667L203.659 662.676L230.774 551.552Z" fill="#FFDFBA"/>
<path d="M205.829 439.388C199.252 438.567 194.587 432.57 195.408 425.994L202.841 366.456C204.483 353.303 216.476 343.972 229.629 345.614L269.321 350.57L258.915 433.922C258.094 440.499 252.097 445.164 245.52 444.343L205.829 439.388Z" fill="#8CC572"/>
<rect x="188.691" y="710.74" width="45" height="68" rx="22.5" transform="rotate(-161.566 188.691 710.74)" fill="#FFDFBA"/>
<rect width="17.1814" height="25.2946" rx="8.59072" transform="matrix(0.398012 0.91738 0.91738 -0.398012 147.038 654.061)" fill="#FFDFBA"/>
</g>
<g filter="url(#filter3_i_6_113)">
<path d="M467.13 540.157C470.484 548.332 479.831 552.24 488.006 548.885L490.781 547.746C500.489 543.763 505.13 532.663 501.146 522.956L443.441 382.335L408.286 396.761L467.13 540.157Z" fill="#FFDFBA"/>
<path d="M464.559 527.223C464.598 518.386 471.794 511.255 480.63 511.294L483.63 511.308C494.123 511.354 502.592 519.899 502.545 530.392L502.018 648.733L464.018 648.563L464.559 527.223Z" fill="#FFDFBA"/>
<path d="M426.746 447.077C420.696 449.782 413.598 447.071 410.893 441.02L376.607 364.336L413.123 348.01C425.224 342.599 439.419 348.023 444.829 360.123L469.319 414.898C472.024 420.948 469.313 428.045 463.263 430.751L426.746 447.077Z" fill="#8CC572"/>
<g filter="url(#filter4_i_6_113)">
<rect width="17.1814" height="25.2946" rx="8.59072" transform="matrix(0.609606 0.792705 0.792705 -0.609606 444.27 652.45)" fill="#FFDFBA"/>
</g>
<rect x="498.482" y="697.268" width="45" height="68" rx="22.5" transform="rotate(-175.673 498.482 697.268)" fill="#FFDFBA"/>
</g>
<rect x="210" y="343" width="231" height="386" rx="25" fill="url(#paint0_linear_6_113)"/>
<g filter="url(#filter5_i_6_113)">
<path d="M210 693H441V729H210V693Z" fill="#353535"/>
<path d="M210 729H297V1068.5C297 1088.66 280.658 1105 260.5 1105H246.5C226.341 1105 210 1088.66 210 1068.5V729Z" fill="#353535"/>
<g filter="url(#filter6_ii_6_113)">
<path d="M297.5 1097.83V1036.86C297.5 1035.08 296.834 1033.36 295.634 1032.04C294.275 1030.54 292.348 1029.69 290.329 1029.69H273.783C271.266 1029.69 268.753 1029.47 266.275 1029.03L228.892 1022.4C225.46 1021.79 222.448 1019.75 220.606 1016.79L219.17 1014.49C217.82 1012.32 215.447 1011 212.893 1011C208.81 1011 205.5 1014.31 205.5 1018.39V1028.87C205.5 1038.73 197.501 1046.73 187.634 1046.73H172.134C156.044 1046.73 143 1059.77 143 1075.87C143 1091.96 156.044 1105 172.134 1105H290.329C292.348 1105 294.275 1104.15 295.634 1102.65C296.834 1101.33 297.5 1099.61 297.5 1097.83Z" fill="#643B1E"/>
</g>
<path d="M354 729H441V1068.5C441 1088.66 424.658 1105 404.5 1105H390.5C370.341 1105 354 1088.66 354 1068.5V729Z" fill="#353535"/>
<g filter="url(#filter7_ii_6_113)">
<path d="M441.5 1097.83V1036.86C441.5 1035.08 440.834 1033.36 439.634 1032.04C438.275 1030.54 436.348 1029.69 434.329 1029.69H417.783C415.266 1029.69 412.753 1029.47 410.275 1029.03L372.892 1022.4C369.46 1021.79 366.448 1019.75 364.606 1016.79L363.17 1014.49C361.82 1012.32 359.447 1011 356.893 1011C352.81 1011 349.5 1014.31 349.5 1018.39V1028.87C349.5 1038.73 341.501 1046.73 331.634 1046.73H316.134C300.044 1046.73 287 1059.77 287 1075.87C287 1091.96 300.044 1105 316.134 1105H434.329C436.348 1105 438.275 1104.15 439.634 1102.65C440.834 1101.33 441.5 1099.61 441.5 1097.83Z" fill="#643B1E"/>
</g>
</g>
<g filter="url(#filter8_i_6_113)">
<path d="M293 297C293 293.686 295.686 291 299 291H339C342.314 291 345 293.686 345 297V341C345 355.359 333.359 367 319 367V367C304.641 367 293 355.359 293 341V297Z" fill="#FFDFBA"/>
</g>
<g filter="url(#filter9_i_6_113)">
<g filter="url(#filter10_i_6_113)">
<circle cx="197.5" cy="185.5" r="26.5" fill="#FFDFBA"/>
</g>
<g filter="url(#filter11_i_6_113)">
<circle cx="197.5" cy="185.5" r="12.5" fill="#FFDFBA"/>
</g>
</g>
<g filter="url(#filter12_i_6_113)">
<circle cx="319" cy="183" r="128" fill="#FFDFBA"/>
</g>
<path d="M401 133.5C430 181 423 324 423 324L432 327L461 256C461 256 477 127 443 73C409 19 226 7 192 41C158 75 167 118 192 133.5C217 149 372 86 401 133.5Z" fill="#643B1E"/>
<g filter="url(#filter13_i_6_113)">
<circle cx="432.5" cy="184.5" r="26.5" fill="#FFDFBA"/>
</g>
<g filter="url(#filter14_i_6_113)">
<circle cx="432.5" cy="184.5" r="12.5" fill="#FFDFBA"/>
</g>
<mask id="mask0_6_113" style="mask-type:alpha" maskUnits="userSpaceOnUse" x="201" y="136" width="184" height="73">
<path d="M202 136H384.937V209H202V136Z" fill="#C4C4C4"/>
</mask>
<g mask="url(#mask0_6_113)">
<g filter="url(#filter15_i_6_113)">
<circle cx="240.5" cy="185.5" r="27.5" fill="white"/>
</g>
<circle cx="240.5" cy="185.5" r="13.5" fill="#643B1E"/>
<g filter="url(#filter16_i_6_113)">
<circle cx="345.5" cy="185.5" r="27.5" fill="white"/>
</g>
<circle cx="345.5" cy="185.5" r="13.5" fill="#643B1E"/>
</g>
<path d="M267.901 261C266.041 258.257 266.705 254.492 269.622 252.918C276.765 249.064 284.746 247.019 292.886 247C301.026 246.981 309.016 248.989 316.176 252.81C319.1 254.37 319.782 258.133 317.933 260.885V260.885C316.036 263.709 312.204 264.376 309.134 262.908C304.081 260.491 298.545 259.228 292.914 259.241C287.282 259.254 281.751 260.543 276.709 262.984C273.646 264.466 269.811 263.816 267.901 261V261Z" fill="black"/>
</g>
<defs>
<filter id="filter0_d_6_113" x="106" y="0.945251" width="433.573" height="1157.05" filterUnits="userSpaceOnUse" color-interpolation-filters="sRGB">
<feFlood flood-opacity="0" result="BackgroundImageFix"/>
<feColorMatrix in="SourceAlpha" type="matrix" values="0 0 0 0 0 0 0 0 0 0 0 0 0 0 0 0 0 0 127 0" result="hardAlpha"/>
<feOffset dy="16"/>
<feGaussianBlur stdDeviation="18.5"/>
<feComposite in2="hardAlpha" operator="out"/>
<feColorMatrix type="matrix" values="0 0 0 0 0 0 0 0 0 0 0 0 0 0 0 0 0 0 0.25 0"/>
<feBlend mode="normal" in2="BackgroundImageFix" result="effect1_dropShadow_6_113"/>
<feBlend mode="normal" in="SourceGraphic" in2="effect1_dropShadow_6_113" result="shape"/>
</filter>
<filter id="filter1_i_6_113" x="221" y="141" width="243" height="238" filterUnits="userSpaceOnUse" color-interpolation-filters="sRGB">
<feFlood flood-opacity="0" result="BackgroundImageFix"/>
<feBlend mode="normal" in="SourceGraphic" in2="BackgroundImageFix" result="shape"/>
<feColorMatrix in="SourceAlpha" type="matrix" values="0 0 0 0 0 0 0 0 0 0 0 0 0 0 0 0 0 0 127 0" result="hardAlpha"/>
<feOffset dx="-46" dy="40"/>
<feComposite in2="hardAlpha" operator="arithmetic" k2="-1" k3="1"/>
<feColorMatrix type="matrix" values="0 0 0 0 0.391667 0 0 0 0 0.231703 0 0 0 0 0.115868 0 0 0 1 0"/>
<feBlend mode="normal" in2="shape" result="effect1_innerShadow_6_113"/>
</filter>
<filter id="filter2_i_6_113" x="149.745" y="332.427" width="122.576" height="372.36" filterUnits="userSpaceOnUse" color-interpolation-filters="sRGB">
<feFlood flood-opacity="0" result="BackgroundImageFix"/>
<feBlend mode="normal" in="SourceGraphic" in2="BackgroundImageFix" result="shape"/>
<feColorMatrix in="SourceAlpha" type="matrix" values="0 0 0 0 0 0 0 0 0 0 0 0 0 0 0 0 0 0 127 0" result="hardAlpha"/>
<feOffset dx="3" dy="-13"/>
<feGaussianBlur stdDeviation="14.5"/>
<feComposite in2="hardAlpha" operator="arithmetic" k2="-1" k3="1"/>
<feColorMatrix type="matrix" values="0 0 0 0 0 0 0 0 0 0 0 0 0 0 0 0 0 0 0.25 0"/>
<feBlend mode="normal" in2="shape" result="effect1_innerShadow_6_113"/>
</filter>
<filter id="filter3_i_6_113" x="376.607" y="341.913" width="137.966" height="353.722" filterUnits="userSpaceOnUse" color-interpolation-filters="sRGB">
<feFlood flood-opacity="0" result="BackgroundImageFix"/>
<feBlend mode="normal" in="SourceGraphic" in2="BackgroundImageFix" result="shape"/>
<feColorMatrix in="SourceAlpha" type="matrix" values="0 0 0 0 0 0 0 0 0 0 0 0 0 0 0 0 0 0 127 0" result="hardAlpha"/>
<feOffset dx="12" dy="-4"/>
<feGaussianBlur stdDeviation="13.5"/>
<feComposite in2="hardAlpha" operator="arithmetic" k2="-1" k3="1"/>
<feColorMatrix type="matrix" values="0 0 0 0 0 0 0 0 0 0 0 0 0 0 0 0 0 0 0.25 0"/>
<feBlend mode="normal" in2="shape" result="effect1_innerShadow_6_113"/>
</filter>
<filter id="filter4_i_6_113" x="447.725" y="640.486" width="23.6136" height="26.1281" filterUnits="userSpaceOnUse" color-interpolation-filters="sRGB">
<feFlood flood-opacity="0" result="BackgroundImageFix"/>
<feBlend mode="normal" in="SourceGraphic" in2="BackgroundImageFix" result="shape"/>
<feColorMatrix in="SourceAlpha" type="matrix" values="0 0 0 0 0 0 0 0 0 0 0 0 0 0 0 0 0 0 127 0" result="hardAlpha"/>
<feOffset dy="4"/>
<feGaussianBlur stdDeviation="7"/>
<feComposite in2="hardAlpha" operator="arithmetic" k2="-1" k3="1"/>
<feColorMatrix type="matrix" values="0 0 0 0 0.796078 0 0 0 0 0.572549 0 0 0 0 0.478431 0 0 0 0.25 0"/>
<feBlend mode="normal" in2="shape" result="effect1_innerShadow_6_113"/>
</filter>
<filter id="filter5_i_6_113" x="128" y="663" width="313.5" height="442" filterUnits="userSpaceOnUse" color-interpolation-filters="sRGB">
<feFlood flood-opacity="0" result="BackgroundImageFix"/>
<feBlend mode="normal" in="SourceGraphic" in2="BackgroundImageFix" result="shape"/>
<feColorMatrix in="SourceAlpha" type="matrix" values="0 0 0 0 0 0 0 0 0 0 0 0 0 0 0 0 0 0 127 0" result="hardAlpha"/>
<feOffset dx="-15" dy="-30"/>
<feGaussianBlur stdDeviation="16"/>
<feComposite in2="hardAlpha" operator="arithmetic" k2="-1" k3="1"/>
<feColorMatrix type="matrix" values="0 0 0 0 0 0 0 0 0 0 0 0 0 0 0 0 0 0 0.25 0"/>
<feBlend mode="normal" in2="shape" result="effect1_innerShadow_6_113"/>
</filter>
<filter id="filter6_ii_6_113" x="127" y="985" width="170.5" height="120" filterUnits="userSpaceOnUse" color-interpolation-filters="sRGB">
<feFlood flood-opacity="0" result="BackgroundImageFix"/>
<feBlend mode="normal" in="SourceGraphic" in2="BackgroundImageFix" result="shape"/>
<feColorMatrix in="SourceAlpha" type="matrix" values="0 0 0 0 0 0 0 0 0 0 0 0 0 0 0 0 0 0 127 0" result="hardAlpha"/>
<feOffset dy="-15"/>
<feComposite in2="hardAlpha" operator="arithmetic" k2="-1" k3="1"/>
<feColorMatrix type="matrix" values="0 0 0 0 0 0 0 0 0 0 0 0 0 0 0 0 0 0 0.25 0"/>
<feBlend mode="normal" in2="shape" result="effect1_innerShadow_6_113"/>
<feColorMatrix in="SourceAlpha" type="matrix" values="0 0 0 0 0 0 0 0 0 0 0 0 0 0 0 0 0 0 127 0" result="hardAlpha"/>
<feOffset dx="-16" dy="-26"/>
<feGaussianBlur stdDeviation="15"/>
<feComposite in2="hardAlpha" operator="arithmetic" k2="-1" k3="1"/>
<feColorMatrix type="matrix" values="0 0 0 0 0 0 0 0 0 0 0 0 0 0 0 0 0 0 0.25 0"/>
<feBlend mode="normal" in2="effect1_innerShadow_6_113" result="effect2_innerShadow_6_113"/>
</filter>
<filter id="filter7_ii_6_113" x="271" y="985" width="170.5" height="120" filterUnits="userSpaceOnUse" color-interpolation-filters="sRGB">
<feFlood flood-opacity="0" result="BackgroundImageFix"/>
<feBlend mode="normal" in="SourceGraphic" in2="BackgroundImageFix" result="shape"/>
<feColorMatrix in="SourceAlpha" type="matrix" values="0 0 0 0 0 0 0 0 0 0 0 0 0 0 0 0 0 0 127 0" result="hardAlpha"/>
<feOffset dy="-15"/>
<feComposite in2="hardAlpha" operator="arithmetic" k2="-1" k3="1"/>
<feColorMatrix type="matrix" values="0 0 0 0 0 0 0 0 0 0 0 0 0 0 0 0 0 0 0.25 0"/>
<feBlend mode="normal" in2="shape" result="effect1_innerShadow_6_113"/>
<feColorMatrix in="SourceAlpha" type="matrix" values="0 0 0 0 0 0 0 0 0 0 0 0 0 0 0 0 0 0 127 0" result="hardAlpha"/>
<feOffset dx="-16" dy="-26"/>
<feGaussianBlur stdDeviation="15"/>
<feComposite in2="hardAlpha" operator="arithmetic" k2="-1" k3="1"/>
<feColorMatrix type="matrix" values="0 0 0 0 0 0 0 0 0 0 0 0 0 0 0 0 0 0 0.25 0"/>
<feBlend mode="normal" in2="effect1_innerShadow_6_113" result="effect2_innerShadow_6_113"/>
</filter>
<filter id="filter8_i_6_113" x="293" y="291" width="52" height="90" filterUnits="userSpaceOnUse" color-interpolation-filters="sRGB">
<feFlood flood-opacity="0" result="BackgroundImageFix"/>
<feBlend mode="normal" in="SourceGraphic" in2="BackgroundImageFix" result="shape"/>
<feColorMatrix in="SourceAlpha" type="matrix" values="0 0 0 0 0 0 0 0 0 0 0 0 0 0 0 0 0 0 127 0" result="hardAlpha"/>
<feOffset dy="34"/>
<feGaussianBlur stdDeviation="7"/>
<feComposite in2="hardAlpha" operator="arithmetic" k2="-1" k3="1"/>
<feColorMatrix type="matrix" values="0 0 0 0 0.796078 0 0 0 0 0.572549 0 0 0 0 0.478431 0 0 0 0.6 0"/>
<feBlend mode="normal" in2="shape" result="effect1_innerShadow_6_113"/>
</filter>
<filter id="filter9_i_6_113" x="171" y="154" width="58" height="58" filterUnits="userSpaceOnUse" color-interpolation-filters="sRGB">
<feFlood flood-opacity="0" result="BackgroundImageFix"/>
<feBlend mode="normal" in="SourceGraphic" in2="BackgroundImageFix" result="shape"/>
<feColorMatrix in="SourceAlpha" type="matrix" values="0 0 0 0 0 0 0 0 0 0 0 0 0 0 0 0 0 0 127 0" result="hardAlpha"/>
<feOffset dx="5" dy="-5"/>
<feGaussianBlur stdDeviation="33.5"/>
<feComposite in2="hardAlpha" operator="arithmetic" k2="-1" k3="1"/>
<feColorMatrix type="matrix" values="0 0 0 0 0.796078 0 0 0 0 0.572549 0 0 0 0 0.478431 0 0 0 0.29 0"/>
<feBlend mode="normal" in2="shape" result="effect1_innerShadow_6_113"/>
</filter>
<filter id="filter10_i_6_113" x="171" y="155" width="57" height="57" filterUnits="userSpaceOnUse" color-interpolation-filters="sRGB">
<feFlood flood-opacity="0" result="BackgroundImageFix"/>
<feBlend mode="normal" in="SourceGraphic" in2="BackgroundImageFix" result="shape"/>
<feColorMatrix in="SourceAlpha" type="matrix" values="0 0 0 0 0 0 0 0 0 0 0 0 0 0 0 0 0 0 127 0" result="hardAlpha"/>
<feOffset dx="4" dy="-4"/>
<feGaussianBlur stdDeviation="2"/>
<feComposite in2="hardAlpha" operator="arithmetic" k2="-1" k3="1"/>
<feColorMatrix type="matrix" values="0 0 0 0 0.796078 0 0 0 0 0.572549 0 0 0 0 0.478431 0 0 0 0.25 0"/>
<feBlend mode="normal" in2="shape" result="effect1_innerShadow_6_113"/>
</filter>
<filter id="filter11_i_6_113" x="185" y="173" width="29" height="25" filterUnits="userSpaceOnUse" color-interpolation-filters="sRGB">
<feFlood flood-opacity="0" result="BackgroundImageFix"/>
<feBlend mode="normal" in="SourceGraphic" in2="BackgroundImageFix" result="shape"/>
<feColorMatrix in="SourceAlpha" type="matrix" values="0 0 0 0 0 0 0 0 0 0 0 0 0 0 0 0 0 0 127 0" result="hardAlpha"/>
<feOffset dx="8"/>
<feGaussianBlur stdDeviation="2"/>
<feComposite in2="hardAlpha" operator="arithmetic" k2="-1" k3="1"/>
<feColorMatrix type="matrix" values="0 0 0 0 0.796078 0 0 0 0 0.572549 0 0 0 0 0.478431 0 0 0 0.25 0"/>
<feBlend mode="normal" in2="shape" result="effect1_innerShadow_6_113"/>
</filter>
<filter id="filter12_i_6_113" x="191" y="55" width="278" height="256" filterUnits="userSpaceOnUse" color-interpolation-filters="sRGB">
<feFlood flood-opacity="0" result="BackgroundImageFix"/>
<feBlend mode="normal" in="SourceGraphic" in2="BackgroundImageFix" result="shape"/>
<feColorMatrix in="SourceAlpha" type="matrix" values="0 0 0 0 0 0 0 0 0 0 0 0 0 0 0 0 0 0 127 0" result="hardAlpha"/>
<feOffset dx="22"/>
<feGaussianBlur stdDeviation="28"/>
<feComposite in2="hardAlpha" operator="arithmetic" k2="-1" k3="1"/>
<feColorMatrix type="matrix" values="0 0 0 0 0.795833 0 0 0 0 0.573 0 0 0 0 0.4775 0 0 0 0.29 0"/>
<feBlend mode="normal" in2="shape" result="effect1_innerShadow_6_113"/>
</filter>
<filter id="filter13_i_6_113" x="402" y="154" width="57" height="57" filterUnits="userSpaceOnUse" color-interpolation-filters="sRGB">
<feFlood flood-opacity="0" result="BackgroundImageFix"/>
<feBlend mode="normal" in="SourceGraphic" in2="BackgroundImageFix" result="shape"/>
<feColorMatrix in="SourceAlpha" type="matrix" values="0 0 0 0 0 0 0 0 0 0 0 0 0 0 0 0 0 0 127 0" result="hardAlpha"/>
<feOffset dx="-4" dy="-4"/>
<feGaussianBlur stdDeviation="2"/>
<feComposite in2="hardAlpha" operator="arithmetic" k2="-1" k3="1"/>
<feColorMatrix type="matrix" values="0 0 0 0 0.796078 0 0 0 0 0.572549 0 0 0 0 0.478431 0 0 0 0.25 0"/>
<feBlend mode="normal" in2="shape" result="effect1_innerShadow_6_113"/>
</filter>
<filter id="filter14_i_6_113" x="416" y="172" width="29" height="25" filterUnits="userSpaceOnUse" color-interpolation-filters="sRGB">
<feFlood flood-opacity="0" result="BackgroundImageFix"/>
<feBlend mode="normal" in="SourceGraphic" in2="BackgroundImageFix" result="shape"/>
<feColorMatrix in="SourceAlpha" type="matrix" values="0 0 0 0 0 0 0 0 0 0 0 0 0 0 0 0 0 0 127 0" result="hardAlpha"/>
<feOffset dx="-8"/>
<feGaussianBlur stdDeviation="2"/>
<feComposite in2="hardAlpha" operator="arithmetic" k2="-1" k3="1"/>
<feColorMatrix type="matrix" values="0 0 0 0 0.796078 0 0 0 0 0.572549 0 0 0 0 0.478431 0 0 0 0.25 0"/>
<feBlend mode="normal" in2="shape" result="effect1_innerShadow_6_113"/>
</filter>
<filter id="filter15_i_6_113" x="213" y="154" width="59" height="59" filterUnits="userSpaceOnUse" color-interpolation-filters="sRGB">
<feFlood flood-opacity="0" result="BackgroundImageFix"/>
<feBlend mode="normal" in="SourceGraphic" in2="BackgroundImageFix" result="shape"/>
<feColorMatrix in="SourceAlpha" type="matrix" values="0 0 0 0 0 0 0 0 0 0 0 0 0 0 0 0 0 0 127 0" result="hardAlpha"/>
<feOffset dx="4" dy="-4"/>
<feGaussianBlur stdDeviation="7.5"/>
<feComposite in2="hardAlpha" operator="arithmetic" k2="-1" k3="1"/>
<feColorMatrix type="matrix" values="0 0 0 0 0 0 0 0 0 0 0 0 0 0 0 0 0 0 0.1 0"/>
<feBlend mode="normal" in2="shape" result="effect1_innerShadow_6_113"/>
</filter>
<filter id="filter16_i_6_113" x="318" y="154" width="59" height="59" filterUnits="userSpaceOnUse" color-interpolation-filters="sRGB">
<feFlood flood-opacity="0" result="BackgroundImageFix"/>
<feBlend mode="normal" in="SourceGraphic" in2="BackgroundImageFix" result="shape"/>
<feColorMatrix in="SourceAlpha" type="matrix" values="0 0 0 0 0 0 0 0 0 0 0 0 0 0 0 0 0 0 127 0" result="hardAlpha"/>
<feOffset dx="4" dy="-4"/>
<feGaussianBlur stdDeviation="7.5"/>
<feComposite in2="hardAlpha" operator="arithmetic" k2="-1" k3="1"/>
<feColorMatrix type="matrix" values="0 0 0 0 0 0 0 0 0 0 0 0 0 0 0 0 0 0 0.1 0"/>
<feBlend mode="normal" in2="shape" result="effect1_innerShadow_6_113"/>
</filter>
<linearGradient id="paint0_linear_6_113" x1="297" y1="498" x2="398.5" y2="680.5" gradientUnits="userSpaceOnUse">
<stop stop-color="#8CC572"/>
<stop offset="1" stop-color="#699355"/>
</linearGradient>
</defs>
</svg>
