<svg width="611" height="1084" viewBox="0 0 611 1084" fill="none" xmlns="http://www.w3.org/2000/svg">
<g filter="url(#filter0_i_6_66)">
<rect x="193" y="120" width="243" height="238" rx="39" fill="#432B19"/>
</g>
<g filter="url(#filter1_i_6_66)">
<path d="M112.511 504.148C106.898 510.973 96.8146 511.954 89.9903 506.341L87.6734 504.435C79.5695 497.769 78.4039 485.795 85.0701 477.691L181.631 360.303L210.978 384.444L112.511 504.148Z" fill="#FFDFBA"/>
<path d="M79.5322 500.094C84.1012 507.658 93.9366 510.086 101.5 505.517L104.068 503.966C113.05 498.54 115.933 486.86 110.507 477.878L52.9162 382.539L20.39 402.187L79.5322 500.094Z" fill="#FFDFBA"/>
<path d="M152.22 393.761C147.102 389.551 146.366 381.989 150.576 376.871L188.694 330.534C197.115 320.298 212.239 318.826 222.476 327.247L253.366 352.659L200.002 417.53C195.791 422.648 188.229 423.384 183.111 419.173L152.22 393.761Z" fill="#8CC572"/>
<rect x="0.49707" y="349.319" width="45" height="68" rx="22.5" transform="rotate(-16.9649 0.49707 349.319)" fill="#FFDFBA"/>
<rect width="17.1814" height="25.2946" rx="8.59072" transform="matrix(-0.855842 -0.517237 -0.517237 0.855842 67.283 371.392)" fill="#FFDFBA"/>
</g>
<g filter="url(#filter2_i_6_66)">
<path d="M515.86 465.204C522.024 471.535 521.889 481.664 515.558 487.829L513.409 489.922C505.891 497.242 493.862 497.082 486.541 489.564L380.501 380.663L407.726 354.153L515.86 465.204Z" fill="#FFDFBA"/>
<path d="M484.876 466.354C479.974 473.706 481.96 483.64 489.312 488.542L491.808 490.206C500.538 496.028 512.335 493.67 518.157 484.939L583.81 386.479L552.194 365.398L484.876 466.354Z" fill="#FFDFBA"/>
<path d="M446.54 391.113C451.429 386.639 451.766 379.048 447.292 374.159L406.789 329.893C397.841 320.114 382.66 319.44 372.881 328.388L361.077 339.189C351.298 348.137 350.624 363.318 359.572 373.097L400.075 417.363C404.549 422.252 412.14 422.589 417.029 418.115L446.54 391.113Z" fill="#8CC572"/>
<g filter="url(#filter3_i_6_66)">
<rect x="537.983" y="351.145" width="17.1814" height="25.2946" rx="8.59072" transform="rotate(-18.488 537.983 351.145)" fill="#FFDFBA"/>
</g>
<rect width="45" height="68" rx="22.5" transform="matrix(-0.869288 -0.494306 -0.494306 0.869288 607.983 344.244)" fill="#FFDFBA"/>
</g>
<rect x="182" y="322" width="231" height="386" rx="25" fill="url(#paint0_linear_6_66)"/>
<g filter="url(#filter4_i_6_66)">
<path d="M182 672H413V708H182V672Z" fill="#353535"/>
<path d="M182 708H269V1047.5C269 1067.66 252.658 1084 232.5 1084H218.5C198.342 1084 182 1067.66 182 1047.5V708Z" fill="#353535"/>
<g filter="url(#filter5_ii_6_66)">
<path d="M269.5 1076.83V1015.86C269.5 1014.08 268.835 1012.36 267.634 1011.04C266.275 1009.54 264.349 1008.69 262.329 1008.69H245.783C243.266 1008.69 240.754 1008.47 238.275 1008.03L200.892 1001.4C197.46 1000.79 194.448 998.754 192.606 995.795L191.17 993.487C189.82 991.318 187.447 990 184.893 990C180.81 990 177.5 993.31 177.5 997.393V1007.87C177.5 1017.73 169.501 1025.73 159.634 1025.73H144.134C128.044 1025.73 115 1038.77 115 1054.87C115 1070.96 128.044 1084 144.134 1084H262.329C264.349 1084 266.275 1083.15 267.634 1081.65C268.835 1080.33 269.5 1078.61 269.5 1076.83Z" fill="#643B1E"/>
</g>
<path d="M326 708H413V1047.5C413 1067.66 396.658 1084 376.5 1084H362.5C342.342 1084 326 1067.66 326 1047.5V708Z" fill="#353535"/>
<g filter="url(#filter6_ii_6_66)">
<path d="M413.5 1076.83V1015.86C413.5 1014.08 412.835 1012.36 411.634 1011.04C410.275 1009.54 408.349 1008.69 406.329 1008.69H389.783C387.266 1008.69 384.754 1008.47 382.275 1008.03L344.892 1001.4C341.46 1000.79 338.448 998.754 336.606 995.795L335.17 993.487C333.82 991.318 331.447 990 328.893 990C324.81 990 321.5 993.31 321.5 997.393V1007.87C321.5 1017.73 313.501 1025.73 303.634 1025.73H288.134C272.044 1025.73 259 1038.77 259 1054.87C259 1070.96 272.044 1084 288.134 1084H406.329C408.349 1084 410.275 1083.15 411.634 1081.65C412.835 1080.33 413.5 1078.61 413.5 1076.83Z" fill="#643B1E"/>
</g>
</g>
<g filter="url(#filter7_i_6_66)">
<path d="M265 276C265 272.686 267.686 270 271 270H311C314.314 270 317 272.686 317 276V320C317 334.359 305.359 346 291 346V346C276.641 346 265 334.359 265 320V276Z" fill="#FFDFBA"/>
</g>
<g filter="url(#filter8_i_6_66)">
<g filter="url(#filter9_i_6_66)">
<circle cx="169.5" cy="164.5" r="26.5" fill="#FFDFBA"/>
</g>
<g filter="url(#filter10_i_6_66)">
<circle cx="169.5" cy="164.5" r="12.5" fill="#FFDFBA"/>
</g>
</g>
<g filter="url(#filter11_i_6_66)">
<circle cx="291" cy="162" r="128" fill="#FFDFBA"/>
</g>
<path d="M373 112.5C402 160 395 303 395 303L404 306L433 235C433 235 449 106 415 52C381 -2 198 -14 164 20C130 54 139 97 164 112.5C189 128 344 64.9999 373 112.5Z" fill="#643B1E"/>
<g filter="url(#filter12_i_6_66)">
<circle cx="404.5" cy="163.5" r="26.5" fill="#FFDFBA"/>
</g>
<g filter="url(#filter13_i_6_66)">
<circle cx="404.5" cy="163.5" r="12.5" fill="#FFDFBA"/>
</g>
<mask id="mask0_6_66" style="mask-type:alpha" maskUnits="userSpaceOnUse" x="164" y="101" width="183" height="73">
<path d="M164 101H346.937V174H164V101Z" fill="#C4C4C4"/>
</mask>
<g mask="url(#mask0_6_66)">
<g filter="url(#filter14_i_6_66)">
<circle cx="212.5" cy="164.5" r="27.5" fill="white"/>
</g>
<circle cx="212.5" cy="164.5" r="13.5" fill="#643B1E"/>
<g filter="url(#filter15_i_6_66)">
<circle cx="317.5" cy="164.5" r="27.5" fill="white"/>
</g>
<circle cx="317.5" cy="164.5" r="13.5" fill="#643B1E"/>
</g>
<path d="M290.035 232.183C291.921 234.908 291.253 238.682 288.322 240.228C281.193 243.987 273.232 245.981 265.114 246C256.995 246.018 249.025 244.06 241.879 240.333C238.941 238.801 238.256 235.03 240.129 232.296V232.296C242.003 229.563 245.723 228.914 248.718 230.334C253.81 232.749 259.4 234.012 265.086 233.999C270.772 233.986 276.356 232.698 281.438 230.26C284.426 228.826 288.15 229.458 290.035 232.183V232.183Z" fill="black"/>
<defs>
<filter id="filter0_i_6_66" x="193" y="120" width="243" height="238" filterUnits="userSpaceOnUse" color-interpolation-filters="sRGB">
<feFlood flood-opacity="0" result="BackgroundImageFix"/>
<feBlend mode="normal" in="SourceGraphic" in2="BackgroundImageFix" result="shape"/>
<feColorMatrix in="SourceAlpha" type="matrix" values="0 0 0 0 0 0 0 0 0 0 0 0 0 0 0 0 0 0 127 0" result="hardAlpha"/>
<feOffset dx="-46" dy="40"/>
<feComposite in2="hardAlpha" operator="arithmetic" k2="-1" k3="1"/>
<feColorMatrix type="matrix" values="0 0 0 0 0.391667 0 0 0 0 0.231703 0 0 0 0 0.115868 0 0 0 1 0"/>
<feBlend mode="normal" in2="shape" result="effect1_innerShadow_6_66"/>
</filter>
<filter id="filter1_i_6_66" x="6.07718" y="308.781" width="250.289" height="201.204" filterUnits="userSpaceOnUse" color-interpolation-filters="sRGB">
<feFlood flood-opacity="0" result="BackgroundImageFix"/>
<feBlend mode="normal" in="SourceGraphic" in2="BackgroundImageFix" result="shape"/>
<feColorMatrix in="SourceAlpha" type="matrix" values="0 0 0 0 0 0 0 0 0 0 0 0 0 0 0 0 0 0 127 0" result="hardAlpha"/>
<feOffset dx="3" dy="-13"/>
<feGaussianBlur stdDeviation="14.5"/>
<feComposite in2="hardAlpha" operator="arithmetic" k2="-1" k3="1"/>
<feColorMatrix type="matrix" values="0 0 0 0 0 0 0 0 0 0 0 0 0 0 0 0 0 0 0.25 0"/>
<feBlend mode="normal" in2="shape" result="effect1_innerShadow_6_66"/>
</filter>
<filter id="filter2_i_6_66" x="353.278" y="318.094" width="258.528" height="177.215" filterUnits="userSpaceOnUse" color-interpolation-filters="sRGB">
<feFlood flood-opacity="0" result="BackgroundImageFix"/>
<feBlend mode="normal" in="SourceGraphic" in2="BackgroundImageFix" result="shape"/>
<feColorMatrix in="SourceAlpha" type="matrix" values="0 0 0 0 0 0 0 0 0 0 0 0 0 0 0 0 0 0 127 0" result="hardAlpha"/>
<feOffset dx="12" dy="-4"/>
<feGaussianBlur stdDeviation="13.5"/>
<feComposite in2="hardAlpha" operator="arithmetic" k2="-1" k3="1"/>
<feColorMatrix type="matrix" values="0 0 0 0 0 0 0 0 0 0 0 0 0 0 0 0 0 0 0.25 0"/>
<feBlend mode="normal" in2="shape" result="effect1_innerShadow_6_66"/>
</filter>
<filter id="filter3_i_6_66" x="540.262" y="347.975" width="19.7589" height="28.8805" filterUnits="userSpaceOnUse" color-interpolation-filters="sRGB">
<feFlood flood-opacity="0" result="BackgroundImageFix"/>
<feBlend mode="normal" in="SourceGraphic" in2="BackgroundImageFix" result="shape"/>
<feColorMatrix in="SourceAlpha" type="matrix" values="0 0 0 0 0 0 0 0 0 0 0 0 0 0 0 0 0 0 127 0" result="hardAlpha"/>
<feOffset dy="4"/>
<feGaussianBlur stdDeviation="7"/>
<feComposite in2="hardAlpha" operator="arithmetic" k2="-1" k3="1"/>
<feColorMatrix type="matrix" values="0 0 0 0 0.796078 0 0 0 0 0.572549 0 0 0 0 0.478431 0 0 0 0.25 0"/>
<feBlend mode="normal" in2="shape" result="effect1_innerShadow_6_66"/>
</filter>
<filter id="filter4_i_6_66" x="99.9999" y="642" width="313.5" height="442" filterUnits="userSpaceOnUse" color-interpolation-filters="sRGB">
<feFlood flood-opacity="0" result="BackgroundImageFix"/>
<feBlend mode="normal" in="SourceGraphic" in2="BackgroundImageFix" result="shape"/>
<feColorMatrix in="SourceAlpha" type="matrix" values="0 0 0 0 0 0 0 0 0 0 0 0 0 0 0 0 0 0 127 0" result="hardAlpha"/>
<feOffset dx="-15" dy="-30"/>
<feGaussianBlur stdDeviation="16"/>
<feComposite in2="hardAlpha" operator="arithmetic" k2="-1" k3="1"/>
<feColorMatrix type="matrix" values="0 0 0 0 0 0 0 0 0 0 0 0 0 0 0 0 0 0 0.25 0"/>
<feBlend mode="normal" in2="shape" result="effect1_innerShadow_6_66"/>
</filter>
<filter id="filter5_ii_6_66" x="98.9999" y="964" width="170.5" height="120" filterUnits="userSpaceOnUse" color-interpolation-filters="sRGB">
<feFlood flood-opacity="0" result="BackgroundImageFix"/>
<feBlend mode="normal" in="SourceGraphic" in2="BackgroundImageFix" result="shape"/>
<feColorMatrix in="SourceAlpha" type="matrix" values="0 0 0 0 0 0 0 0 0 0 0 0 0 0 0 0 0 0 127 0" result="hardAlpha"/>
<feOffset dy="-15"/>
<feComposite in2="hardAlpha" operator="arithmetic" k2="-1" k3="1"/>
<feColorMatrix type="matrix" values="0 0 0 0 0 0 0 0 0 0 0 0 0 0 0 0 0 0 0.25 0"/>
<feBlend mode="normal" in2="shape" result="effect1_innerShadow_6_66"/>
<feColorMatrix in="SourceAlpha" type="matrix" values="0 0 0 0 0 0 0 0 0 0 0 0 0 0 0 0 0 0 127 0" result="hardAlpha"/>
<feOffset dx="-16" dy="-26"/>
<feGaussianBlur stdDeviation="15"/>
<feComposite in2="hardAlpha" operator="arithmetic" k2="-1" k3="1"/>
<feColorMatrix type="matrix" values="0 0 0 0 0 0 0 0 0 0 0 0 0 0 0 0 0 0 0.25 0"/>
<feBlend mode="normal" in2="effect1_innerShadow_6_66" result="effect2_innerShadow_6_66"/>
</filter>
<filter id="filter6_ii_6_66" x="243" y="964" width="170.5" height="120" filterUnits="userSpaceOnUse" color-interpolation-filters="sRGB">
<feFlood flood-opacity="0" result="BackgroundImageFix"/>
<feBlend mode="normal" in="SourceGraphic" in2="BackgroundImageFix" result="shape"/>
<feColorMatrix in="SourceAlpha" type="matrix" values="0 0 0 0 0 0 0 0 0 0 0 0 0 0 0 0 0 0 127 0" result="hardAlpha"/>
<feOffset dy="-15"/>
<feComposite in2="hardAlpha" operator="arithmetic" k2="-1" k3="1"/>
<feColorMatrix type="matrix" values="0 0 0 0 0 0 0 0 0 0 0 0 0 0 0 0 0 0 0.25 0"/>
<feBlend mode="normal" in2="shape" result="effect1_innerShadow_6_66"/>
<feColorMatrix in="SourceAlpha" type="matrix" values="0 0 0 0 0 0 0 0 0 0 0 0 0 0 0 0 0 0 127 0" result="hardAlpha"/>
<feOffset dx="-16" dy="-26"/>
<feGaussianBlur stdDeviation="15"/>
<feComposite in2="hardAlpha" operator="arithmetic" k2="-1" k3="1"/>
<feColorMatrix type="matrix" values="0 0 0 0 0 0 0 0 0 0 0 0 0 0 0 0 0 0 0.25 0"/>
<feBlend mode="normal" in2="effect1_innerShadow_6_66" result="effect2_innerShadow_6_66"/>
</filter>
<filter id="filter7_i_6_66" x="265" y="270" width="52" height="90" filterUnits="userSpaceOnUse" color-interpolation-filters="sRGB">
<feFlood flood-opacity="0" result="BackgroundImageFix"/>
<feBlend mode="normal" in="SourceGraphic" in2="BackgroundImageFix" result="shape"/>
<feColorMatrix in="SourceAlpha" type="matrix" values="0 0 0 0 0 0 0 0 0 0 0 0 0 0 0 0 0 0 127 0" result="hardAlpha"/>
<feOffset dy="34"/>
<feGaussianBlur stdDeviation="7"/>
<feComposite in2="hardAlpha" operator="arithmetic" k2="-1" k3="1"/>
<feColorMatrix type="matrix" values="0 0 0 0 0.796078 0 0 0 0 0.572549 0 0 0 0 0.478431 0 0 0 0.6 0"/>
<feBlend mode="normal" in2="shape" result="effect1_innerShadow_6_66"/>
</filter>
<filter id="filter8_i_6_66" x="143" y="133" width="58" height="58" filterUnits="userSpaceOnUse" color-interpolation-filters="sRGB">
<feFlood flood-opacity="0" result="BackgroundImageFix"/>
<feBlend mode="normal" in="SourceGraphic" in2="BackgroundImageFix" result="shape"/>
<feColorMatrix in="SourceAlpha" type="matrix" values="0 0 0 0 0 0 0 0 0 0 0 0 0 0 0 0 0 0 127 0" result="hardAlpha"/>
<feOffset dx="5" dy="-5"/>
<feGaussianBlur stdDeviation="33.5"/>
<feComposite in2="hardAlpha" operator="arithmetic" k2="-1" k3="1"/>
<feColorMatrix type="matrix" values="0 0 0 0 0.796078 0 0 0 0 0.572549 0 0 0 0 0.478431 0 0 0 0.29 0"/>
<feBlend mode="normal" in2="shape" result="effect1_innerShadow_6_66"/>
</filter>
<filter id="filter9_i_6_66" x="143" y="134" width="57" height="57" filterUnits="userSpaceOnUse" color-interpolation-filters="sRGB">
<feFlood flood-opacity="0" result="BackgroundImageFix"/>
<feBlend mode="normal" in="SourceGraphic" in2="BackgroundImageFix" result="shape"/>
<feColorMatrix in="SourceAlpha" type="matrix" values="0 0 0 0 0 0 0 0 0 0 0 0 0 0 0 0 0 0 127 0" result="hardAlpha"/>
<feOffset dx="4" dy="-4"/>
<feGaussianBlur stdDeviation="2"/>
<feComposite in2="hardAlpha" operator="arithmetic" k2="-1" k3="1"/>
<feColorMatrix type="matrix" values="0 0 0 0 0.796078 0 0 0 0 0.572549 0 0 0 0 0.478431 0 0 0 0.25 0"/>
<feBlend mode="normal" in2="shape" result="effect1_innerShadow_6_66"/>
</filter>
<filter id="filter10_i_6_66" x="157" y="152" width="29" height="25" filterUnits="userSpaceOnUse" color-interpolation-filters="sRGB">
<feFlood flood-opacity="0" result="BackgroundImageFix"/>
<feBlend mode="normal" in="SourceGraphic" in2="BackgroundImageFix" result="shape"/>
<feColorMatrix in="SourceAlpha" type="matrix" values="0 0 0 0 0 0 0 0 0 0 0 0 0 0 0 0 0 0 127 0" result="hardAlpha"/>
<feOffset dx="8"/>
<feGaussianBlur stdDeviation="2"/>
<feComposite in2="hardAlpha" operator="arithmetic" k2="-1" k3="1"/>
<feColorMatrix type="matrix" values="0 0 0 0 0.796078 0 0 0 0 0.572549 0 0 0 0 0.478431 0 0 0 0.25 0"/>
<feBlend mode="normal" in2="shape" result="effect1_innerShadow_6_66"/>
</filter>
<filter id="filter11_i_6_66" x="163" y="34" width="278" height="256" filterUnits="userSpaceOnUse" color-interpolation-filters="sRGB">
<feFlood flood-opacity="0" result="BackgroundImageFix"/>
<feBlend mode="normal" in="SourceGraphic" in2="BackgroundImageFix" result="shape"/>
<feColorMatrix in="SourceAlpha" type="matrix" values="0 0 0 0 0 0 0 0 0 0 0 0 0 0 0 0 0 0 127 0" result="hardAlpha"/>
<feOffset dx="22"/>
<feGaussianBlur stdDeviation="28"/>
<feComposite in2="hardAlpha" operator="arithmetic" k2="-1" k3="1"/>
<feColorMatrix type="matrix" values="0 0 0 0 0.795833 0 0 0 0 0.573 0 0 0 0 0.4775 0 0 0 0.29 0"/>
<feBlend mode="normal" in2="shape" result="effect1_innerShadow_6_66"/>
</filter>
<filter id="filter12_i_6_66" x="374" y="133" width="57" height="57" filterUnits="userSpaceOnUse" color-interpolation-filters="sRGB">
<feFlood flood-opacity="0" result="BackgroundImageFix"/>
<feBlend mode="normal" in="SourceGraphic" in2="BackgroundImageFix" result="shape"/>
<feColorMatrix in="SourceAlpha" type="matrix" values="0 0 0 0 0 0 0 0 0 0 0 0 0 0 0 0 0 0 127 0" result="hardAlpha"/>
<feOffset dx="-4" dy="-4"/>
<feGaussianBlur stdDeviation="2"/>
<feComposite in2="hardAlpha" operator="arithmetic" k2="-1" k3="1"/>
<feColorMatrix type="matrix" values="0 0 0 0 0.796078 0 0 0 0 0.572549 0 0 0 0 0.478431 0 0 0 0.25 0"/>
<feBlend mode="normal" in2="shape" result="effect1_innerShadow_6_66"/>
</filter>
<filter id="filter13_i_6_66" x="388" y="151" width="29" height="25" filterUnits="userSpaceOnUse" color-interpolation-filters="sRGB">
<feFlood flood-opacity="0" result="BackgroundImageFix"/>
<feBlend mode="normal" in="SourceGraphic" in2="BackgroundImageFix" result="shape"/>
<feColorMatrix in="SourceAlpha" type="matrix" values="0 0 0 0 0 0 0 0 0 0 0 0 0 0 0 0 0 0 127 0" result="hardAlpha"/>
<feOffset dx="-8"/>
<feGaussianBlur stdDeviation="2"/>
<feComposite in2="hardAlpha" operator="arithmetic" k2="-1" k3="1"/>
<feColorMatrix type="matrix" values="0 0 0 0 0.796078 0 0 0 0 0.572549 0 0 0 0 0.478431 0 0 0 0.25 0"/>
<feBlend mode="normal" in2="shape" result="effect1_innerShadow_6_66"/>
</filter>
<filter id="filter14_i_6_66" x="185" y="133" width="59" height="59" filterUnits="userSpaceOnUse" color-interpolation-filters="sRGB">
<feFlood flood-opacity="0" result="BackgroundImageFix"/>
<feBlend mode="normal" in="SourceGraphic" in2="BackgroundImageFix" result="shape"/>
<feColorMatrix in="SourceAlpha" type="matrix" values="0 0 0 0 0 0 0 0 0 0 0 0 0 0 0 0 0 0 127 0" result="hardAlpha"/>
<feOffset dx="4" dy="-4"/>
<feGaussianBlur stdDeviation="7.5"/>
<feComposite in2="hardAlpha" operator="arithmetic" k2="-1" k3="1"/>
<feColorMatrix type="matrix" values="0 0 0 0 0 0 0 0 0 0 0 0 0 0 0 0 0 0 0.1 0"/>
<feBlend mode="normal" in2="shape" result="effect1_innerShadow_6_66"/>
</filter>
<filter id="filter15_i_6_66" x="290" y="133" width="59" height="59" filterUnits="userSpaceOnUse" color-interpolation-filters="sRGB">
<feFlood flood-opacity="0" result="BackgroundImageFix"/>
<feBlend mode="normal" in="SourceGraphic" in2="BackgroundImageFix" result="shape"/>
<feColorMatrix in="SourceAlpha" type="matrix" values="0 0 0 0 0 0 0 0 0 0 0 0 0 0 0 0 0 0 127 0" result="hardAlpha"/>
<feOffset dx="4" dy="-4"/>
<feGaussianBlur stdDeviation="7.5"/>
<feComposite in2="hardAlpha" operator="arithmetic" k2="-1" k3="1"/>
<feColorMatrix type="matrix" values="0 0 0 0 0 0 0 0 0 0 0 0 0 0 0 0 0 0 0.1 0"/>
<feBlend mode="normal" in2="shape" result="effect1_innerShadow_6_66"/>
</filter>
<linearGradient id="paint0_linear_6_66" x1="269" y1="477" x2="370.5" y2="659.5" gradientUnits="userSpaceOnUse">
<stop stop-color="#8CC572"/>
<stop offset="1" stop-color="#699355"/>
</linearGradient>
</defs>
</svg>
