<svg width="573" height="1084" viewBox="0 0 573 1084" fill="none" xmlns="http://www.w3.org/2000/svg">
<g filter="url(#filter0_i_6_113)">
<rect x="221" y="120" width="243" height="238" rx="39" fill="#432B19"/>
</g>
<g filter="url(#filter1_i_6_113)">
<path d="M231.301 532.901C230.206 541.67 222.211 547.891 213.442 546.796L210.465 546.425C200.053 545.125 192.665 535.63 193.965 525.218L212.791 374.388L250.498 379.094L231.301 532.901Z" fill="#FFDFBA"/>
<path d="M230.774 530.552C232.869 521.967 227.608 513.31 219.023 511.215L216.109 510.504C205.914 508.016 195.634 514.264 193.146 524.458L166.742 632.667L203.659 641.676L230.774 530.552Z" fill="#FFDFBA"/>
<path d="M205.829 418.388C199.252 417.567 194.587 411.57 195.408 404.994L202.841 345.456C204.483 332.303 216.476 322.972 229.629 324.614L269.321 329.57L258.915 412.922C258.094 419.499 252.097 424.164 245.52 423.343L205.829 418.388Z" fill="#8CC572"/>
<rect x="188.691" y="689.74" width="45" height="68" rx="22.5" transform="rotate(-161.566 188.691 689.74)" fill="#FFDFBA"/>
<rect width="17.1814" height="25.2946" rx="8.59072" transform="matrix(0.398012 0.91738 0.91738 -0.398012 147.038 633.061)" fill="#FFDFBA"/>
</g>
<g filter="url(#filter2_i_6_113)">
<path d="M467.13 519.157C470.484 527.332 479.831 531.24 488.006 527.885L490.781 526.746C500.489 522.763 505.13 511.663 501.146 501.956L443.441 361.335L408.286 375.761L467.13 519.157Z" fill="#FFDFBA"/>
<path d="M464.559 506.223C464.598 497.386 471.794 490.255 480.63 490.294L483.63 490.308C494.123 490.354 502.592 498.899 502.545 509.392L502.018 627.733L464.018 627.563L464.559 506.223Z" fill="#FFDFBA"/>
<path d="M426.746 426.077C420.696 428.782 413.598 426.071 410.893 420.02L376.607 343.336L413.123 327.01C425.224 321.599 439.419 327.023 444.829 339.123L469.319 393.898C472.024 399.948 469.313 407.045 463.263 409.751L426.746 426.077Z" fill="#8CC572"/>
<g filter="url(#filter3_i_6_113)">
<rect width="17.1814" height="25.2946" rx="8.59072" transform="matrix(0.609606 0.792705 0.792705 -0.609606 444.27 631.45)" fill="#FFDFBA"/>
</g>
<rect x="498.482" y="676.268" width="45" height="68" rx="22.5" transform="rotate(-175.673 498.482 676.268)" fill="#FFDFBA"/>
</g>
<rect x="210" y="322" width="231" height="386" rx="25" fill="url(#paint0_linear_6_113)"/>
<g filter="url(#filter4_i_6_113)">
<path d="M210 672H441V708H210V672Z" fill="#353535"/>
<path d="M210 708H297V1047.5C297 1067.66 280.658 1084 260.5 1084H246.5C226.341 1084 210 1067.66 210 1047.5V708Z" fill="#353535"/>
<g filter="url(#filter5_ii_6_113)">
<path d="M297.5 1076.83V1015.86C297.5 1014.08 296.834 1012.36 295.634 1011.04C294.275 1009.54 292.348 1008.69 290.329 1008.69H273.783C271.266 1008.69 268.753 1008.47 266.275 1008.03L228.892 1001.4C225.46 1000.79 222.448 998.754 220.606 995.795L219.17 993.487C217.82 991.318 215.447 990 212.893 990C208.81 990 205.5 993.31 205.5 997.393V1007.87C205.5 1017.73 197.501 1025.73 187.634 1025.73H172.134C156.044 1025.73 143 1038.77 143 1054.87C143 1070.96 156.044 1084 172.134 1084H290.329C292.348 1084 294.275 1083.15 295.634 1081.65C296.834 1080.33 297.5 1078.61 297.5 1076.83Z" fill="#643B1E"/>
</g>
<path d="M354 708H441V1047.5C441 1067.66 424.658 1084 404.5 1084H390.5C370.341 1084 354 1067.66 354 1047.5V708Z" fill="#353535"/>
<g filter="url(#filter6_ii_6_113)">
<path d="M441.5 1076.83V1015.86C441.5 1014.08 440.834 1012.36 439.634 1011.04C438.275 1009.54 436.348 1008.69 434.329 1008.69H417.783C415.266 1008.69 412.753 1008.47 410.275 1008.03L372.892 1001.4C369.46 1000.79 366.448 998.754 364.606 995.795L363.17 993.487C361.82 991.318 359.447 990 356.893 990C352.81 990 349.5 993.31 349.5 997.393V1007.87C349.5 1017.73 341.501 1025.73 331.634 1025.73H316.134C300.044 1025.73 287 1038.77 287 1054.87C287 1070.96 300.044 1084 316.134 1084H434.329C436.348 1084 438.275 1083.15 439.634 1081.65C440.834 1080.33 441.5 1078.61 441.5 1076.83Z" fill="#643B1E"/>
</g>
</g>
<g filter="url(#filter7_i_6_113)">
<path d="M293 276C293 272.686 295.686 270 299 270H339C342.314 270 345 272.686 345 276V320C345 334.359 333.359 346 319 346V346C304.641 346 293 334.359 293 320V276Z" fill="#FFDFBA"/>
</g>
<g filter="url(#filter8_i_6_113)">
<g filter="url(#filter9_i_6_113)">
<circle cx="197.5" cy="164.5" r="26.5" fill="#FFDFBA"/>
</g>
<g filter="url(#filter10_i_6_113)">
<circle cx="197.5" cy="164.5" r="12.5" fill="#FFDFBA"/>
</g>
</g>
<g filter="url(#filter11_i_6_113)">
<circle cx="319" cy="162" r="128" fill="#FFDFBA"/>
</g>
<path d="M401 112.5C430 160 423 303 423 303L432 306L461 235C461 235 477 106 443 52C409 -2 226 -14 192 20C158 54 167 97 192 112.5C217 128 372 64.9999 401 112.5Z" fill="#643B1E"/>
<g filter="url(#filter12_i_6_113)">
<circle cx="432.5" cy="163.5" r="26.5" fill="#FFDFBA"/>
</g>
<g filter="url(#filter13_i_6_113)">
<circle cx="432.5" cy="163.5" r="12.5" fill="#FFDFBA"/>
</g>
<mask id="mask0_6_113" style="mask-type:alpha" maskUnits="userSpaceOnUse" x="201" y="115" width="184" height="73">
<path d="M202 115H384.937V188H202V115Z" fill="#C4C4C4"/>
</mask>
<g mask="url(#mask0_6_113)">
<g filter="url(#filter14_i_6_113)">
<circle cx="240.5" cy="164.5" r="27.5" fill="white"/>
</g>
<circle cx="240.5" cy="164.5" r="13.5" fill="#643B1E"/>
<g filter="url(#filter15_i_6_113)">
<circle cx="345.5" cy="164.5" r="27.5" fill="white"/>
</g>
<circle cx="345.5" cy="164.5" r="13.5" fill="#643B1E"/>
</g>
<path d="M267.901 240C266.041 237.257 266.705 233.492 269.622 231.918C276.765 228.064 284.746 226.019 292.886 226C301.026 225.981 309.016 227.989 316.176 231.81C319.1 233.37 319.782 237.133 317.933 239.885V239.885C316.036 242.709 312.204 243.376 309.134 241.908C304.081 239.491 298.545 238.228 292.914 238.241C287.282 238.254 281.751 239.543 276.709 241.983C273.646 243.466 269.811 242.816 267.901 240V240Z" fill="black"/>
<defs>
<filter id="filter0_i_6_113" x="221" y="120" width="243" height="238" filterUnits="userSpaceOnUse" color-interpolation-filters="sRGB">
<feFlood flood-opacity="0" result="BackgroundImageFix"/>
<feBlend mode="normal" in="SourceGraphic" in2="BackgroundImageFix" result="shape"/>
<feColorMatrix in="SourceAlpha" type="matrix" values="0 0 0 0 0 0 0 0 0 0 0 0 0 0 0 0 0 0 127 0" result="hardAlpha"/>
<feOffset dx="-46" dy="40"/>
<feComposite in2="hardAlpha" operator="arithmetic" k2="-1" k3="1"/>
<feColorMatrix type="matrix" values="0 0 0 0 0.391667 0 0 0 0 0.231703 0 0 0 0 0.115868 0 0 0 1 0"/>
<feBlend mode="normal" in2="shape" result="effect1_innerShadow_6_113"/>
</filter>
<filter id="filter1_i_6_113" x="149.745" y="311.427" width="122.576" height="372.36" filterUnits="userSpaceOnUse" color-interpolation-filters="sRGB">
<feFlood flood-opacity="0" result="BackgroundImageFix"/>
<feBlend mode="normal" in="SourceGraphic" in2="BackgroundImageFix" result="shape"/>
<feColorMatrix in="SourceAlpha" type="matrix" values="0 0 0 0 0 0 0 0 0 0 0 0 0 0 0 0 0 0 127 0" result="hardAlpha"/>
<feOffset dx="3" dy="-13"/>
<feGaussianBlur stdDeviation="14.5"/>
<feComposite in2="hardAlpha" operator="arithmetic" k2="-1" k3="1"/>
<feColorMatrix type="matrix" values="0 0 0 0 0 0 0 0 0 0 0 0 0 0 0 0 0 0 0.25 0"/>
<feBlend mode="normal" in2="shape" result="effect1_innerShadow_6_113"/>
</filter>
<filter id="filter2_i_6_113" x="376.607" y="320.913" width="137.966" height="353.722" filterUnits="userSpaceOnUse" color-interpolation-filters="sRGB">
<feFlood flood-opacity="0" result="BackgroundImageFix"/>
<feBlend mode="normal" in="SourceGraphic" in2="BackgroundImageFix" result="shape"/>
<feColorMatrix in="SourceAlpha" type="matrix" values="0 0 0 0 0 0 0 0 0 0 0 0 0 0 0 0 0 0 127 0" result="hardAlpha"/>
<feOffset dx="12" dy="-4"/>
<feGaussianBlur stdDeviation="13.5"/>
<feComposite in2="hardAlpha" operator="arithmetic" k2="-1" k3="1"/>
<feColorMatrix type="matrix" values="0 0 0 0 0 0 0 0 0 0 0 0 0 0 0 0 0 0 0.25 0"/>
<feBlend mode="normal" in2="shape" result="effect1_innerShadow_6_113"/>
</filter>
<filter id="filter3_i_6_113" x="447.725" y="619.486" width="23.6136" height="26.1281" filterUnits="userSpaceOnUse" color-interpolation-filters="sRGB">
<feFlood flood-opacity="0" result="BackgroundImageFix"/>
<feBlend mode="normal" in="SourceGraphic" in2="BackgroundImageFix" result="shape"/>
<feColorMatrix in="SourceAlpha" type="matrix" values="0 0 0 0 0 0 0 0 0 0 0 0 0 0 0 0 0 0 127 0" result="hardAlpha"/>
<feOffset dy="4"/>
<feGaussianBlur stdDeviation="7"/>
<feComposite in2="hardAlpha" operator="arithmetic" k2="-1" k3="1"/>
<feColorMatrix type="matrix" values="0 0 0 0 0.796078 0 0 0 0 0.572549 0 0 0 0 0.478431 0 0 0 0.25 0"/>
<feBlend mode="normal" in2="shape" result="effect1_innerShadow_6_113"/>
</filter>
<filter id="filter4_i_6_113" x="128" y="642" width="313.5" height="442" filterUnits="userSpaceOnUse" color-interpolation-filters="sRGB">
<feFlood flood-opacity="0" result="BackgroundImageFix"/>
<feBlend mode="normal" in="SourceGraphic" in2="BackgroundImageFix" result="shape"/>
<feColorMatrix in="SourceAlpha" type="matrix" values="0 0 0 0 0 0 0 0 0 0 0 0 0 0 0 0 0 0 127 0" result="hardAlpha"/>
<feOffset dx="-15" dy="-30"/>
<feGaussianBlur stdDeviation="16"/>
<feComposite in2="hardAlpha" operator="arithmetic" k2="-1" k3="1"/>
<feColorMatrix type="matrix" values="0 0 0 0 0 0 0 0 0 0 0 0 0 0 0 0 0 0 0.25 0"/>
<feBlend mode="normal" in2="shape" result="effect1_innerShadow_6_113"/>
</filter>
<filter id="filter5_ii_6_113" x="127" y="964" width="170.5" height="120" filterUnits="userSpaceOnUse" color-interpolation-filters="sRGB">
<feFlood flood-opacity="0" result="BackgroundImageFix"/>
<feBlend mode="normal" in="SourceGraphic" in2="BackgroundImageFix" result="shape"/>
<feColorMatrix in="SourceAlpha" type="matrix" values="0 0 0 0 0 0 0 0 0 0 0 0 0 0 0 0 0 0 127 0" result="hardAlpha"/>
<feOffset dy="-15"/>
<feComposite in2="hardAlpha" operator="arithmetic" k2="-1" k3="1"/>
<feColorMatrix type="matrix" values="0 0 0 0 0 0 0 0 0 0 0 0 0 0 0 0 0 0 0.25 0"/>
<feBlend mode="normal" in2="shape" result="effect1_innerShadow_6_113"/>
<feColorMatrix in="SourceAlpha" type="matrix" values="0 0 0 0 0 0 0 0 0 0 0 0 0 0 0 0 0 0 127 0" result="hardAlpha"/>
<feOffset dx="-16" dy="-26"/>
<feGaussianBlur stdDeviation="15"/>
<feComposite in2="hardAlpha" operator="arithmetic" k2="-1" k3="1"/>
<feColorMatrix type="matrix" values="0 0 0 0 0 0 0 0 0 0 0 0 0 0 0 0 0 0 0.25 0"/>
<feBlend mode="normal" in2="effect1_innerShadow_6_113" result="effect2_innerShadow_6_113"/>
</filter>
<filter id="filter6_ii_6_113" x="271" y="964" width="170.5" height="120" filterUnits="userSpaceOnUse" color-interpolation-filters="sRGB">
<feFlood flood-opacity="0" result="BackgroundImageFix"/>
<feBlend mode="normal" in="SourceGraphic" in2="BackgroundImageFix" result="shape"/>
<feColorMatrix in="SourceAlpha" type="matrix" values="0 0 0 0 0 0 0 0 0 0 0 0 0 0 0 0 0 0 127 0" result="hardAlpha"/>
<feOffset dy="-15"/>
<feComposite in2="hardAlpha" operator="arithmetic" k2="-1" k3="1"/>
<feColorMatrix type="matrix" values="0 0 0 0 0 0 0 0 0 0 0 0 0 0 0 0 0 0 0.25 0"/>
<feBlend mode="normal" in2="shape" result="effect1_innerShadow_6_113"/>
<feColorMatrix in="SourceAlpha" type="matrix" values="0 0 0 0 0 0 0 0 0 0 0 0 0 0 0 0 0 0 127 0" result="hardAlpha"/>
<feOffset dx="-16" dy="-26"/>
<feGaussianBlur stdDeviation="15"/>
<feComposite in2="hardAlpha" operator="arithmetic" k2="-1" k3="1"/>
<feColorMatrix type="matrix" values="0 0 0 0 0 0 0 0 0 0 0 0 0 0 0 0 0 0 0.25 0"/>
<feBlend mode="normal" in2="effect1_innerShadow_6_113" result="effect2_innerShadow_6_113"/>
</filter>
<filter id="filter7_i_6_113" x="293" y="270" width="52" height="90" filterUnits="userSpaceOnUse" color-interpolation-filters="sRGB">
<feFlood flood-opacity="0" result="BackgroundImageFix"/>
<feBlend mode="normal" in="SourceGraphic" in2="BackgroundImageFix" result="shape"/>
<feColorMatrix in="SourceAlpha" type="matrix" values="0 0 0 0 0 0 0 0 0 0 0 0 0 0 0 0 0 0 127 0" result="hardAlpha"/>
<feOffset dy="34"/>
<feGaussianBlur stdDeviation="7"/>
<feComposite in2="hardAlpha" operator="arithmetic" k2="-1" k3="1"/>
<feColorMatrix type="matrix" values="0 0 0 0 0.796078 0 0 0 0 0.572549 0 0 0 0 0.478431 0 0 0 0.6 0"/>
<feBlend mode="normal" in2="shape" result="effect1_innerShadow_6_113"/>
</filter>
<filter id="filter8_i_6_113" x="171" y="133" width="58" height="58" filterUnits="userSpaceOnUse" color-interpolation-filters="sRGB">
<feFlood flood-opacity="0" result="BackgroundImageFix"/>
<feBlend mode="normal" in="SourceGraphic" in2="BackgroundImageFix" result="shape"/>
<feColorMatrix in="SourceAlpha" type="matrix" values="0 0 0 0 0 0 0 0 0 0 0 0 0 0 0 0 0 0 127 0" result="hardAlpha"/>
<feOffset dx="5" dy="-5"/>
<feGaussianBlur stdDeviation="33.5"/>
<feComposite in2="hardAlpha" operator="arithmetic" k2="-1" k3="1"/>
<feColorMatrix type="matrix" values="0 0 0 0 0.796078 0 0 0 0 0.572549 0 0 0 0 0.478431 0 0 0 0.29 0"/>
<feBlend mode="normal" in2="shape" result="effect1_innerShadow_6_113"/>
</filter>
<filter id="filter9_i_6_113" x="171" y="134" width="57" height="57" filterUnits="userSpaceOnUse" color-interpolation-filters="sRGB">
<feFlood flood-opacity="0" result="BackgroundImageFix"/>
<feBlend mode="normal" in="SourceGraphic" in2="BackgroundImageFix" result="shape"/>
<feColorMatrix in="SourceAlpha" type="matrix" values="0 0 0 0 0 0 0 0 0 0 0 0 0 0 0 0 0 0 127 0" result="hardAlpha"/>
<feOffset dx="4" dy="-4"/>
<feGaussianBlur stdDeviation="2"/>
<feComposite in2="hardAlpha" operator="arithmetic" k2="-1" k3="1"/>
<feColorMatrix type="matrix" values="0 0 0 0 0.796078 0 0 0 0 0.572549 0 0 0 0 0.478431 0 0 0 0.25 0"/>
<feBlend mode="normal" in2="shape" result="effect1_innerShadow_6_113"/>
</filter>
<filter id="filter10_i_6_113" x="185" y="152" width="29" height="25" filterUnits="userSpaceOnUse" color-interpolation-filters="sRGB">
<feFlood flood-opacity="0" result="BackgroundImageFix"/>
<feBlend mode="normal" in="SourceGraphic" in2="BackgroundImageFix" result="shape"/>
<feColorMatrix in="SourceAlpha" type="matrix" values="0 0 0 0 0 0 0 0 0 0 0 0 0 0 0 0 0 0 127 0" result="hardAlpha"/>
<feOffset dx="8"/>
<feGaussianBlur stdDeviation="2"/>
<feComposite in2="hardAlpha" operator="arithmetic" k2="-1" k3="1"/>
<feColorMatrix type="matrix" values="0 0 0 0 0.796078 0 0 0 0 0.572549 0 0 0 0 0.478431 0 0 0 0.25 0"/>
<feBlend mode="normal" in2="shape" result="effect1_innerShadow_6_113"/>
</filter>
<filter id="filter11_i_6_113" x="191" y="34" width="278" height="256" filterUnits="userSpaceOnUse" color-interpolation-filters="sRGB">
<feFlood flood-opacity="0" result="BackgroundImageFix"/>
<feBlend mode="normal" in="SourceGraphic" in2="BackgroundImageFix" result="shape"/>
<feColorMatrix in="SourceAlpha" type="matrix" values="0 0 0 0 0 0 0 0 0 0 0 0 0 0 0 0 0 0 127 0" result="hardAlpha"/>
<feOffset dx="22"/>
<feGaussianBlur stdDeviation="28"/>
<feComposite in2="hardAlpha" operator="arithmetic" k2="-1" k3="1"/>
<feColorMatrix type="matrix" values="0 0 0 0 0.795833 0 0 0 0 0.573 0 0 0 0 0.4775 0 0 0 0.29 0"/>
<feBlend mode="normal" in2="shape" result="effect1_innerShadow_6_113"/>
</filter>
<filter id="filter12_i_6_113" x="402" y="133" width="57" height="57" filterUnits="userSpaceOnUse" color-interpolation-filters="sRGB">
<feFlood flood-opacity="0" result="BackgroundImageFix"/>
<feBlend mode="normal" in="SourceGraphic" in2="BackgroundImageFix" result="shape"/>
<feColorMatrix in="SourceAlpha" type="matrix" values="0 0 0 0 0 0 0 0 0 0 0 0 0 0 0 0 0 0 127 0" result="hardAlpha"/>
<feOffset dx="-4" dy="-4"/>
<feGaussianBlur stdDeviation="2"/>
<feComposite in2="hardAlpha" operator="arithmetic" k2="-1" k3="1"/>
<feColorMatrix type="matrix" values="0 0 0 0 0.796078 0 0 0 0 0.572549 0 0 0 0 0.478431 0 0 0 0.25 0"/>
<feBlend mode="normal" in2="shape" result="effect1_innerShadow_6_113"/>
</filter>
<filter id="filter13_i_6_113" x="416" y="151" width="29" height="25" filterUnits="userSpaceOnUse" color-interpolation-filters="sRGB">
<feFlood flood-opacity="0" result="BackgroundImageFix"/>
<feBlend mode="normal" in="SourceGraphic" in2="BackgroundImageFix" result="shape"/>
<feColorMatrix in="SourceAlpha" type="matrix" values="0 0 0 0 0 0 0 0 0 0 0 0 0 0 0 0 0 0 127 0" result="hardAlpha"/>
<feOffset dx="-8"/>
<feGaussianBlur stdDeviation="2"/>
<feComposite in2="hardAlpha" operator="arithmetic" k2="-1" k3="1"/>
<feColorMatrix type="matrix" values="0 0 0 0 0.796078 0 0 0 0 0.572549 0 0 0 0 0.478431 0 0 0 0.25 0"/>
<feBlend mode="normal" in2="shape" result="effect1_innerShadow_6_113"/>
</filter>
<filter id="filter14_i_6_113" x="213" y="133" width="59" height="59" filterUnits="userSpaceOnUse" color-interpolation-filters="sRGB">
<feFlood flood-opacity="0" result="BackgroundImageFix"/>
<feBlend mode="normal" in="SourceGraphic" in2="BackgroundImageFix" result="shape"/>
<feColorMatrix in="SourceAlpha" type="matrix" values="0 0 0 0 0 0 0 0 0 0 0 0 0 0 0 0 0 0 127 0" result="hardAlpha"/>
<feOffset dx="4" dy="-4"/>
<feGaussianBlur stdDeviation="7.5"/>
<feComposite in2="hardAlpha" operator="arithmetic" k2="-1" k3="1"/>
<feColorMatrix type="matrix" values="0 0 0 0 0 0 0 0 0 0 0 0 0 0 0 0 0 0 0.1 0"/>
<feBlend mode="normal" in2="shape" result="effect1_innerShadow_6_113"/>
</filter>
<filter id="filter15_i_6_113" x="318" y="133" width="59" height="59" filterUnits="userSpaceOnUse" color-interpolation-filters="sRGB">
<feFlood flood-opacity="0" result="BackgroundImageFix"/>
<feBlend mode="normal" in="SourceGraphic" in2="BackgroundImageFix" result="shape"/>
<feColorMatrix in="SourceAlpha" type="matrix" values="0 0 0 0 0 0 0 0 0 0 0 0 0 0 0 0 0 0 127 0" result="hardAlpha"/>
<feOffset dx="4" dy="-4"/>
<feGaussianBlur stdDeviation="7.5"/>
<feComposite in2="hardAlpha" operator="arithmetic" k2="-1" k3="1"/>
<feColorMatrix type="matrix" values="0 0 0 0 0 0 0 0 0 0 0 0 0 0 0 0 0 0 0.1 0"/>
<feBlend mode="normal" in2="shape" result="effect1_innerShadow_6_113"/>
</filter>
<linearGradient id="paint0_linear_6_113" x1="297" y1="477" x2="398.5" y2="659.5" gradientUnits="userSpaceOnUse">
<stop stop-color="#8CC572"/>
<stop offset="1" stop-color="#699355"/>
</linearGradient>
</defs>
</svg>
