<svg width="592" height="1084" viewBox="0 0 592 1084" fill="none" xmlns="http://www.w3.org/2000/svg">
<g filter="url(#filter0_i_6_19)">
<rect x="245" y="120" width="243" height="238" rx="39" fill="#432B19"/>
</g>
<g filter="url(#filter1_i_6_19)">
<path d="M228.081 530.064C225.483 538.51 216.53 543.25 208.084 540.652L205.216 539.77C195.187 536.684 189.558 526.052 192.643 516.023L237.339 370.742L273.659 381.916L228.081 530.064Z" fill="#FFDFBA"/>
<path d="M227.422 528.078C231.308 520.141 228.023 510.558 220.087 506.673L217.392 505.354C207.968 500.74 196.587 504.64 191.973 514.065L143 614.105L177.13 630.812L227.422 528.078Z" fill="#FFDFBA"/>
<path d="M222.852 412.868C216.518 410.92 212.963 404.205 214.912 397.87L232.556 340.523C236.454 327.855 249.884 320.744 262.553 324.642L300.784 336.406L276.082 416.691C274.133 423.026 267.418 426.581 261.083 424.632L222.852 412.868Z" fill="#8CC572"/>
<rect x="155.848" y="672.122" width="45" height="68" rx="22.5" transform="rotate(-152.315 155.848 672.122)" fill="#FFDFBA"/>
<rect width="17.1814" height="25.2946" rx="8.59072" transform="matrix(0.245361 0.969432 0.969432 -0.245361 123.848 609.484)" fill="#FFDFBA"/>
</g>
<g filter="url(#filter2_i_6_19)">
<path d="M496.858 520.064C500.678 528.032 510.235 531.394 518.203 527.573L520.908 526.276C530.37 521.739 534.362 510.391 529.825 500.929L464.106 363.871L429.842 380.3L496.858 520.064Z" fill="#FFDFBA"/>
<path d="M493.545 507.299C493.075 498.475 499.847 490.941 508.671 490.47L511.667 490.311C522.145 489.752 531.093 497.794 531.651 508.272L537.95 626.447L500.004 628.469L493.545 507.299Z" fill="#FFDFBA"/>
<path d="M451.173 429.468C445.289 432.518 438.047 430.22 434.997 424.336L396.345 349.757L431.859 331.351C443.627 325.252 458.112 329.847 464.211 341.616L491.819 394.886C494.869 400.771 492.571 408.013 486.687 411.062L451.173 429.468Z" fill="#8CC572"/>
<g filter="url(#filter3_i_6_19)">
<rect width="17.1814" height="25.2946" rx="8.59072" transform="matrix(0.65431 0.756226 0.756226 -0.65431 480.512 633.488)" fill="#FFDFBA"/>
</g>
<rect x="537.219" y="675.105" width="45" height="68" rx="22.5" transform="rotate(-178.979 537.219 675.105)" fill="#FFDFBA"/>
</g>
<rect x="234" y="322" width="231" height="386" rx="25" fill="url(#paint0_linear_6_19)"/>
<g filter="url(#filter4_i_6_19)">
<path d="M234 672H465V708H234V672Z" fill="#353535"/>
<path d="M234 708H321V1047.5C321 1067.66 304.658 1084 284.5 1084H270.5C250.342 1084 234 1067.66 234 1047.5V708Z" fill="#353535"/>
<g filter="url(#filter5_ii_6_19)">
<path d="M321.5 1076.83V1015.86C321.5 1014.08 320.835 1012.36 319.634 1011.04C318.275 1009.54 316.349 1008.69 314.329 1008.69H297.783C295.266 1008.69 292.754 1008.47 290.275 1008.03L252.893 1001.4C249.46 1000.79 246.448 998.754 244.606 995.795L243.17 993.487C241.82 991.318 239.447 990 236.893 990C232.81 990 229.5 993.31 229.5 997.393V1007.87C229.5 1017.73 221.501 1025.73 211.635 1025.73H196.135C180.044 1025.73 167 1038.77 167 1054.87C167 1070.96 180.044 1084 196.135 1084H314.329C316.349 1084 318.275 1083.15 319.634 1081.65C320.835 1080.33 321.5 1078.61 321.5 1076.83Z" fill="#643B1E"/>
</g>
<path d="M378 708H465V1047.5C465 1067.66 448.658 1084 428.5 1084H414.5C394.342 1084 378 1067.66 378 1047.5V708Z" fill="#353535"/>
<g filter="url(#filter6_ii_6_19)">
<path d="M465.5 1076.83V1015.86C465.5 1014.08 464.835 1012.36 463.634 1011.04C462.275 1009.54 460.349 1008.69 458.329 1008.69H441.783C439.266 1008.69 436.754 1008.47 434.275 1008.03L396.893 1001.4C393.46 1000.79 390.448 998.754 388.606 995.795L387.17 993.487C385.82 991.318 383.447 990 380.893 990C376.81 990 373.5 993.31 373.5 997.393V1007.87C373.5 1017.73 365.501 1025.73 355.635 1025.73H340.135C324.044 1025.73 311 1038.77 311 1054.87C311 1070.96 324.044 1084 340.135 1084H458.329C460.349 1084 462.275 1083.15 463.634 1081.65C464.835 1080.33 465.5 1078.61 465.5 1076.83Z" fill="#643B1E"/>
</g>
</g>
<g filter="url(#filter7_i_6_19)">
<path d="M317 276C317 272.686 319.686 270 323 270H363C366.314 270 369 272.686 369 276V320C369 334.359 357.359 346 343 346V346C328.641 346 317 334.359 317 320V276Z" fill="#FFDFBA"/>
</g>
<g filter="url(#filter8_i_6_19)">
<g filter="url(#filter9_i_6_19)">
<circle cx="221.5" cy="164.5" r="26.5" fill="#FFDFBA"/>
</g>
<g filter="url(#filter10_i_6_19)">
<circle cx="221.5" cy="164.5" r="12.5" fill="#FFDFBA"/>
</g>
</g>
<g filter="url(#filter11_i_6_19)">
<circle cx="343" cy="162" r="128" fill="#FFDFBA"/>
</g>
<path d="M425 112.5C454 160 447 303 447 303L456 306L485 235C485 235 501 106 467 52C433 -2 250 -14 216 20C182 54 191 97 216 112.5C241 128 396 64.9999 425 112.5Z" fill="#643B1E"/>
<g filter="url(#filter12_i_6_19)">
<circle cx="456.5" cy="163.5" r="26.5" fill="#FFDFBA"/>
</g>
<g filter="url(#filter13_i_6_19)">
<circle cx="456.5" cy="163.5" r="12.5" fill="#FFDFBA"/>
</g>
<mask id="mask0_6_19" style="mask-type:alpha" maskUnits="userSpaceOnUse" x="226" y="101" width="183" height="73">
<path d="M226 101H408.938V174H226V101Z" fill="#C4C4C4"/>
</mask>
<g mask="url(#mask0_6_19)">
<g filter="url(#filter14_i_6_19)">
<circle cx="264.5" cy="164.5" r="27.5" fill="white"/>
</g>
<circle cx="264.5" cy="164.5" r="13.5" fill="#643B1E"/>
<g filter="url(#filter15_i_6_19)">
<circle cx="369.5" cy="164.5" r="27.5" fill="white"/>
</g>
<circle cx="369.5" cy="164.5" r="13.5" fill="#643B1E"/>
</g>
<rect x="292" y="234" width="51" height="12" rx="6" fill="black"/>
<defs>
<filter id="filter0_i_6_19" x="245" y="120" width="243" height="238" filterUnits="userSpaceOnUse" color-interpolation-filters="sRGB">
<feFlood flood-opacity="0" result="BackgroundImageFix"/>
<feBlend mode="normal" in="SourceGraphic" in2="BackgroundImageFix" result="shape"/>
<feColorMatrix in="SourceAlpha" type="matrix" values="0 0 0 0 0 0 0 0 0 0 0 0 0 0 0 0 0 0 127 0" result="hardAlpha"/>
<feOffset dx="-46" dy="40"/>
<feComposite in2="hardAlpha" operator="arithmetic" k2="-1" k3="1"/>
<feColorMatrix type="matrix" values="0 0 0 0 0.391667 0 0 0 0 0.231703 0 0 0 0 0.115868 0 0 0 1 0"/>
<feBlend mode="normal" in2="shape" result="effect1_innerShadow_6_19"/>
</filter>
<filter id="filter1_i_6_19" x="123.873" y="310.575" width="179.911" height="353.674" filterUnits="userSpaceOnUse" color-interpolation-filters="sRGB">
<feFlood flood-opacity="0" result="BackgroundImageFix"/>
<feBlend mode="normal" in="SourceGraphic" in2="BackgroundImageFix" result="shape"/>
<feColorMatrix in="SourceAlpha" type="matrix" values="0 0 0 0 0 0 0 0 0 0 0 0 0 0 0 0 0 0 127 0" result="hardAlpha"/>
<feOffset dx="3" dy="-13"/>
<feGaussianBlur stdDeviation="14.5"/>
<feComposite in2="hardAlpha" operator="arithmetic" k2="-1" k3="1"/>
<feColorMatrix type="matrix" values="0 0 0 0 0 0 0 0 0 0 0 0 0 0 0 0 0 0 0.25 0"/>
<feBlend mode="normal" in2="shape" result="effect1_innerShadow_6_19"/>
</filter>
<filter id="filter2_i_6_19" x="396.345" y="324.654" width="153.687" height="350.054" filterUnits="userSpaceOnUse" color-interpolation-filters="sRGB">
<feFlood flood-opacity="0" result="BackgroundImageFix"/>
<feBlend mode="normal" in="SourceGraphic" in2="BackgroundImageFix" result="shape"/>
<feColorMatrix in="SourceAlpha" type="matrix" values="0 0 0 0 0 0 0 0 0 0 0 0 0 0 0 0 0 0 127 0" result="hardAlpha"/>
<feOffset dx="12" dy="-4"/>
<feGaussianBlur stdDeviation="13.5"/>
<feComposite in2="hardAlpha" operator="arithmetic" k2="-1" k3="1"/>
<feColorMatrix type="matrix" values="0 0 0 0 0 0 0 0 0 0 0 0 0 0 0 0 0 0 0.25 0"/>
<feBlend mode="normal" in2="shape" result="effect1_innerShadow_6_19"/>
</filter>
<filter id="filter3_i_6_19" x="484.039" y="620.464" width="23.3171" height="26.4902" filterUnits="userSpaceOnUse" color-interpolation-filters="sRGB">
<feFlood flood-opacity="0" result="BackgroundImageFix"/>
<feBlend mode="normal" in="SourceGraphic" in2="BackgroundImageFix" result="shape"/>
<feColorMatrix in="SourceAlpha" type="matrix" values="0 0 0 0 0 0 0 0 0 0 0 0 0 0 0 0 0 0 127 0" result="hardAlpha"/>
<feOffset dy="4"/>
<feGaussianBlur stdDeviation="7"/>
<feComposite in2="hardAlpha" operator="arithmetic" k2="-1" k3="1"/>
<feColorMatrix type="matrix" values="0 0 0 0 0.796078 0 0 0 0 0.572549 0 0 0 0 0.478431 0 0 0 0.25 0"/>
<feBlend mode="normal" in2="shape" result="effect1_innerShadow_6_19"/>
</filter>
<filter id="filter4_i_6_19" x="152" y="642" width="313.5" height="442" filterUnits="userSpaceOnUse" color-interpolation-filters="sRGB">
<feFlood flood-opacity="0" result="BackgroundImageFix"/>
<feBlend mode="normal" in="SourceGraphic" in2="BackgroundImageFix" result="shape"/>
<feColorMatrix in="SourceAlpha" type="matrix" values="0 0 0 0 0 0 0 0 0 0 0 0 0 0 0 0 0 0 127 0" result="hardAlpha"/>
<feOffset dx="-15" dy="-30"/>
<feGaussianBlur stdDeviation="16"/>
<feComposite in2="hardAlpha" operator="arithmetic" k2="-1" k3="1"/>
<feColorMatrix type="matrix" values="0 0 0 0 0 0 0 0 0 0 0 0 0 0 0 0 0 0 0.25 0"/>
<feBlend mode="normal" in2="shape" result="effect1_innerShadow_6_19"/>
</filter>
<filter id="filter5_ii_6_19" x="151" y="964" width="170.5" height="120" filterUnits="userSpaceOnUse" color-interpolation-filters="sRGB">
<feFlood flood-opacity="0" result="BackgroundImageFix"/>
<feBlend mode="normal" in="SourceGraphic" in2="BackgroundImageFix" result="shape"/>
<feColorMatrix in="SourceAlpha" type="matrix" values="0 0 0 0 0 0 0 0 0 0 0 0 0 0 0 0 0 0 127 0" result="hardAlpha"/>
<feOffset dy="-15"/>
<feComposite in2="hardAlpha" operator="arithmetic" k2="-1" k3="1"/>
<feColorMatrix type="matrix" values="0 0 0 0 0 0 0 0 0 0 0 0 0 0 0 0 0 0 0.25 0"/>
<feBlend mode="normal" in2="shape" result="effect1_innerShadow_6_19"/>
<feColorMatrix in="SourceAlpha" type="matrix" values="0 0 0 0 0 0 0 0 0 0 0 0 0 0 0 0 0 0 127 0" result="hardAlpha"/>
<feOffset dx="-16" dy="-26"/>
<feGaussianBlur stdDeviation="15"/>
<feComposite in2="hardAlpha" operator="arithmetic" k2="-1" k3="1"/>
<feColorMatrix type="matrix" values="0 0 0 0 0 0 0 0 0 0 0 0 0 0 0 0 0 0 0.25 0"/>
<feBlend mode="normal" in2="effect1_innerShadow_6_19" result="effect2_innerShadow_6_19"/>
</filter>
<filter id="filter6_ii_6_19" x="295" y="964" width="170.5" height="120" filterUnits="userSpaceOnUse" color-interpolation-filters="sRGB">
<feFlood flood-opacity="0" result="BackgroundImageFix"/>
<feBlend mode="normal" in="SourceGraphic" in2="BackgroundImageFix" result="shape"/>
<feColorMatrix in="SourceAlpha" type="matrix" values="0 0 0 0 0 0 0 0 0 0 0 0 0 0 0 0 0 0 127 0" result="hardAlpha"/>
<feOffset dy="-15"/>
<feComposite in2="hardAlpha" operator="arithmetic" k2="-1" k3="1"/>
<feColorMatrix type="matrix" values="0 0 0 0 0 0 0 0 0 0 0 0 0 0 0 0 0 0 0.25 0"/>
<feBlend mode="normal" in2="shape" result="effect1_innerShadow_6_19"/>
<feColorMatrix in="SourceAlpha" type="matrix" values="0 0 0 0 0 0 0 0 0 0 0 0 0 0 0 0 0 0 127 0" result="hardAlpha"/>
<feOffset dx="-16" dy="-26"/>
<feGaussianBlur stdDeviation="15"/>
<feComposite in2="hardAlpha" operator="arithmetic" k2="-1" k3="1"/>
<feColorMatrix type="matrix" values="0 0 0 0 0 0 0 0 0 0 0 0 0 0 0 0 0 0 0.25 0"/>
<feBlend mode="normal" in2="effect1_innerShadow_6_19" result="effect2_innerShadow_6_19"/>
</filter>
<filter id="filter7_i_6_19" x="317" y="270" width="52" height="90" filterUnits="userSpaceOnUse" color-interpolation-filters="sRGB">
<feFlood flood-opacity="0" result="BackgroundImageFix"/>
<feBlend mode="normal" in="SourceGraphic" in2="BackgroundImageFix" result="shape"/>
<feColorMatrix in="SourceAlpha" type="matrix" values="0 0 0 0 0 0 0 0 0 0 0 0 0 0 0 0 0 0 127 0" result="hardAlpha"/>
<feOffset dy="34"/>
<feGaussianBlur stdDeviation="7"/>
<feComposite in2="hardAlpha" operator="arithmetic" k2="-1" k3="1"/>
<feColorMatrix type="matrix" values="0 0 0 0 0.796078 0 0 0 0 0.572549 0 0 0 0 0.478431 0 0 0 0.6 0"/>
<feBlend mode="normal" in2="shape" result="effect1_innerShadow_6_19"/>
</filter>
<filter id="filter8_i_6_19" x="195" y="133" width="58" height="58" filterUnits="userSpaceOnUse" color-interpolation-filters="sRGB">
<feFlood flood-opacity="0" result="BackgroundImageFix"/>
<feBlend mode="normal" in="SourceGraphic" in2="BackgroundImageFix" result="shape"/>
<feColorMatrix in="SourceAlpha" type="matrix" values="0 0 0 0 0 0 0 0 0 0 0 0 0 0 0 0 0 0 127 0" result="hardAlpha"/>
<feOffset dx="5" dy="-5"/>
<feGaussianBlur stdDeviation="33.5"/>
<feComposite in2="hardAlpha" operator="arithmetic" k2="-1" k3="1"/>
<feColorMatrix type="matrix" values="0 0 0 0 0.796078 0 0 0 0 0.572549 0 0 0 0 0.478431 0 0 0 0.29 0"/>
<feBlend mode="normal" in2="shape" result="effect1_innerShadow_6_19"/>
</filter>
<filter id="filter9_i_6_19" x="195" y="134" width="57" height="57" filterUnits="userSpaceOnUse" color-interpolation-filters="sRGB">
<feFlood flood-opacity="0" result="BackgroundImageFix"/>
<feBlend mode="normal" in="SourceGraphic" in2="BackgroundImageFix" result="shape"/>
<feColorMatrix in="SourceAlpha" type="matrix" values="0 0 0 0 0 0 0 0 0 0 0 0 0 0 0 0 0 0 127 0" result="hardAlpha"/>
<feOffset dx="4" dy="-4"/>
<feGaussianBlur stdDeviation="2"/>
<feComposite in2="hardAlpha" operator="arithmetic" k2="-1" k3="1"/>
<feColorMatrix type="matrix" values="0 0 0 0 0.796078 0 0 0 0 0.572549 0 0 0 0 0.478431 0 0 0 0.25 0"/>
<feBlend mode="normal" in2="shape" result="effect1_innerShadow_6_19"/>
</filter>
<filter id="filter10_i_6_19" x="209" y="152" width="29" height="25" filterUnits="userSpaceOnUse" color-interpolation-filters="sRGB">
<feFlood flood-opacity="0" result="BackgroundImageFix"/>
<feBlend mode="normal" in="SourceGraphic" in2="BackgroundImageFix" result="shape"/>
<feColorMatrix in="SourceAlpha" type="matrix" values="0 0 0 0 0 0 0 0 0 0 0 0 0 0 0 0 0 0 127 0" result="hardAlpha"/>
<feOffset dx="8"/>
<feGaussianBlur stdDeviation="2"/>
<feComposite in2="hardAlpha" operator="arithmetic" k2="-1" k3="1"/>
<feColorMatrix type="matrix" values="0 0 0 0 0.796078 0 0 0 0 0.572549 0 0 0 0 0.478431 0 0 0 0.25 0"/>
<feBlend mode="normal" in2="shape" result="effect1_innerShadow_6_19"/>
</filter>
<filter id="filter11_i_6_19" x="215" y="34" width="278" height="256" filterUnits="userSpaceOnUse" color-interpolation-filters="sRGB">
<feFlood flood-opacity="0" result="BackgroundImageFix"/>
<feBlend mode="normal" in="SourceGraphic" in2="BackgroundImageFix" result="shape"/>
<feColorMatrix in="SourceAlpha" type="matrix" values="0 0 0 0 0 0 0 0 0 0 0 0 0 0 0 0 0 0 127 0" result="hardAlpha"/>
<feOffset dx="22"/>
<feGaussianBlur stdDeviation="28"/>
<feComposite in2="hardAlpha" operator="arithmetic" k2="-1" k3="1"/>
<feColorMatrix type="matrix" values="0 0 0 0 0.795833 0 0 0 0 0.573 0 0 0 0 0.4775 0 0 0 0.29 0"/>
<feBlend mode="normal" in2="shape" result="effect1_innerShadow_6_19"/>
</filter>
<filter id="filter12_i_6_19" x="426" y="133" width="57" height="57" filterUnits="userSpaceOnUse" color-interpolation-filters="sRGB">
<feFlood flood-opacity="0" result="BackgroundImageFix"/>
<feBlend mode="normal" in="SourceGraphic" in2="BackgroundImageFix" result="shape"/>
<feColorMatrix in="SourceAlpha" type="matrix" values="0 0 0 0 0 0 0 0 0 0 0 0 0 0 0 0 0 0 127 0" result="hardAlpha"/>
<feOffset dx="-4" dy="-4"/>
<feGaussianBlur stdDeviation="2"/>
<feComposite in2="hardAlpha" operator="arithmetic" k2="-1" k3="1"/>
<feColorMatrix type="matrix" values="0 0 0 0 0.796078 0 0 0 0 0.572549 0 0 0 0 0.478431 0 0 0 0.25 0"/>
<feBlend mode="normal" in2="shape" result="effect1_innerShadow_6_19"/>
</filter>
<filter id="filter13_i_6_19" x="440" y="151" width="29" height="25" filterUnits="userSpaceOnUse" color-interpolation-filters="sRGB">
<feFlood flood-opacity="0" result="BackgroundImageFix"/>
<feBlend mode="normal" in="SourceGraphic" in2="BackgroundImageFix" result="shape"/>
<feColorMatrix in="SourceAlpha" type="matrix" values="0 0 0 0 0 0 0 0 0 0 0 0 0 0 0 0 0 0 127 0" result="hardAlpha"/>
<feOffset dx="-8"/>
<feGaussianBlur stdDeviation="2"/>
<feComposite in2="hardAlpha" operator="arithmetic" k2="-1" k3="1"/>
<feColorMatrix type="matrix" values="0 0 0 0 0.796078 0 0 0 0 0.572549 0 0 0 0 0.478431 0 0 0 0.25 0"/>
<feBlend mode="normal" in2="shape" result="effect1_innerShadow_6_19"/>
</filter>
<filter id="filter14_i_6_19" x="237" y="133" width="59" height="59" filterUnits="userSpaceOnUse" color-interpolation-filters="sRGB">
<feFlood flood-opacity="0" result="BackgroundImageFix"/>
<feBlend mode="normal" in="SourceGraphic" in2="BackgroundImageFix" result="shape"/>
<feColorMatrix in="SourceAlpha" type="matrix" values="0 0 0 0 0 0 0 0 0 0 0 0 0 0 0 0 0 0 127 0" result="hardAlpha"/>
<feOffset dx="4" dy="-4"/>
<feGaussianBlur stdDeviation="7.5"/>
<feComposite in2="hardAlpha" operator="arithmetic" k2="-1" k3="1"/>
<feColorMatrix type="matrix" values="0 0 0 0 0 0 0 0 0 0 0 0 0 0 0 0 0 0 0.1 0"/>
<feBlend mode="normal" in2="shape" result="effect1_innerShadow_6_19"/>
</filter>
<filter id="filter15_i_6_19" x="342" y="133" width="59" height="59" filterUnits="userSpaceOnUse" color-interpolation-filters="sRGB">
<feFlood flood-opacity="0" result="BackgroundImageFix"/>
<feBlend mode="normal" in="SourceGraphic" in2="BackgroundImageFix" result="shape"/>
<feColorMatrix in="SourceAlpha" type="matrix" values="0 0 0 0 0 0 0 0 0 0 0 0 0 0 0 0 0 0 127 0" result="hardAlpha"/>
<feOffset dx="4" dy="-4"/>
<feGaussianBlur stdDeviation="7.5"/>
<feComposite in2="hardAlpha" operator="arithmetic" k2="-1" k3="1"/>
<feColorMatrix type="matrix" values="0 0 0 0 0 0 0 0 0 0 0 0 0 0 0 0 0 0 0.1 0"/>
<feBlend mode="normal" in2="shape" result="effect1_innerShadow_6_19"/>
</filter>
<linearGradient id="paint0_linear_6_19" x1="321" y1="477" x2="422.5" y2="659.5" gradientUnits="userSpaceOnUse">
<stop stop-color="#8CC572"/>
<stop offset="1" stop-color="#699355"/>
</linearGradient>
</defs>
</svg>
