<svg width="608" height="1084" viewBox="0 0 608 1084" fill="none" xmlns="http://www.w3.org/2000/svg">
<g filter="url(#filter0_i_3_18)">
<rect x="262" y="120" width="243" height="238" rx="39" fill="#432B19"/>
</g>
<g filter="url(#filter1_i_3_18)">
<path d="M144.625 480.215C137.563 485.526 127.532 484.105 122.222 477.043L120.419 474.645C114.112 466.258 115.799 454.347 124.186 448.04L245.674 356.691L268.512 387.064L144.625 480.215Z" fill="#FFDFBA"/>
<path d="M125.886 480.215C132.949 485.526 142.979 484.105 148.29 477.043L150.093 474.645C156.399 466.258 154.713 454.347 146.326 448.04L57.3002 381.101L34.463 411.473L125.886 480.215Z" fill="#FFDFBA"/>
<path d="M209.211 382.283C205.229 376.986 206.294 369.463 211.591 365.48L259.548 329.423C270.143 321.457 285.189 323.588 293.154 334.183L317.192 366.154L250.052 416.634C244.755 420.617 237.232 419.551 233.25 414.254L209.211 382.283Z" fill="#8CC572"/>
<rect y="359.035" width="45" height="68" rx="22.5" transform="rotate(-24.056 0 359.035)" fill="#FFDFBA"/>
<rect width="17.1814" height="25.2946" rx="8.59072" transform="matrix(-0.913147 -0.407629 -0.407629 0.913147 69 372.695)" fill="#FFDFBA"/>
</g>
<g filter="url(#filter2_i_3_18)">
<path d="M542.763 505.045C547.824 512.29 557.798 514.06 565.043 508.999L567.502 507.281C576.104 501.272 578.206 489.427 572.197 480.825L485.152 356.217L454 377.978L542.763 505.045Z" fill="#FFDFBA"/>
<path d="M537.428 492.986C535.535 484.354 540.997 475.823 549.629 473.93L552.559 473.287C562.809 471.039 572.94 477.526 575.188 487.776L600.539 603.37L563.421 611.511L537.428 492.986Z" fill="#FFDFBA"/>
<path d="M483.012 423.043C477.699 427.005 470.18 425.91 466.218 420.597L416 353.261L448.065 329.348C458.69 321.424 473.727 323.614 481.652 334.239L517.522 382.336C521.484 387.649 520.389 395.167 515.076 399.129L483.012 423.043Z" fill="#8CC572"/>
<g filter="url(#filter3_i_3_18)">
<rect width="17.1814" height="25.2946" rx="8.59072" transform="matrix(0.768129 0.640295 0.640295 -0.768129 545 619.62)" fill="#FFDFBA"/>
</g>
<rect x="607.697" y="651.505" width="45" height="68" rx="22.5" transform="rotate(171.702 607.697 651.505)" fill="#FFDFBA"/>
</g>
<rect x="251" y="322" width="231" height="386" rx="25" fill="url(#paint0_linear_3_18)"/>
<g filter="url(#filter4_i_3_18)">
<path d="M251 672H482V708H251V672Z" fill="#353535"/>
<path d="M251 708H338V1047.5C338 1067.66 321.658 1084 301.5 1084H287.5C267.342 1084 251 1067.66 251 1047.5V708Z" fill="#353535"/>
<g filter="url(#filter5_ii_3_18)">
<path d="M338.5 1076.83V1015.86C338.5 1014.08 337.835 1012.36 336.634 1011.04C335.275 1009.54 333.349 1008.69 331.329 1008.69H314.783C312.266 1008.69 309.754 1008.47 307.275 1008.03L269.893 1001.4C266.46 1000.79 263.448 998.754 261.606 995.795L260.17 993.487C258.82 991.318 256.447 990 253.893 990C249.81 990 246.5 993.31 246.5 997.393V1007.87C246.5 1017.73 238.501 1025.73 228.634 1025.73H213.135C197.044 1025.73 184 1038.77 184 1054.87C184 1070.96 197.044 1084 213.135 1084H331.329C333.349 1084 335.275 1083.15 336.634 1081.65C337.835 1080.33 338.5 1078.61 338.5 1076.83Z" fill="#643B1E"/>
</g>
<path d="M395 708H482V1047.5C482 1067.66 465.658 1084 445.5 1084H431.5C411.342 1084 395 1067.66 395 1047.5V708Z" fill="#353535"/>
<g filter="url(#filter6_ii_3_18)">
<path d="M482.5 1076.83V1015.86C482.5 1014.08 481.835 1012.36 480.634 1011.04C479.275 1009.54 477.349 1008.69 475.329 1008.69H458.783C456.266 1008.69 453.754 1008.47 451.275 1008.03L413.893 1001.4C410.46 1000.79 407.448 998.754 405.606 995.795L404.17 993.487C402.82 991.318 400.447 990 397.893 990C393.81 990 390.5 993.31 390.5 997.393V1007.87C390.5 1017.73 382.501 1025.73 372.634 1025.73H357.135C341.044 1025.73 328 1038.77 328 1054.87C328 1070.96 341.044 1084 357.135 1084H475.329C477.349 1084 479.275 1083.15 480.634 1081.65C481.835 1080.33 482.5 1078.61 482.5 1076.83Z" fill="#643B1E"/>
</g>
</g>
<g filter="url(#filter7_i_3_18)">
<path d="M334 276C334 272.686 336.686 270 340 270H380C383.314 270 386 272.686 386 276V320C386 334.359 374.359 346 360 346C345.641 346 334 334.359 334 320V276Z" fill="#FFDFBA"/>
</g>
<g filter="url(#filter8_i_3_18)">
<g filter="url(#filter9_i_3_18)">
<circle cx="238.5" cy="164.5" r="26.5" fill="#FFDFBA"/>
</g>
<g filter="url(#filter10_i_3_18)">
<circle cx="238.5" cy="164.5" r="12.5" fill="#FFDFBA"/>
</g>
</g>
<g filter="url(#filter11_i_3_18)">
<circle cx="360" cy="162" r="128" fill="#FFDFBA"/>
</g>
<path d="M442 112.5C471 160 464 303 464 303L473 306L502 235C502 235 518 106 484 52C450 -2 267 -14 233 20C199 54 208 97 233 112.5C258 128 413 64.9999 442 112.5Z" fill="#643B1E"/>
<g filter="url(#filter12_i_3_18)">
<circle cx="473.5" cy="163.5" r="26.5" fill="#FFDFBA"/>
</g>
<g filter="url(#filter13_i_3_18)">
<circle cx="473.5" cy="163.5" r="12.5" fill="#FFDFBA"/>
</g>
<mask id="mask0_3_18" style="mask-type:alpha" maskUnits="userSpaceOnUse" x="238" y="132" width="183" height="73">
<path d="M238 132H420.938V205H238V132Z" fill="#C4C4C4"/>
</mask>
<g mask="url(#mask0_3_18)">
<g filter="url(#filter14_i_3_18)">
<circle cx="281.5" cy="164.5" r="27.5" fill="white"/>
</g>
<circle cx="281.5" cy="164.5" r="13.5" fill="#643B1E"/>
<g filter="url(#filter15_i_3_18)">
<circle cx="386.5" cy="165.5" r="27.5" fill="white"/>
</g>
<circle cx="386.5" cy="165.5" r="13.5" fill="#643B1E"/>
</g>
<path d="M348 228C354.627 228 360.231 233.645 357.279 239.579C356.038 242.074 354.393 244.377 352.385 246.385C347.509 251.261 340.896 254 334 254C327.104 254 320.491 251.261 315.615 246.385C313.607 244.377 311.962 242.074 310.721 239.579C307.769 233.645 313.373 228 320 228L334 228H348Z" fill="black"/>
<defs>
<filter id="filter0_i_3_18" x="262" y="120" width="243" height="238" filterUnits="userSpaceOnUse" color-interpolation-filters="sRGB">
<feFlood flood-opacity="0" result="BackgroundImageFix"/>
<feBlend mode="normal" in="SourceGraphic" in2="BackgroundImageFix" result="shape"/>
<feColorMatrix in="SourceAlpha" type="matrix" values="0 0 0 0 0 0 0 0 0 0 0 0 0 0 0 0 0 0 127 0" result="hardAlpha"/>
<feOffset dx="-46" dy="40"/>
<feComposite in2="hardAlpha" operator="arithmetic" k2="-1" k3="1"/>
<feColorMatrix type="matrix" values="0 0 0 0 0.391667 0 0 0 0 0.231703 0 0 0 0 0.115868 0 0 0 1 0"/>
<feBlend mode="normal" in2="shape" result="effect1_innerShadow_3_18"/>
</filter>
<filter id="filter1_i_3_18" x="7.21188" y="311.604" width="312.98" height="171.824" filterUnits="userSpaceOnUse" color-interpolation-filters="sRGB">
<feFlood flood-opacity="0" result="BackgroundImageFix"/>
<feBlend mode="normal" in="SourceGraphic" in2="BackgroundImageFix" result="shape"/>
<feColorMatrix in="SourceAlpha" type="matrix" values="0 0 0 0 0 0 0 0 0 0 0 0 0 0 0 0 0 0 127 0" result="hardAlpha"/>
<feOffset dx="3" dy="-13"/>
<feGaussianBlur stdDeviation="14.5"/>
<feComposite in2="hardAlpha" operator="arithmetic" k2="-1" k3="1"/>
<feColorMatrix type="matrix" values="0 0 0 0 0 0 0 0 0 0 0 0 0 0 0 0 0 0 0.25 0"/>
<feBlend mode="normal" in2="shape" result="effect1_innerShadow_3_18"/>
</filter>
<filter id="filter2_i_3_18" x="416" y="320.585" width="200.688" height="334.405" filterUnits="userSpaceOnUse" color-interpolation-filters="sRGB">
<feFlood flood-opacity="0" result="BackgroundImageFix"/>
<feBlend mode="normal" in="SourceGraphic" in2="BackgroundImageFix" result="shape"/>
<feColorMatrix in="SourceAlpha" type="matrix" values="0 0 0 0 0 0 0 0 0 0 0 0 0 0 0 0 0 0 127 0" result="hardAlpha"/>
<feOffset dx="12" dy="-4"/>
<feGaussianBlur stdDeviation="13.5"/>
<feComposite in2="hardAlpha" operator="arithmetic" k2="-1" k3="1"/>
<feColorMatrix type="matrix" values="0 0 0 0 0 0 0 0 0 0 0 0 0 0 0 0 0 0 0.25 0"/>
<feBlend mode="normal" in2="shape" result="effect1_innerShadow_3_18"/>
</filter>
<filter id="filter3_i_3_18" x="548.508" y="603.698" width="22.3767" height="27.4138" filterUnits="userSpaceOnUse" color-interpolation-filters="sRGB">
<feFlood flood-opacity="0" result="BackgroundImageFix"/>
<feBlend mode="normal" in="SourceGraphic" in2="BackgroundImageFix" result="shape"/>
<feColorMatrix in="SourceAlpha" type="matrix" values="0 0 0 0 0 0 0 0 0 0 0 0 0 0 0 0 0 0 127 0" result="hardAlpha"/>
<feOffset dy="4"/>
<feGaussianBlur stdDeviation="7"/>
<feComposite in2="hardAlpha" operator="arithmetic" k2="-1" k3="1"/>
<feColorMatrix type="matrix" values="0 0 0 0 0.796078 0 0 0 0 0.572549 0 0 0 0 0.478431 0 0 0 0.25 0"/>
<feBlend mode="normal" in2="shape" result="effect1_innerShadow_3_18"/>
</filter>
<filter id="filter4_i_3_18" x="169" y="642" width="313.5" height="442" filterUnits="userSpaceOnUse" color-interpolation-filters="sRGB">
<feFlood flood-opacity="0" result="BackgroundImageFix"/>
<feBlend mode="normal" in="SourceGraphic" in2="BackgroundImageFix" result="shape"/>
<feColorMatrix in="SourceAlpha" type="matrix" values="0 0 0 0 0 0 0 0 0 0 0 0 0 0 0 0 0 0 127 0" result="hardAlpha"/>
<feOffset dx="-15" dy="-30"/>
<feGaussianBlur stdDeviation="16"/>
<feComposite in2="hardAlpha" operator="arithmetic" k2="-1" k3="1"/>
<feColorMatrix type="matrix" values="0 0 0 0 0 0 0 0 0 0 0 0 0 0 0 0 0 0 0.25 0"/>
<feBlend mode="normal" in2="shape" result="effect1_innerShadow_3_18"/>
</filter>
<filter id="filter5_ii_3_18" x="168" y="964" width="170.5" height="120" filterUnits="userSpaceOnUse" color-interpolation-filters="sRGB">
<feFlood flood-opacity="0" result="BackgroundImageFix"/>
<feBlend mode="normal" in="SourceGraphic" in2="BackgroundImageFix" result="shape"/>
<feColorMatrix in="SourceAlpha" type="matrix" values="0 0 0 0 0 0 0 0 0 0 0 0 0 0 0 0 0 0 127 0" result="hardAlpha"/>
<feOffset dy="-15"/>
<feComposite in2="hardAlpha" operator="arithmetic" k2="-1" k3="1"/>
<feColorMatrix type="matrix" values="0 0 0 0 0 0 0 0 0 0 0 0 0 0 0 0 0 0 0.25 0"/>
<feBlend mode="normal" in2="shape" result="effect1_innerShadow_3_18"/>
<feColorMatrix in="SourceAlpha" type="matrix" values="0 0 0 0 0 0 0 0 0 0 0 0 0 0 0 0 0 0 127 0" result="hardAlpha"/>
<feOffset dx="-16" dy="-26"/>
<feGaussianBlur stdDeviation="15"/>
<feComposite in2="hardAlpha" operator="arithmetic" k2="-1" k3="1"/>
<feColorMatrix type="matrix" values="0 0 0 0 0 0 0 0 0 0 0 0 0 0 0 0 0 0 0.25 0"/>
<feBlend mode="normal" in2="effect1_innerShadow_3_18" result="effect2_innerShadow_3_18"/>
</filter>
<filter id="filter6_ii_3_18" x="312" y="964" width="170.5" height="120" filterUnits="userSpaceOnUse" color-interpolation-filters="sRGB">
<feFlood flood-opacity="0" result="BackgroundImageFix"/>
<feBlend mode="normal" in="SourceGraphic" in2="BackgroundImageFix" result="shape"/>
<feColorMatrix in="SourceAlpha" type="matrix" values="0 0 0 0 0 0 0 0 0 0 0 0 0 0 0 0 0 0 127 0" result="hardAlpha"/>
<feOffset dy="-15"/>
<feComposite in2="hardAlpha" operator="arithmetic" k2="-1" k3="1"/>
<feColorMatrix type="matrix" values="0 0 0 0 0 0 0 0 0 0 0 0 0 0 0 0 0 0 0.25 0"/>
<feBlend mode="normal" in2="shape" result="effect1_innerShadow_3_18"/>
<feColorMatrix in="SourceAlpha" type="matrix" values="0 0 0 0 0 0 0 0 0 0 0 0 0 0 0 0 0 0 127 0" result="hardAlpha"/>
<feOffset dx="-16" dy="-26"/>
<feGaussianBlur stdDeviation="15"/>
<feComposite in2="hardAlpha" operator="arithmetic" k2="-1" k3="1"/>
<feColorMatrix type="matrix" values="0 0 0 0 0 0 0 0 0 0 0 0 0 0 0 0 0 0 0.25 0"/>
<feBlend mode="normal" in2="effect1_innerShadow_3_18" result="effect2_innerShadow_3_18"/>
</filter>
<filter id="filter7_i_3_18" x="334" y="270" width="52" height="90" filterUnits="userSpaceOnUse" color-interpolation-filters="sRGB">
<feFlood flood-opacity="0" result="BackgroundImageFix"/>
<feBlend mode="normal" in="SourceGraphic" in2="BackgroundImageFix" result="shape"/>
<feColorMatrix in="SourceAlpha" type="matrix" values="0 0 0 0 0 0 0 0 0 0 0 0 0 0 0 0 0 0 127 0" result="hardAlpha"/>
<feOffset dy="34"/>
<feGaussianBlur stdDeviation="7"/>
<feComposite in2="hardAlpha" operator="arithmetic" k2="-1" k3="1"/>
<feColorMatrix type="matrix" values="0 0 0 0 0.796078 0 0 0 0 0.572549 0 0 0 0 0.478431 0 0 0 0.6 0"/>
<feBlend mode="normal" in2="shape" result="effect1_innerShadow_3_18"/>
</filter>
<filter id="filter8_i_3_18" x="212" y="133" width="58" height="58" filterUnits="userSpaceOnUse" color-interpolation-filters="sRGB">
<feFlood flood-opacity="0" result="BackgroundImageFix"/>
<feBlend mode="normal" in="SourceGraphic" in2="BackgroundImageFix" result="shape"/>
<feColorMatrix in="SourceAlpha" type="matrix" values="0 0 0 0 0 0 0 0 0 0 0 0 0 0 0 0 0 0 127 0" result="hardAlpha"/>
<feOffset dx="5" dy="-5"/>
<feGaussianBlur stdDeviation="33.5"/>
<feComposite in2="hardAlpha" operator="arithmetic" k2="-1" k3="1"/>
<feColorMatrix type="matrix" values="0 0 0 0 0.796078 0 0 0 0 0.572549 0 0 0 0 0.478431 0 0 0 0.29 0"/>
<feBlend mode="normal" in2="shape" result="effect1_innerShadow_3_18"/>
</filter>
<filter id="filter9_i_3_18" x="212" y="134" width="57" height="57" filterUnits="userSpaceOnUse" color-interpolation-filters="sRGB">
<feFlood flood-opacity="0" result="BackgroundImageFix"/>
<feBlend mode="normal" in="SourceGraphic" in2="BackgroundImageFix" result="shape"/>
<feColorMatrix in="SourceAlpha" type="matrix" values="0 0 0 0 0 0 0 0 0 0 0 0 0 0 0 0 0 0 127 0" result="hardAlpha"/>
<feOffset dx="4" dy="-4"/>
<feGaussianBlur stdDeviation="2"/>
<feComposite in2="hardAlpha" operator="arithmetic" k2="-1" k3="1"/>
<feColorMatrix type="matrix" values="0 0 0 0 0.796078 0 0 0 0 0.572549 0 0 0 0 0.478431 0 0 0 0.25 0"/>
<feBlend mode="normal" in2="shape" result="effect1_innerShadow_3_18"/>
</filter>
<filter id="filter10_i_3_18" x="226" y="152" width="29" height="25" filterUnits="userSpaceOnUse" color-interpolation-filters="sRGB">
<feFlood flood-opacity="0" result="BackgroundImageFix"/>
<feBlend mode="normal" in="SourceGraphic" in2="BackgroundImageFix" result="shape"/>
<feColorMatrix in="SourceAlpha" type="matrix" values="0 0 0 0 0 0 0 0 0 0 0 0 0 0 0 0 0 0 127 0" result="hardAlpha"/>
<feOffset dx="8"/>
<feGaussianBlur stdDeviation="2"/>
<feComposite in2="hardAlpha" operator="arithmetic" k2="-1" k3="1"/>
<feColorMatrix type="matrix" values="0 0 0 0 0.796078 0 0 0 0 0.572549 0 0 0 0 0.478431 0 0 0 0.25 0"/>
<feBlend mode="normal" in2="shape" result="effect1_innerShadow_3_18"/>
</filter>
<filter id="filter11_i_3_18" x="232" y="34" width="278" height="256" filterUnits="userSpaceOnUse" color-interpolation-filters="sRGB">
<feFlood flood-opacity="0" result="BackgroundImageFix"/>
<feBlend mode="normal" in="SourceGraphic" in2="BackgroundImageFix" result="shape"/>
<feColorMatrix in="SourceAlpha" type="matrix" values="0 0 0 0 0 0 0 0 0 0 0 0 0 0 0 0 0 0 127 0" result="hardAlpha"/>
<feOffset dx="22"/>
<feGaussianBlur stdDeviation="28"/>
<feComposite in2="hardAlpha" operator="arithmetic" k2="-1" k3="1"/>
<feColorMatrix type="matrix" values="0 0 0 0 0.795833 0 0 0 0 0.573 0 0 0 0 0.4775 0 0 0 0.29 0"/>
<feBlend mode="normal" in2="shape" result="effect1_innerShadow_3_18"/>
</filter>
<filter id="filter12_i_3_18" x="443" y="133" width="57" height="57" filterUnits="userSpaceOnUse" color-interpolation-filters="sRGB">
<feFlood flood-opacity="0" result="BackgroundImageFix"/>
<feBlend mode="normal" in="SourceGraphic" in2="BackgroundImageFix" result="shape"/>
<feColorMatrix in="SourceAlpha" type="matrix" values="0 0 0 0 0 0 0 0 0 0 0 0 0 0 0 0 0 0 127 0" result="hardAlpha"/>
<feOffset dx="-4" dy="-4"/>
<feGaussianBlur stdDeviation="2"/>
<feComposite in2="hardAlpha" operator="arithmetic" k2="-1" k3="1"/>
<feColorMatrix type="matrix" values="0 0 0 0 0.796078 0 0 0 0 0.572549 0 0 0 0 0.478431 0 0 0 0.25 0"/>
<feBlend mode="normal" in2="shape" result="effect1_innerShadow_3_18"/>
</filter>
<filter id="filter13_i_3_18" x="457" y="151" width="29" height="25" filterUnits="userSpaceOnUse" color-interpolation-filters="sRGB">
<feFlood flood-opacity="0" result="BackgroundImageFix"/>
<feBlend mode="normal" in="SourceGraphic" in2="BackgroundImageFix" result="shape"/>
<feColorMatrix in="SourceAlpha" type="matrix" values="0 0 0 0 0 0 0 0 0 0 0 0 0 0 0 0 0 0 127 0" result="hardAlpha"/>
<feOffset dx="-8"/>
<feGaussianBlur stdDeviation="2"/>
<feComposite in2="hardAlpha" operator="arithmetic" k2="-1" k3="1"/>
<feColorMatrix type="matrix" values="0 0 0 0 0.796078 0 0 0 0 0.572549 0 0 0 0 0.478431 0 0 0 0.25 0"/>
<feBlend mode="normal" in2="shape" result="effect1_innerShadow_3_18"/>
</filter>
<filter id="filter14_i_3_18" x="254" y="133" width="59" height="59" filterUnits="userSpaceOnUse" color-interpolation-filters="sRGB">
<feFlood flood-opacity="0" result="BackgroundImageFix"/>
<feBlend mode="normal" in="SourceGraphic" in2="BackgroundImageFix" result="shape"/>
<feColorMatrix in="SourceAlpha" type="matrix" values="0 0 0 0 0 0 0 0 0 0 0 0 0 0 0 0 0 0 127 0" result="hardAlpha"/>
<feOffset dx="4" dy="-4"/>
<feGaussianBlur stdDeviation="7.5"/>
<feComposite in2="hardAlpha" operator="arithmetic" k2="-1" k3="1"/>
<feColorMatrix type="matrix" values="0 0 0 0 0 0 0 0 0 0 0 0 0 0 0 0 0 0 0.1 0"/>
<feBlend mode="normal" in2="shape" result="effect1_innerShadow_3_18"/>
</filter>
<filter id="filter15_i_3_18" x="359" y="134" width="59" height="59" filterUnits="userSpaceOnUse" color-interpolation-filters="sRGB">
<feFlood flood-opacity="0" result="BackgroundImageFix"/>
<feBlend mode="normal" in="SourceGraphic" in2="BackgroundImageFix" result="shape"/>
<feColorMatrix in="SourceAlpha" type="matrix" values="0 0 0 0 0 0 0 0 0 0 0 0 0 0 0 0 0 0 127 0" result="hardAlpha"/>
<feOffset dx="4" dy="-4"/>
<feGaussianBlur stdDeviation="7.5"/>
<feComposite in2="hardAlpha" operator="arithmetic" k2="-1" k3="1"/>
<feColorMatrix type="matrix" values="0 0 0 0 0 0 0 0 0 0 0 0 0 0 0 0 0 0 0.1 0"/>
<feBlend mode="normal" in2="shape" result="effect1_innerShadow_3_18"/>
</filter>
<linearGradient id="paint0_linear_3_18" x1="338" y1="477" x2="439.5" y2="659.5" gradientUnits="userSpaceOnUse">
<stop stop-color="#8CC572"/>
<stop offset="1" stop-color="#699355"/>
</linearGradient>
</defs>
</svg>
