<svg width="668" height="1158" viewBox="0 0 668 1158" fill="none" xmlns="http://www.w3.org/2000/svg">
<g filter="url(#filter0_d_6_66)">
<g filter="url(#filter1_i_6_66)">
<rect x="224" y="141" width="243" height="238" rx="39" fill="#432B19"/>
</g>
<g filter="url(#filter2_i_6_66)">
<path d="M143.511 525.148C137.898 531.973 127.815 532.954 120.99 527.341L118.673 525.435C110.569 518.769 109.404 506.795 116.07 498.691L212.631 381.303L241.978 405.444L143.511 525.148Z" fill="#FFDFBA"/>
<path d="M110.532 521.094C115.101 528.658 124.937 531.086 132.5 526.517L135.068 524.966C144.05 519.54 146.933 507.86 141.507 498.878L83.9162 403.539L51.39 423.187L110.532 521.094Z" fill="#FFDFBA"/>
<path d="M183.22 414.761C178.102 410.551 177.366 402.989 181.576 397.871L219.694 351.534C228.115 341.298 243.239 339.826 253.476 348.247L284.366 373.659L231.002 438.53C226.791 443.648 219.229 444.384 214.111 440.173L183.22 414.761Z" fill="#8CC572"/>
<rect x="31.4971" y="370.319" width="45" height="68" rx="22.5" transform="rotate(-16.9649 31.4971 370.319)" fill="#FFDFBA"/>
<rect width="17.1814" height="25.2946" rx="8.59072" transform="matrix(-0.855842 -0.517237 -0.517237 0.855842 98.283 392.392)" fill="#FFDFBA"/>
</g>
<g filter="url(#filter3_i_6_66)">
<path d="M546.86 486.204C553.024 492.535 552.889 502.664 546.558 508.829L544.409 510.922C536.891 518.242 524.862 518.082 517.541 510.564L411.501 401.663L438.726 375.153L546.86 486.204Z" fill="#FFDFBA"/>
<path d="M515.876 487.354C510.974 494.706 512.96 504.64 520.312 509.542L522.808 511.206C531.538 517.028 543.335 514.67 549.157 505.939L614.81 407.479L583.194 386.398L515.876 487.354Z" fill="#FFDFBA"/>
<path d="M477.54 412.113C482.429 407.639 482.766 400.048 478.292 395.159L437.789 350.893C428.841 341.114 413.66 340.44 403.881 349.388L392.077 360.189C382.298 369.137 381.624 384.318 390.572 394.097L431.075 438.363C435.549 443.252 443.14 443.589 448.029 439.115L477.54 412.113Z" fill="#8CC572"/>
<g filter="url(#filter4_i_6_66)">
<rect x="568.983" y="372.145" width="17.1814" height="25.2946" rx="8.59072" transform="rotate(-18.488 568.983 372.145)" fill="#FFDFBA"/>
</g>
<rect width="45" height="68" rx="22.5" transform="matrix(-0.869288 -0.494306 -0.494306 0.869288 638.983 365.244)" fill="#FFDFBA"/>
</g>
<rect x="213" y="343" width="231" height="386" rx="25" fill="url(#paint0_linear_6_66)"/>
<g filter="url(#filter5_i_6_66)">
<path d="M213 693H444V729H213V693Z" fill="#353535"/>
<path d="M213 729H300V1068.5C300 1088.66 283.658 1105 263.5 1105H249.5C229.342 1105 213 1088.66 213 1068.5V729Z" fill="#353535"/>
<g filter="url(#filter6_ii_6_66)">
<path d="M300.5 1097.83V1036.86C300.5 1035.08 299.835 1033.36 298.634 1032.04C297.275 1030.54 295.349 1029.69 293.329 1029.69H276.783C274.266 1029.69 271.754 1029.47 269.275 1029.03L231.892 1022.4C228.46 1021.79 225.448 1019.75 223.606 1016.79L222.17 1014.49C220.82 1012.32 218.447 1011 215.893 1011C211.81 1011 208.5 1014.31 208.5 1018.39V1028.87C208.5 1038.73 200.501 1046.73 190.634 1046.73H175.134C159.044 1046.73 146 1059.77 146 1075.87C146 1091.96 159.044 1105 175.134 1105H293.329C295.349 1105 297.275 1104.15 298.634 1102.65C299.835 1101.33 300.5 1099.61 300.5 1097.83Z" fill="#643B1E"/>
</g>
<path d="M357 729H444V1068.5C444 1088.66 427.658 1105 407.5 1105H393.5C373.342 1105 357 1088.66 357 1068.5V729Z" fill="#353535"/>
<g filter="url(#filter7_ii_6_66)">
<path d="M444.5 1097.83V1036.86C444.5 1035.08 443.835 1033.36 442.634 1032.04C441.275 1030.54 439.349 1029.69 437.329 1029.69H420.783C418.266 1029.69 415.754 1029.47 413.275 1029.03L375.892 1022.4C372.46 1021.79 369.448 1019.75 367.606 1016.79L366.17 1014.49C364.82 1012.32 362.447 1011 359.893 1011C355.81 1011 352.5 1014.31 352.5 1018.39V1028.87C352.5 1038.73 344.501 1046.73 334.634 1046.73H319.134C303.044 1046.73 290 1059.77 290 1075.87C290 1091.96 303.044 1105 319.134 1105H437.329C439.349 1105 441.275 1104.15 442.634 1102.65C443.835 1101.33 444.5 1099.61 444.5 1097.83Z" fill="#643B1E"/>
</g>
</g>
<g filter="url(#filter8_i_6_66)">
<path d="M296 297C296 293.686 298.686 291 302 291H342C345.314 291 348 293.686 348 297V341C348 355.359 336.359 367 322 367V367C307.641 367 296 355.359 296 341V297Z" fill="#FFDFBA"/>
</g>
<g filter="url(#filter9_i_6_66)">
<g filter="url(#filter10_i_6_66)">
<circle cx="200.5" cy="185.5" r="26.5" fill="#FFDFBA"/>
</g>
<g filter="url(#filter11_i_6_66)">
<circle cx="200.5" cy="185.5" r="12.5" fill="#FFDFBA"/>
</g>
</g>
<g filter="url(#filter12_i_6_66)">
<circle cx="322" cy="183" r="128" fill="#FFDFBA"/>
</g>
<path d="M404 133.5C433 181 426 324 426 324L435 327L464 256C464 256 480 127 446 73C412 19 229 7 195 41C161 75 170 118 195 133.5C220 149 375 86 404 133.5Z" fill="#643B1E"/>
<g filter="url(#filter13_i_6_66)">
<circle cx="435.5" cy="184.5" r="26.5" fill="#FFDFBA"/>
</g>
<g filter="url(#filter14_i_6_66)">
<circle cx="435.5" cy="184.5" r="12.5" fill="#FFDFBA"/>
</g>
<mask id="mask0_6_66" style="mask-type:alpha" maskUnits="userSpaceOnUse" x="195" y="122" width="183" height="73">
<path d="M195 122H377.937V195H195V122Z" fill="#C4C4C4"/>
</mask>
<g mask="url(#mask0_6_66)">
<g filter="url(#filter15_i_6_66)">
<circle cx="243.5" cy="185.5" r="27.5" fill="white"/>
</g>
<circle cx="243.5" cy="185.5" r="13.5" fill="#643B1E"/>
<g filter="url(#filter16_i_6_66)">
<circle cx="348.5" cy="185.5" r="27.5" fill="white"/>
</g>
<circle cx="348.5" cy="185.5" r="13.5" fill="#643B1E"/>
</g>
<path d="M321.035 253.183C322.921 255.908 322.253 259.682 319.322 261.228C312.193 264.987 304.232 266.981 296.114 267C287.995 267.018 280.025 265.06 272.879 261.333C269.941 259.801 269.256 256.03 271.129 253.296V253.296C273.003 250.563 276.723 249.914 279.718 251.334C284.81 253.749 290.4 255.012 296.086 254.999C301.772 254.986 307.356 253.698 312.438 251.26C315.426 249.826 319.15 250.458 321.035 253.183V253.183Z" fill="black"/>
</g>
<defs>
<filter id="filter0_d_6_66" x="0.077179" y="0.945251" width="667.729" height="1157.05" filterUnits="userSpaceOnUse" color-interpolation-filters="sRGB">
<feFlood flood-opacity="0" result="BackgroundImageFix"/>
<feColorMatrix in="SourceAlpha" type="matrix" values="0 0 0 0 0 0 0 0 0 0 0 0 0 0 0 0 0 0 127 0" result="hardAlpha"/>
<feOffset dy="16"/>
<feGaussianBlur stdDeviation="18.5"/>
<feComposite in2="hardAlpha" operator="out"/>
<feColorMatrix type="matrix" values="0 0 0 0 0 0 0 0 0 0 0 0 0 0 0 0 0 0 0.25 0"/>
<feBlend mode="normal" in2="BackgroundImageFix" result="effect1_dropShadow_6_66"/>
<feBlend mode="normal" in="SourceGraphic" in2="effect1_dropShadow_6_66" result="shape"/>
</filter>
<filter id="filter1_i_6_66" x="224" y="141" width="243" height="238" filterUnits="userSpaceOnUse" color-interpolation-filters="sRGB">
<feFlood flood-opacity="0" result="BackgroundImageFix"/>
<feBlend mode="normal" in="SourceGraphic" in2="BackgroundImageFix" result="shape"/>
<feColorMatrix in="SourceAlpha" type="matrix" values="0 0 0 0 0 0 0 0 0 0 0 0 0 0 0 0 0 0 127 0" result="hardAlpha"/>
<feOffset dx="-46" dy="40"/>
<feComposite in2="hardAlpha" operator="arithmetic" k2="-1" k3="1"/>
<feColorMatrix type="matrix" values="0 0 0 0 0.391667 0 0 0 0 0.231703 0 0 0 0 0.115868 0 0 0 1 0"/>
<feBlend mode="normal" in2="shape" result="effect1_innerShadow_6_66"/>
</filter>
<filter id="filter2_i_6_66" x="37.0772" y="329.781" width="250.289" height="201.204" filterUnits="userSpaceOnUse" color-interpolation-filters="sRGB">
<feFlood flood-opacity="0" result="BackgroundImageFix"/>
<feBlend mode="normal" in="SourceGraphic" in2="BackgroundImageFix" result="shape"/>
<feColorMatrix in="SourceAlpha" type="matrix" values="0 0 0 0 0 0 0 0 0 0 0 0 0 0 0 0 0 0 127 0" result="hardAlpha"/>
<feOffset dx="3" dy="-13"/>
<feGaussianBlur stdDeviation="14.5"/>
<feComposite in2="hardAlpha" operator="arithmetic" k2="-1" k3="1"/>
<feColorMatrix type="matrix" values="0 0 0 0 0 0 0 0 0 0 0 0 0 0 0 0 0 0 0.25 0"/>
<feBlend mode="normal" in2="shape" result="effect1_innerShadow_6_66"/>
</filter>
<filter id="filter3_i_6_66" x="384.278" y="339.094" width="258.528" height="177.215" filterUnits="userSpaceOnUse" color-interpolation-filters="sRGB">
<feFlood flood-opacity="0" result="BackgroundImageFix"/>
<feBlend mode="normal" in="SourceGraphic" in2="BackgroundImageFix" result="shape"/>
<feColorMatrix in="SourceAlpha" type="matrix" values="0 0 0 0 0 0 0 0 0 0 0 0 0 0 0 0 0 0 127 0" result="hardAlpha"/>
<feOffset dx="12" dy="-4"/>
<feGaussianBlur stdDeviation="13.5"/>
<feComposite in2="hardAlpha" operator="arithmetic" k2="-1" k3="1"/>
<feColorMatrix type="matrix" values="0 0 0 0 0 0 0 0 0 0 0 0 0 0 0 0 0 0 0.25 0"/>
<feBlend mode="normal" in2="shape" result="effect1_innerShadow_6_66"/>
</filter>
<filter id="filter4_i_6_66" x="571.262" y="368.975" width="19.7589" height="28.8805" filterUnits="userSpaceOnUse" color-interpolation-filters="sRGB">
<feFlood flood-opacity="0" result="BackgroundImageFix"/>
<feBlend mode="normal" in="SourceGraphic" in2="BackgroundImageFix" result="shape"/>
<feColorMatrix in="SourceAlpha" type="matrix" values="0 0 0 0 0 0 0 0 0 0 0 0 0 0 0 0 0 0 127 0" result="hardAlpha"/>
<feOffset dy="4"/>
<feGaussianBlur stdDeviation="7"/>
<feComposite in2="hardAlpha" operator="arithmetic" k2="-1" k3="1"/>
<feColorMatrix type="matrix" values="0 0 0 0 0.796078 0 0 0 0 0.572549 0 0 0 0 0.478431 0 0 0 0.25 0"/>
<feBlend mode="normal" in2="shape" result="effect1_innerShadow_6_66"/>
</filter>
<filter id="filter5_i_6_66" x="131" y="663" width="313.5" height="442" filterUnits="userSpaceOnUse" color-interpolation-filters="sRGB">
<feFlood flood-opacity="0" result="BackgroundImageFix"/>
<feBlend mode="normal" in="SourceGraphic" in2="BackgroundImageFix" result="shape"/>
<feColorMatrix in="SourceAlpha" type="matrix" values="0 0 0 0 0 0 0 0 0 0 0 0 0 0 0 0 0 0 127 0" result="hardAlpha"/>
<feOffset dx="-15" dy="-30"/>
<feGaussianBlur stdDeviation="16"/>
<feComposite in2="hardAlpha" operator="arithmetic" k2="-1" k3="1"/>
<feColorMatrix type="matrix" values="0 0 0 0 0 0 0 0 0 0 0 0 0 0 0 0 0 0 0.25 0"/>
<feBlend mode="normal" in2="shape" result="effect1_innerShadow_6_66"/>
</filter>
<filter id="filter6_ii_6_66" x="130" y="985" width="170.5" height="120" filterUnits="userSpaceOnUse" color-interpolation-filters="sRGB">
<feFlood flood-opacity="0" result="BackgroundImageFix"/>
<feBlend mode="normal" in="SourceGraphic" in2="BackgroundImageFix" result="shape"/>
<feColorMatrix in="SourceAlpha" type="matrix" values="0 0 0 0 0 0 0 0 0 0 0 0 0 0 0 0 0 0 127 0" result="hardAlpha"/>
<feOffset dy="-15"/>
<feComposite in2="hardAlpha" operator="arithmetic" k2="-1" k3="1"/>
<feColorMatrix type="matrix" values="0 0 0 0 0 0 0 0 0 0 0 0 0 0 0 0 0 0 0.25 0"/>
<feBlend mode="normal" in2="shape" result="effect1_innerShadow_6_66"/>
<feColorMatrix in="SourceAlpha" type="matrix" values="0 0 0 0 0 0 0 0 0 0 0 0 0 0 0 0 0 0 127 0" result="hardAlpha"/>
<feOffset dx="-16" dy="-26"/>
<feGaussianBlur stdDeviation="15"/>
<feComposite in2="hardAlpha" operator="arithmetic" k2="-1" k3="1"/>
<feColorMatrix type="matrix" values="0 0 0 0 0 0 0 0 0 0 0 0 0 0 0 0 0 0 0.25 0"/>
<feBlend mode="normal" in2="effect1_innerShadow_6_66" result="effect2_innerShadow_6_66"/>
</filter>
<filter id="filter7_ii_6_66" x="274" y="985" width="170.5" height="120" filterUnits="userSpaceOnUse" color-interpolation-filters="sRGB">
<feFlood flood-opacity="0" result="BackgroundImageFix"/>
<feBlend mode="normal" in="SourceGraphic" in2="BackgroundImageFix" result="shape"/>
<feColorMatrix in="SourceAlpha" type="matrix" values="0 0 0 0 0 0 0 0 0 0 0 0 0 0 0 0 0 0 127 0" result="hardAlpha"/>
<feOffset dy="-15"/>
<feComposite in2="hardAlpha" operator="arithmetic" k2="-1" k3="1"/>
<feColorMatrix type="matrix" values="0 0 0 0 0 0 0 0 0 0 0 0 0 0 0 0 0 0 0.25 0"/>
<feBlend mode="normal" in2="shape" result="effect1_innerShadow_6_66"/>
<feColorMatrix in="SourceAlpha" type="matrix" values="0 0 0 0 0 0 0 0 0 0 0 0 0 0 0 0 0 0 127 0" result="hardAlpha"/>
<feOffset dx="-16" dy="-26"/>
<feGaussianBlur stdDeviation="15"/>
<feComposite in2="hardAlpha" operator="arithmetic" k2="-1" k3="1"/>
<feColorMatrix type="matrix" values="0 0 0 0 0 0 0 0 0 0 0 0 0 0 0 0 0 0 0.25 0"/>
<feBlend mode="normal" in2="effect1_innerShadow_6_66" result="effect2_innerShadow_6_66"/>
</filter>
<filter id="filter8_i_6_66" x="296" y="291" width="52" height="90" filterUnits="userSpaceOnUse" color-interpolation-filters="sRGB">
<feFlood flood-opacity="0" result="BackgroundImageFix"/>
<feBlend mode="normal" in="SourceGraphic" in2="BackgroundImageFix" result="shape"/>
<feColorMatrix in="SourceAlpha" type="matrix" values="0 0 0 0 0 0 0 0 0 0 0 0 0 0 0 0 0 0 127 0" result="hardAlpha"/>
<feOffset dy="34"/>
<feGaussianBlur stdDeviation="7"/>
<feComposite in2="hardAlpha" operator="arithmetic" k2="-1" k3="1"/>
<feColorMatrix type="matrix" values="0 0 0 0 0.796078 0 0 0 0 0.572549 0 0 0 0 0.478431 0 0 0 0.6 0"/>
<feBlend mode="normal" in2="shape" result="effect1_innerShadow_6_66"/>
</filter>
<filter id="filter9_i_6_66" x="174" y="154" width="58" height="58" filterUnits="userSpaceOnUse" color-interpolation-filters="sRGB">
<feFlood flood-opacity="0" result="BackgroundImageFix"/>
<feBlend mode="normal" in="SourceGraphic" in2="BackgroundImageFix" result="shape"/>
<feColorMatrix in="SourceAlpha" type="matrix" values="0 0 0 0 0 0 0 0 0 0 0 0 0 0 0 0 0 0 127 0" result="hardAlpha"/>
<feOffset dx="5" dy="-5"/>
<feGaussianBlur stdDeviation="33.5"/>
<feComposite in2="hardAlpha" operator="arithmetic" k2="-1" k3="1"/>
<feColorMatrix type="matrix" values="0 0 0 0 0.796078 0 0 0 0 0.572549 0 0 0 0 0.478431 0 0 0 0.29 0"/>
<feBlend mode="normal" in2="shape" result="effect1_innerShadow_6_66"/>
</filter>
<filter id="filter10_i_6_66" x="174" y="155" width="57" height="57" filterUnits="userSpaceOnUse" color-interpolation-filters="sRGB">
<feFlood flood-opacity="0" result="BackgroundImageFix"/>
<feBlend mode="normal" in="SourceGraphic" in2="BackgroundImageFix" result="shape"/>
<feColorMatrix in="SourceAlpha" type="matrix" values="0 0 0 0 0 0 0 0 0 0 0 0 0 0 0 0 0 0 127 0" result="hardAlpha"/>
<feOffset dx="4" dy="-4"/>
<feGaussianBlur stdDeviation="2"/>
<feComposite in2="hardAlpha" operator="arithmetic" k2="-1" k3="1"/>
<feColorMatrix type="matrix" values="0 0 0 0 0.796078 0 0 0 0 0.572549 0 0 0 0 0.478431 0 0 0 0.25 0"/>
<feBlend mode="normal" in2="shape" result="effect1_innerShadow_6_66"/>
</filter>
<filter id="filter11_i_6_66" x="188" y="173" width="29" height="25" filterUnits="userSpaceOnUse" color-interpolation-filters="sRGB">
<feFlood flood-opacity="0" result="BackgroundImageFix"/>
<feBlend mode="normal" in="SourceGraphic" in2="BackgroundImageFix" result="shape"/>
<feColorMatrix in="SourceAlpha" type="matrix" values="0 0 0 0 0 0 0 0 0 0 0 0 0 0 0 0 0 0 127 0" result="hardAlpha"/>
<feOffset dx="8"/>
<feGaussianBlur stdDeviation="2"/>
<feComposite in2="hardAlpha" operator="arithmetic" k2="-1" k3="1"/>
<feColorMatrix type="matrix" values="0 0 0 0 0.796078 0 0 0 0 0.572549 0 0 0 0 0.478431 0 0 0 0.25 0"/>
<feBlend mode="normal" in2="shape" result="effect1_innerShadow_6_66"/>
</filter>
<filter id="filter12_i_6_66" x="194" y="55" width="278" height="256" filterUnits="userSpaceOnUse" color-interpolation-filters="sRGB">
<feFlood flood-opacity="0" result="BackgroundImageFix"/>
<feBlend mode="normal" in="SourceGraphic" in2="BackgroundImageFix" result="shape"/>
<feColorMatrix in="SourceAlpha" type="matrix" values="0 0 0 0 0 0 0 0 0 0 0 0 0 0 0 0 0 0 127 0" result="hardAlpha"/>
<feOffset dx="22"/>
<feGaussianBlur stdDeviation="28"/>
<feComposite in2="hardAlpha" operator="arithmetic" k2="-1" k3="1"/>
<feColorMatrix type="matrix" values="0 0 0 0 0.795833 0 0 0 0 0.573 0 0 0 0 0.4775 0 0 0 0.29 0"/>
<feBlend mode="normal" in2="shape" result="effect1_innerShadow_6_66"/>
</filter>
<filter id="filter13_i_6_66" x="405" y="154" width="57" height="57" filterUnits="userSpaceOnUse" color-interpolation-filters="sRGB">
<feFlood flood-opacity="0" result="BackgroundImageFix"/>
<feBlend mode="normal" in="SourceGraphic" in2="BackgroundImageFix" result="shape"/>
<feColorMatrix in="SourceAlpha" type="matrix" values="0 0 0 0 0 0 0 0 0 0 0 0 0 0 0 0 0 0 127 0" result="hardAlpha"/>
<feOffset dx="-4" dy="-4"/>
<feGaussianBlur stdDeviation="2"/>
<feComposite in2="hardAlpha" operator="arithmetic" k2="-1" k3="1"/>
<feColorMatrix type="matrix" values="0 0 0 0 0.796078 0 0 0 0 0.572549 0 0 0 0 0.478431 0 0 0 0.25 0"/>
<feBlend mode="normal" in2="shape" result="effect1_innerShadow_6_66"/>
</filter>
<filter id="filter14_i_6_66" x="419" y="172" width="29" height="25" filterUnits="userSpaceOnUse" color-interpolation-filters="sRGB">
<feFlood flood-opacity="0" result="BackgroundImageFix"/>
<feBlend mode="normal" in="SourceGraphic" in2="BackgroundImageFix" result="shape"/>
<feColorMatrix in="SourceAlpha" type="matrix" values="0 0 0 0 0 0 0 0 0 0 0 0 0 0 0 0 0 0 127 0" result="hardAlpha"/>
<feOffset dx="-8"/>
<feGaussianBlur stdDeviation="2"/>
<feComposite in2="hardAlpha" operator="arithmetic" k2="-1" k3="1"/>
<feColorMatrix type="matrix" values="0 0 0 0 0.796078 0 0 0 0 0.572549 0 0 0 0 0.478431 0 0 0 0.25 0"/>
<feBlend mode="normal" in2="shape" result="effect1_innerShadow_6_66"/>
</filter>
<filter id="filter15_i_6_66" x="216" y="154" width="59" height="59" filterUnits="userSpaceOnUse" color-interpolation-filters="sRGB">
<feFlood flood-opacity="0" result="BackgroundImageFix"/>
<feBlend mode="normal" in="SourceGraphic" in2="BackgroundImageFix" result="shape"/>
<feColorMatrix in="SourceAlpha" type="matrix" values="0 0 0 0 0 0 0 0 0 0 0 0 0 0 0 0 0 0 127 0" result="hardAlpha"/>
<feOffset dx="4" dy="-4"/>
<feGaussianBlur stdDeviation="7.5"/>
<feComposite in2="hardAlpha" operator="arithmetic" k2="-1" k3="1"/>
<feColorMatrix type="matrix" values="0 0 0 0 0 0 0 0 0 0 0 0 0 0 0 0 0 0 0.1 0"/>
<feBlend mode="normal" in2="shape" result="effect1_innerShadow_6_66"/>
</filter>
<filter id="filter16_i_6_66" x="321" y="154" width="59" height="59" filterUnits="userSpaceOnUse" color-interpolation-filters="sRGB">
<feFlood flood-opacity="0" result="BackgroundImageFix"/>
<feBlend mode="normal" in="SourceGraphic" in2="BackgroundImageFix" result="shape"/>
<feColorMatrix in="SourceAlpha" type="matrix" values="0 0 0 0 0 0 0 0 0 0 0 0 0 0 0 0 0 0 127 0" result="hardAlpha"/>
<feOffset dx="4" dy="-4"/>
<feGaussianBlur stdDeviation="7.5"/>
<feComposite in2="hardAlpha" operator="arithmetic" k2="-1" k3="1"/>
<feColorMatrix type="matrix" values="0 0 0 0 0 0 0 0 0 0 0 0 0 0 0 0 0 0 0.1 0"/>
<feBlend mode="normal" in2="shape" result="effect1_innerShadow_6_66"/>
</filter>
<linearGradient id="paint0_linear_6_66" x1="300" y1="498" x2="401.5" y2="680.5" gradientUnits="userSpaceOnUse">
<stop stop-color="#8CC572"/>
<stop offset="1" stop-color="#699355"/>
</linearGradient>
</defs>
</svg>
