<svg width="592" height="1158" viewBox="0 0 592 1158" fill="none" xmlns="http://www.w3.org/2000/svg">
<g filter="url(#filter0_d_6_19)">
<g filter="url(#filter1_i_6_19)">
<rect x="245" y="141" width="243" height="238" rx="39" fill="#432B19"/>
</g>
<g filter="url(#filter2_i_6_19)">
<path d="M228.081 551.064C225.483 559.51 216.53 564.25 208.084 561.652L205.216 560.77C195.187 557.684 189.558 547.052 192.643 537.023L237.339 391.743L273.659 402.916L228.081 551.064Z" fill="#FFDFBA"/>
<path d="M227.422 549.078C231.308 541.141 228.023 531.558 220.087 527.673L217.392 526.354C207.968 521.74 196.587 525.64 191.973 535.065L143 635.105L177.13 651.812L227.422 549.078Z" fill="#FFDFBA"/>
<path d="M222.852 433.869C216.518 431.92 212.963 425.205 214.912 418.87L232.556 361.523C236.454 348.855 249.884 341.744 262.553 345.642L300.784 357.406L276.082 437.691C274.133 444.026 267.418 447.581 261.083 445.632L222.852 433.869Z" fill="#8CC572"/>
<rect x="155.848" y="693.122" width="45" height="68" rx="22.5" transform="rotate(-152.315 155.848 693.122)" fill="#FFDFBA"/>
<rect width="17.1814" height="25.2946" rx="8.59072" transform="matrix(0.245361 0.969432 0.969432 -0.245361 123.848 630.484)" fill="#FFDFBA"/>
</g>
<g filter="url(#filter3_i_6_19)">
<path d="M496.858 541.064C500.678 549.032 510.235 552.394 518.203 548.573L520.908 547.276C530.37 542.739 534.362 531.391 529.825 521.929L464.106 384.871L429.842 401.3L496.858 541.064Z" fill="#FFDFBA"/>
<path d="M493.545 528.299C493.075 519.475 499.847 511.941 508.671 511.47L511.667 511.311C522.145 510.752 531.093 518.794 531.651 529.273L537.95 647.447L500.004 649.469L493.545 528.299Z" fill="#FFDFBA"/>
<path d="M451.173 450.468C445.289 453.518 438.047 451.22 434.997 445.336L396.345 370.757L431.859 352.351C443.627 346.252 458.112 350.848 464.211 362.616L491.819 415.886C494.869 421.771 492.571 429.013 486.687 432.062L451.173 450.468Z" fill="#8CC572"/>
<g filter="url(#filter4_i_6_19)">
<rect width="17.1814" height="25.2946" rx="8.59072" transform="matrix(0.65431 0.756226 0.756226 -0.65431 480.512 654.488)" fill="#FFDFBA"/>
</g>
<rect x="537.219" y="696.105" width="45" height="68" rx="22.5" transform="rotate(-178.979 537.219 696.105)" fill="#FFDFBA"/>
</g>
<rect x="234" y="343" width="231" height="386" rx="25" fill="url(#paint0_linear_6_19)"/>
<g filter="url(#filter5_i_6_19)">
<path d="M234 693H465V729H234V693Z" fill="#353535"/>
<path d="M234 729H321V1068.5C321 1088.66 304.658 1105 284.5 1105H270.5C250.342 1105 234 1088.66 234 1068.5V729Z" fill="#353535"/>
<g filter="url(#filter6_ii_6_19)">
<path d="M321.5 1097.83V1036.86C321.5 1035.08 320.835 1033.36 319.634 1032.04C318.275 1030.54 316.349 1029.69 314.329 1029.69H297.783C295.266 1029.69 292.754 1029.47 290.275 1029.03L252.893 1022.4C249.46 1021.79 246.448 1019.75 244.606 1016.79L243.17 1014.49C241.82 1012.32 239.447 1011 236.893 1011C232.81 1011 229.5 1014.31 229.5 1018.39V1028.87C229.5 1038.73 221.501 1046.73 211.635 1046.73H196.135C180.044 1046.73 167 1059.77 167 1075.87C167 1091.96 180.044 1105 196.135 1105H314.329C316.349 1105 318.275 1104.15 319.634 1102.65C320.835 1101.33 321.5 1099.61 321.5 1097.83Z" fill="#643B1E"/>
</g>
<path d="M378 729H465V1068.5C465 1088.66 448.658 1105 428.5 1105H414.5C394.342 1105 378 1088.66 378 1068.5V729Z" fill="#353535"/>
<g filter="url(#filter7_ii_6_19)">
<path d="M465.5 1097.83V1036.86C465.5 1035.08 464.835 1033.36 463.634 1032.04C462.275 1030.54 460.349 1029.69 458.329 1029.69H441.783C439.266 1029.69 436.754 1029.47 434.275 1029.03L396.893 1022.4C393.46 1021.79 390.448 1019.75 388.606 1016.79L387.17 1014.49C385.82 1012.32 383.447 1011 380.893 1011C376.81 1011 373.5 1014.31 373.5 1018.39V1028.87C373.5 1038.73 365.501 1046.73 355.635 1046.73H340.135C324.044 1046.73 311 1059.77 311 1075.87C311 1091.96 324.044 1105 340.135 1105H458.329C460.349 1105 462.275 1104.15 463.634 1102.65C464.835 1101.33 465.5 1099.61 465.5 1097.83Z" fill="#643B1E"/>
</g>
</g>
<g filter="url(#filter8_i_6_19)">
<path d="M317 297C317 293.686 319.686 291 323 291H363C366.314 291 369 293.686 369 297V341C369 355.359 357.359 367 343 367V367C328.641 367 317 355.359 317 341V297Z" fill="#FFDFBA"/>
</g>
<g filter="url(#filter9_i_6_19)">
<g filter="url(#filter10_i_6_19)">
<circle cx="221.5" cy="185.5" r="26.5" fill="#FFDFBA"/>
</g>
<g filter="url(#filter11_i_6_19)">
<circle cx="221.5" cy="185.5" r="12.5" fill="#FFDFBA"/>
</g>
</g>
<g filter="url(#filter12_i_6_19)">
<circle cx="343" cy="183" r="128" fill="#FFDFBA"/>
</g>
<path d="M425 133.5C454 181 447 324 447 324L456 327L485 256C485 256 501 127 467 73C433 19 250 7 216 41C182 75 191 118 216 133.5C241 149 396 86 425 133.5Z" fill="#643B1E"/>
<g filter="url(#filter13_i_6_19)">
<circle cx="456.5" cy="184.5" r="26.5" fill="#FFDFBA"/>
</g>
<g filter="url(#filter14_i_6_19)">
<circle cx="456.5" cy="184.5" r="12.5" fill="#FFDFBA"/>
</g>
<mask id="mask0_6_19" style="mask-type:alpha" maskUnits="userSpaceOnUse" x="226" y="122" width="183" height="73">
<path d="M226 122H408.938V195H226V122Z" fill="#C4C4C4"/>
</mask>
<g mask="url(#mask0_6_19)">
<g filter="url(#filter15_i_6_19)">
<circle cx="264.5" cy="185.5" r="27.5" fill="white"/>
</g>
<circle cx="264.5" cy="185.5" r="13.5" fill="#643B1E"/>
<g filter="url(#filter16_i_6_19)">
<circle cx="369.5" cy="185.5" r="27.5" fill="white"/>
</g>
<circle cx="369.5" cy="185.5" r="13.5" fill="#643B1E"/>
</g>
<rect x="292" y="255" width="51" height="12" rx="6" fill="black"/>
</g>
<defs>
<filter id="filter0_d_6_19" x="86.8732" y="0.945251" width="488.16" height="1157.05" filterUnits="userSpaceOnUse" color-interpolation-filters="sRGB">
<feFlood flood-opacity="0" result="BackgroundImageFix"/>
<feColorMatrix in="SourceAlpha" type="matrix" values="0 0 0 0 0 0 0 0 0 0 0 0 0 0 0 0 0 0 127 0" result="hardAlpha"/>
<feOffset dy="16"/>
<feGaussianBlur stdDeviation="18.5"/>
<feComposite in2="hardAlpha" operator="out"/>
<feColorMatrix type="matrix" values="0 0 0 0 0 0 0 0 0 0 0 0 0 0 0 0 0 0 0.25 0"/>
<feBlend mode="normal" in2="BackgroundImageFix" result="effect1_dropShadow_6_19"/>
<feBlend mode="normal" in="SourceGraphic" in2="effect1_dropShadow_6_19" result="shape"/>
</filter>
<filter id="filter1_i_6_19" x="245" y="141" width="243" height="238" filterUnits="userSpaceOnUse" color-interpolation-filters="sRGB">
<feFlood flood-opacity="0" result="BackgroundImageFix"/>
<feBlend mode="normal" in="SourceGraphic" in2="BackgroundImageFix" result="shape"/>
<feColorMatrix in="SourceAlpha" type="matrix" values="0 0 0 0 0 0 0 0 0 0 0 0 0 0 0 0 0 0 127 0" result="hardAlpha"/>
<feOffset dx="-46" dy="40"/>
<feComposite in2="hardAlpha" operator="arithmetic" k2="-1" k3="1"/>
<feColorMatrix type="matrix" values="0 0 0 0 0.391667 0 0 0 0 0.231703 0 0 0 0 0.115868 0 0 0 1 0"/>
<feBlend mode="normal" in2="shape" result="effect1_innerShadow_6_19"/>
</filter>
<filter id="filter2_i_6_19" x="123.873" y="331.575" width="179.911" height="353.674" filterUnits="userSpaceOnUse" color-interpolation-filters="sRGB">
<feFlood flood-opacity="0" result="BackgroundImageFix"/>
<feBlend mode="normal" in="SourceGraphic" in2="BackgroundImageFix" result="shape"/>
<feColorMatrix in="SourceAlpha" type="matrix" values="0 0 0 0 0 0 0 0 0 0 0 0 0 0 0 0 0 0 127 0" result="hardAlpha"/>
<feOffset dx="3" dy="-13"/>
<feGaussianBlur stdDeviation="14.5"/>
<feComposite in2="hardAlpha" operator="arithmetic" k2="-1" k3="1"/>
<feColorMatrix type="matrix" values="0 0 0 0 0 0 0 0 0 0 0 0 0 0 0 0 0 0 0.25 0"/>
<feBlend mode="normal" in2="shape" result="effect1_innerShadow_6_19"/>
</filter>
<filter id="filter3_i_6_19" x="396.345" y="345.654" width="153.687" height="350.054" filterUnits="userSpaceOnUse" color-interpolation-filters="sRGB">
<feFlood flood-opacity="0" result="BackgroundImageFix"/>
<feBlend mode="normal" in="SourceGraphic" in2="BackgroundImageFix" result="shape"/>
<feColorMatrix in="SourceAlpha" type="matrix" values="0 0 0 0 0 0 0 0 0 0 0 0 0 0 0 0 0 0 127 0" result="hardAlpha"/>
<feOffset dx="12" dy="-4"/>
<feGaussianBlur stdDeviation="13.5"/>
<feComposite in2="hardAlpha" operator="arithmetic" k2="-1" k3="1"/>
<feColorMatrix type="matrix" values="0 0 0 0 0 0 0 0 0 0 0 0 0 0 0 0 0 0 0.25 0"/>
<feBlend mode="normal" in2="shape" result="effect1_innerShadow_6_19"/>
</filter>
<filter id="filter4_i_6_19" x="484.039" y="641.464" width="23.3171" height="26.4902" filterUnits="userSpaceOnUse" color-interpolation-filters="sRGB">
<feFlood flood-opacity="0" result="BackgroundImageFix"/>
<feBlend mode="normal" in="SourceGraphic" in2="BackgroundImageFix" result="shape"/>
<feColorMatrix in="SourceAlpha" type="matrix" values="0 0 0 0 0 0 0 0 0 0 0 0 0 0 0 0 0 0 127 0" result="hardAlpha"/>
<feOffset dy="4"/>
<feGaussianBlur stdDeviation="7"/>
<feComposite in2="hardAlpha" operator="arithmetic" k2="-1" k3="1"/>
<feColorMatrix type="matrix" values="0 0 0 0 0.796078 0 0 0 0 0.572549 0 0 0 0 0.478431 0 0 0 0.25 0"/>
<feBlend mode="normal" in2="shape" result="effect1_innerShadow_6_19"/>
</filter>
<filter id="filter5_i_6_19" x="152" y="663" width="313.5" height="442" filterUnits="userSpaceOnUse" color-interpolation-filters="sRGB">
<feFlood flood-opacity="0" result="BackgroundImageFix"/>
<feBlend mode="normal" in="SourceGraphic" in2="BackgroundImageFix" result="shape"/>
<feColorMatrix in="SourceAlpha" type="matrix" values="0 0 0 0 0 0 0 0 0 0 0 0 0 0 0 0 0 0 127 0" result="hardAlpha"/>
<feOffset dx="-15" dy="-30"/>
<feGaussianBlur stdDeviation="16"/>
<feComposite in2="hardAlpha" operator="arithmetic" k2="-1" k3="1"/>
<feColorMatrix type="matrix" values="0 0 0 0 0 0 0 0 0 0 0 0 0 0 0 0 0 0 0.25 0"/>
<feBlend mode="normal" in2="shape" result="effect1_innerShadow_6_19"/>
</filter>
<filter id="filter6_ii_6_19" x="151" y="985" width="170.5" height="120" filterUnits="userSpaceOnUse" color-interpolation-filters="sRGB">
<feFlood flood-opacity="0" result="BackgroundImageFix"/>
<feBlend mode="normal" in="SourceGraphic" in2="BackgroundImageFix" result="shape"/>
<feColorMatrix in="SourceAlpha" type="matrix" values="0 0 0 0 0 0 0 0 0 0 0 0 0 0 0 0 0 0 127 0" result="hardAlpha"/>
<feOffset dy="-15"/>
<feComposite in2="hardAlpha" operator="arithmetic" k2="-1" k3="1"/>
<feColorMatrix type="matrix" values="0 0 0 0 0 0 0 0 0 0 0 0 0 0 0 0 0 0 0.25 0"/>
<feBlend mode="normal" in2="shape" result="effect1_innerShadow_6_19"/>
<feColorMatrix in="SourceAlpha" type="matrix" values="0 0 0 0 0 0 0 0 0 0 0 0 0 0 0 0 0 0 127 0" result="hardAlpha"/>
<feOffset dx="-16" dy="-26"/>
<feGaussianBlur stdDeviation="15"/>
<feComposite in2="hardAlpha" operator="arithmetic" k2="-1" k3="1"/>
<feColorMatrix type="matrix" values="0 0 0 0 0 0 0 0 0 0 0 0 0 0 0 0 0 0 0.25 0"/>
<feBlend mode="normal" in2="effect1_innerShadow_6_19" result="effect2_innerShadow_6_19"/>
</filter>
<filter id="filter7_ii_6_19" x="295" y="985" width="170.5" height="120" filterUnits="userSpaceOnUse" color-interpolation-filters="sRGB">
<feFlood flood-opacity="0" result="BackgroundImageFix"/>
<feBlend mode="normal" in="SourceGraphic" in2="BackgroundImageFix" result="shape"/>
<feColorMatrix in="SourceAlpha" type="matrix" values="0 0 0 0 0 0 0 0 0 0 0 0 0 0 0 0 0 0 127 0" result="hardAlpha"/>
<feOffset dy="-15"/>
<feComposite in2="hardAlpha" operator="arithmetic" k2="-1" k3="1"/>
<feColorMatrix type="matrix" values="0 0 0 0 0 0 0 0 0 0 0 0 0 0 0 0 0 0 0.25 0"/>
<feBlend mode="normal" in2="shape" result="effect1_innerShadow_6_19"/>
<feColorMatrix in="SourceAlpha" type="matrix" values="0 0 0 0 0 0 0 0 0 0 0 0 0 0 0 0 0 0 127 0" result="hardAlpha"/>
<feOffset dx="-16" dy="-26"/>
<feGaussianBlur stdDeviation="15"/>
<feComposite in2="hardAlpha" operator="arithmetic" k2="-1" k3="1"/>
<feColorMatrix type="matrix" values="0 0 0 0 0 0 0 0 0 0 0 0 0 0 0 0 0 0 0.25 0"/>
<feBlend mode="normal" in2="effect1_innerShadow_6_19" result="effect2_innerShadow_6_19"/>
</filter>
<filter id="filter8_i_6_19" x="317" y="291" width="52" height="90" filterUnits="userSpaceOnUse" color-interpolation-filters="sRGB">
<feFlood flood-opacity="0" result="BackgroundImageFix"/>
<feBlend mode="normal" in="SourceGraphic" in2="BackgroundImageFix" result="shape"/>
<feColorMatrix in="SourceAlpha" type="matrix" values="0 0 0 0 0 0 0 0 0 0 0 0 0 0 0 0 0 0 127 0" result="hardAlpha"/>
<feOffset dy="34"/>
<feGaussianBlur stdDeviation="7"/>
<feComposite in2="hardAlpha" operator="arithmetic" k2="-1" k3="1"/>
<feColorMatrix type="matrix" values="0 0 0 0 0.796078 0 0 0 0 0.572549 0 0 0 0 0.478431 0 0 0 0.6 0"/>
<feBlend mode="normal" in2="shape" result="effect1_innerShadow_6_19"/>
</filter>
<filter id="filter9_i_6_19" x="195" y="154" width="58" height="58" filterUnits="userSpaceOnUse" color-interpolation-filters="sRGB">
<feFlood flood-opacity="0" result="BackgroundImageFix"/>
<feBlend mode="normal" in="SourceGraphic" in2="BackgroundImageFix" result="shape"/>
<feColorMatrix in="SourceAlpha" type="matrix" values="0 0 0 0 0 0 0 0 0 0 0 0 0 0 0 0 0 0 127 0" result="hardAlpha"/>
<feOffset dx="5" dy="-5"/>
<feGaussianBlur stdDeviation="33.5"/>
<feComposite in2="hardAlpha" operator="arithmetic" k2="-1" k3="1"/>
<feColorMatrix type="matrix" values="0 0 0 0 0.796078 0 0 0 0 0.572549 0 0 0 0 0.478431 0 0 0 0.29 0"/>
<feBlend mode="normal" in2="shape" result="effect1_innerShadow_6_19"/>
</filter>
<filter id="filter10_i_6_19" x="195" y="155" width="57" height="57" filterUnits="userSpaceOnUse" color-interpolation-filters="sRGB">
<feFlood flood-opacity="0" result="BackgroundImageFix"/>
<feBlend mode="normal" in="SourceGraphic" in2="BackgroundImageFix" result="shape"/>
<feColorMatrix in="SourceAlpha" type="matrix" values="0 0 0 0 0 0 0 0 0 0 0 0 0 0 0 0 0 0 127 0" result="hardAlpha"/>
<feOffset dx="4" dy="-4"/>
<feGaussianBlur stdDeviation="2"/>
<feComposite in2="hardAlpha" operator="arithmetic" k2="-1" k3="1"/>
<feColorMatrix type="matrix" values="0 0 0 0 0.796078 0 0 0 0 0.572549 0 0 0 0 0.478431 0 0 0 0.25 0"/>
<feBlend mode="normal" in2="shape" result="effect1_innerShadow_6_19"/>
</filter>
<filter id="filter11_i_6_19" x="209" y="173" width="29" height="25" filterUnits="userSpaceOnUse" color-interpolation-filters="sRGB">
<feFlood flood-opacity="0" result="BackgroundImageFix"/>
<feBlend mode="normal" in="SourceGraphic" in2="BackgroundImageFix" result="shape"/>
<feColorMatrix in="SourceAlpha" type="matrix" values="0 0 0 0 0 0 0 0 0 0 0 0 0 0 0 0 0 0 127 0" result="hardAlpha"/>
<feOffset dx="8"/>
<feGaussianBlur stdDeviation="2"/>
<feComposite in2="hardAlpha" operator="arithmetic" k2="-1" k3="1"/>
<feColorMatrix type="matrix" values="0 0 0 0 0.796078 0 0 0 0 0.572549 0 0 0 0 0.478431 0 0 0 0.25 0"/>
<feBlend mode="normal" in2="shape" result="effect1_innerShadow_6_19"/>
</filter>
<filter id="filter12_i_6_19" x="215" y="55" width="278" height="256" filterUnits="userSpaceOnUse" color-interpolation-filters="sRGB">
<feFlood flood-opacity="0" result="BackgroundImageFix"/>
<feBlend mode="normal" in="SourceGraphic" in2="BackgroundImageFix" result="shape"/>
<feColorMatrix in="SourceAlpha" type="matrix" values="0 0 0 0 0 0 0 0 0 0 0 0 0 0 0 0 0 0 127 0" result="hardAlpha"/>
<feOffset dx="22"/>
<feGaussianBlur stdDeviation="28"/>
<feComposite in2="hardAlpha" operator="arithmetic" k2="-1" k3="1"/>
<feColorMatrix type="matrix" values="0 0 0 0 0.795833 0 0 0 0 0.573 0 0 0 0 0.4775 0 0 0 0.29 0"/>
<feBlend mode="normal" in2="shape" result="effect1_innerShadow_6_19"/>
</filter>
<filter id="filter13_i_6_19" x="426" y="154" width="57" height="57" filterUnits="userSpaceOnUse" color-interpolation-filters="sRGB">
<feFlood flood-opacity="0" result="BackgroundImageFix"/>
<feBlend mode="normal" in="SourceGraphic" in2="BackgroundImageFix" result="shape"/>
<feColorMatrix in="SourceAlpha" type="matrix" values="0 0 0 0 0 0 0 0 0 0 0 0 0 0 0 0 0 0 127 0" result="hardAlpha"/>
<feOffset dx="-4" dy="-4"/>
<feGaussianBlur stdDeviation="2"/>
<feComposite in2="hardAlpha" operator="arithmetic" k2="-1" k3="1"/>
<feColorMatrix type="matrix" values="0 0 0 0 0.796078 0 0 0 0 0.572549 0 0 0 0 0.478431 0 0 0 0.25 0"/>
<feBlend mode="normal" in2="shape" result="effect1_innerShadow_6_19"/>
</filter>
<filter id="filter14_i_6_19" x="440" y="172" width="29" height="25" filterUnits="userSpaceOnUse" color-interpolation-filters="sRGB">
<feFlood flood-opacity="0" result="BackgroundImageFix"/>
<feBlend mode="normal" in="SourceGraphic" in2="BackgroundImageFix" result="shape"/>
<feColorMatrix in="SourceAlpha" type="matrix" values="0 0 0 0 0 0 0 0 0 0 0 0 0 0 0 0 0 0 127 0" result="hardAlpha"/>
<feOffset dx="-8"/>
<feGaussianBlur stdDeviation="2"/>
<feComposite in2="hardAlpha" operator="arithmetic" k2="-1" k3="1"/>
<feColorMatrix type="matrix" values="0 0 0 0 0.796078 0 0 0 0 0.572549 0 0 0 0 0.478431 0 0 0 0.25 0"/>
<feBlend mode="normal" in2="shape" result="effect1_innerShadow_6_19"/>
</filter>
<filter id="filter15_i_6_19" x="237" y="154" width="59" height="59" filterUnits="userSpaceOnUse" color-interpolation-filters="sRGB">
<feFlood flood-opacity="0" result="BackgroundImageFix"/>
<feBlend mode="normal" in="SourceGraphic" in2="BackgroundImageFix" result="shape"/>
<feColorMatrix in="SourceAlpha" type="matrix" values="0 0 0 0 0 0 0 0 0 0 0 0 0 0 0 0 0 0 127 0" result="hardAlpha"/>
<feOffset dx="4" dy="-4"/>
<feGaussianBlur stdDeviation="7.5"/>
<feComposite in2="hardAlpha" operator="arithmetic" k2="-1" k3="1"/>
<feColorMatrix type="matrix" values="0 0 0 0 0 0 0 0 0 0 0 0 0 0 0 0 0 0 0.1 0"/>
<feBlend mode="normal" in2="shape" result="effect1_innerShadow_6_19"/>
</filter>
<filter id="filter16_i_6_19" x="342" y="154" width="59" height="59" filterUnits="userSpaceOnUse" color-interpolation-filters="sRGB">
<feFlood flood-opacity="0" result="BackgroundImageFix"/>
<feBlend mode="normal" in="SourceGraphic" in2="BackgroundImageFix" result="shape"/>
<feColorMatrix in="SourceAlpha" type="matrix" values="0 0 0 0 0 0 0 0 0 0 0 0 0 0 0 0 0 0 127 0" result="hardAlpha"/>
<feOffset dx="4" dy="-4"/>
<feGaussianBlur stdDeviation="7.5"/>
<feComposite in2="hardAlpha" operator="arithmetic" k2="-1" k3="1"/>
<feColorMatrix type="matrix" values="0 0 0 0 0 0 0 0 0 0 0 0 0 0 0 0 0 0 0.1 0"/>
<feBlend mode="normal" in2="shape" result="effect1_innerShadow_6_19"/>
</filter>
<linearGradient id="paint0_linear_6_19" x1="321" y1="498" x2="422.5" y2="680.5" gradientUnits="userSpaceOnUse">
<stop stop-color="#8CC572"/>
<stop offset="1" stop-color="#699355"/>
</linearGradient>
</defs>
</svg>
