<svg width="352" height="386" viewBox="0 0 352 386" fill="none" xmlns="http://www.w3.org/2000/svg">
<g filter="url(#filter0_d_15_3)">
<g filter="url(#filter1_i_15_3)">
<rect x="116" y="178" width="127" height="107" rx="19" fill="#FFAB70"/>
</g>
<g filter="url(#filter2_i_15_3)">
<rect x="116" y="255" width="28" height="76" rx="5.5" fill="url(#paint0_linear_15_3)"/>
</g>
<g filter="url(#filter3_i_15_3)">
<rect x="215" y="255" width="28" height="76" rx="5.5" fill="url(#paint1_linear_15_3)"/>
</g>
<g filter="url(#filter4_di_15_3)">
<rect x="115" y="317.755" width="30.0408" height="14.3673" rx="4.5" fill="#C05B13"/>
<circle cx="137.204" cy="329.51" r="1.30612" fill="white"/>
<circle cx="121.531" cy="329.51" r="1.30612" fill="white"/>
<circle cx="131.98" cy="328.204" r="1.30612" fill="white"/>
<circle cx="126.755" cy="328.204" r="1.30612" fill="white"/>
</g>
<g filter="url(#filter5_di_15_3)">
<rect x="214" y="317.755" width="30.0408" height="14.3673" rx="4.5" fill="#C05B13"/>
<circle cx="236.204" cy="329.51" r="1.30612" fill="white"/>
<circle cx="220.531" cy="329.51" r="1.30612" fill="white"/>
<circle cx="230.98" cy="328.204" r="1.30612" fill="white"/>
<circle cx="225.755" cy="328.204" r="1.30612" fill="white"/>
</g>
<g filter="url(#filter6_d_15_3)">
<g filter="url(#filter7_i_15_3)">
<rect x="251" y="101.714" width="45" height="166" rx="22.5" transform="rotate(-7.29483 251 101.714)" fill="#FAA86E"/>
</g>
<g filter="url(#filter8_i_15_3)">
<rect width="45" height="166" rx="22.5" transform="matrix(-0.991906 -0.126975 -0.126975 0.991906 101 101.714)" fill="#FAA86E"/>
</g>
</g>
<g filter="url(#filter9_di_15_3)">
<path d="M185.834 285.017C186.829 286.989 186.041 289.433 183.924 290.064C181.934 290.656 179.865 290.973 177.776 290.998C175.687 291.024 173.611 290.758 171.607 290.214C169.475 289.636 168.627 287.212 169.573 285.216L173.997 275.887C175.423 272.88 179.683 272.827 181.183 275.798L185.834 285.017Z" fill="url(#paint2_linear_15_3)"/>
</g>
<g filter="url(#filter10_d_15_3)">
<path d="M228.889 233.26C236.628 245.356 233.135 261.745 219.654 266.69C206.871 271.379 193.32 273.871 179.578 273.995C165.835 274.119 152.242 271.872 139.377 267.414C125.808 262.713 122.02 246.39 129.54 234.156L156.791 189.819C166.834 173.48 190.507 173.267 200.843 189.422L228.889 233.26Z" fill="#CC2727"/>
</g>
<g filter="url(#filter11_d_15_3)">
<circle cx="178.5" cy="154.5" r="111.5" fill="#C05B13"/>
</g>
<path d="M152.195 174C154.297 174 156.027 175.711 155.742 177.793C155.417 180.166 154.789 182.493 153.869 184.715C152.461 188.112 150.399 191.199 147.799 193.799C145.199 196.399 142.112 198.461 138.715 199.869C135.318 201.276 131.677 202 128 202C124.323 202 120.682 201.276 117.285 199.869C113.888 198.461 110.801 196.399 108.201 193.799C105.601 191.199 103.539 188.112 102.131 184.715C101.211 182.493 100.583 180.166 100.258 177.793C99.9734 175.711 101.703 174 103.805 174V174C105.906 174 107.573 175.718 107.963 177.783C108.223 179.157 108.624 180.505 109.161 181.803C110.186 184.277 111.688 186.525 113.582 188.418C115.475 190.312 117.723 191.814 120.197 192.839C122.671 193.863 125.322 194.391 128 194.391C130.678 194.391 133.329 193.863 135.803 192.839C138.277 191.814 140.525 190.312 142.418 188.418C144.312 186.525 145.814 184.277 146.839 181.803C147.376 180.505 147.777 179.157 148.037 177.783C148.427 175.718 150.094 174 152.195 174V174Z" fill="#282828"/>
<path d="M248.195 174C250.297 174 252.027 175.711 251.742 177.793C251.417 180.166 250.789 182.493 249.869 184.715C248.462 188.112 246.399 191.199 243.799 193.799C241.199 196.399 238.112 198.461 234.715 199.869C231.318 201.276 227.677 202 224 202C220.323 202 216.682 201.276 213.285 199.869C209.888 198.461 206.801 196.399 204.201 193.799C201.601 191.199 199.539 188.112 198.131 184.715C197.211 182.493 196.583 180.166 196.258 177.793C195.973 175.711 197.703 174 199.805 174V174C201.906 174 203.573 175.718 203.963 177.783C204.223 179.157 204.624 180.505 205.161 181.803C206.186 184.277 207.688 186.525 209.582 188.418C211.475 190.312 213.723 191.814 216.197 192.839C218.671 193.863 221.322 194.391 224 194.391C226.678 194.391 229.329 193.863 231.803 192.839C234.277 191.814 236.525 190.312 238.418 188.418C240.312 186.525 241.814 184.277 242.839 181.803C243.376 180.505 243.777 179.157 244.037 177.783C244.427 175.718 246.094 174 248.195 174V174Z" fill="#282828"/>
<g filter="url(#filter12_d_15_3)">
<rect x="158" y="236" width="41" height="30" rx="15" fill="#C05B13"/>
</g>
<g filter="url(#filter13_d_15_3)">
<rect x="141" y="202" width="76" height="55" rx="27.5" fill="#C05B13"/>
</g>
<rect x="172" y="234" width="14" height="10" rx="5" fill="#282828"/>
<g filter="url(#filter14_d_15_3)">
<rect x="100" y="159.008" width="51" height="9" rx="4.5" transform="rotate(-19.4808 100 159.008)" fill="#C05B13"/>
</g>
<g filter="url(#filter15_d_15_3)">
<rect width="51" height="9" rx="4.5" transform="matrix(-0.942753 -0.333492 -0.333492 0.942753 251.082 159.008)" fill="#C05B13"/>
</g>
</g>
<defs>
<filter id="filter0_d_15_3" x="0.95874" y="22" width="350.083" height="363.122" filterUnits="userSpaceOnUse" color-interpolation-filters="sRGB">
<feFlood flood-opacity="0" result="BackgroundImageFix"/>
<feColorMatrix in="SourceAlpha" type="matrix" values="0 0 0 0 0 0 0 0 0 0 0 0 0 0 0 0 0 0 127 0" result="hardAlpha"/>
<feOffset dy="16"/>
<feGaussianBlur stdDeviation="18.5"/>
<feComposite in2="hardAlpha" operator="out"/>
<feColorMatrix type="matrix" values="0 0 0 0 0 0 0 0 0 0 0 0 0 0 0 0 0 0 0.25 0"/>
<feBlend mode="normal" in2="BackgroundImageFix" result="effect1_dropShadow_15_3"/>
<feBlend mode="normal" in="SourceGraphic" in2="effect1_dropShadow_15_3" result="shape"/>
</filter>
<filter id="filter1_i_15_3" x="116" y="178" width="127" height="117" filterUnits="userSpaceOnUse" color-interpolation-filters="sRGB">
<feFlood flood-opacity="0" result="BackgroundImageFix"/>
<feBlend mode="normal" in="SourceGraphic" in2="BackgroundImageFix" result="shape"/>
<feColorMatrix in="SourceAlpha" type="matrix" values="0 0 0 0 0 0 0 0 0 0 0 0 0 0 0 0 0 0 127 0" result="hardAlpha"/>
<feMorphology radius="10" operator="erode" in="SourceAlpha" result="effect1_innerShadow_15_3"/>
<feOffset dy="41"/>
<feComposite in2="hardAlpha" operator="arithmetic" k2="-1" k3="1"/>
<feColorMatrix type="matrix" values="0 0 0 0 0.752941 0 0 0 0 0.356863 0 0 0 0 0.0745098 0 0 0 1 0"/>
<feBlend mode="normal" in2="shape" result="effect1_innerShadow_15_3"/>
</filter>
<filter id="filter2_i_15_3" x="116" y="255" width="28" height="76" filterUnits="userSpaceOnUse" color-interpolation-filters="sRGB">
<feFlood flood-opacity="0" result="BackgroundImageFix"/>
<feBlend mode="normal" in="SourceGraphic" in2="BackgroundImageFix" result="shape"/>
<feColorMatrix in="SourceAlpha" type="matrix" values="0 0 0 0 0 0 0 0 0 0 0 0 0 0 0 0 0 0 127 0" result="hardAlpha"/>
<feMorphology radius="157" operator="dilate" in="SourceAlpha" result="effect1_innerShadow_15_3"/>
<feOffset dx="167"/>
<feComposite in2="hardAlpha" operator="arithmetic" k2="-1" k3="1"/>
<feColorMatrix type="matrix" values="0 0 0 0 0.752941 0 0 0 0 0.356863 0 0 0 0 0.0745098 0 0 0 1 0"/>
<feBlend mode="normal" in2="shape" result="effect1_innerShadow_15_3"/>
</filter>
<filter id="filter3_i_15_3" x="215" y="255" width="28" height="76" filterUnits="userSpaceOnUse" color-interpolation-filters="sRGB">
<feFlood flood-opacity="0" result="BackgroundImageFix"/>
<feBlend mode="normal" in="SourceGraphic" in2="BackgroundImageFix" result="shape"/>
<feColorMatrix in="SourceAlpha" type="matrix" values="0 0 0 0 0 0 0 0 0 0 0 0 0 0 0 0 0 0 127 0" result="hardAlpha"/>
<feMorphology radius="157" operator="dilate" in="SourceAlpha" result="effect1_innerShadow_15_3"/>
<feOffset dx="-167"/>
<feComposite in2="hardAlpha" operator="arithmetic" k2="-1" k3="1"/>
<feColorMatrix type="matrix" values="0 0 0 0 0.752941 0 0 0 0 0.356863 0 0 0 0 0.0745098 0 0 0 1 0"/>
<feBlend mode="normal" in2="shape" result="effect1_innerShadow_15_3"/>
</filter>
<filter id="filter4_di_15_3" x="111" y="312.755" width="38.0408" height="22.3674" filterUnits="userSpaceOnUse" color-interpolation-filters="sRGB">
<feFlood flood-opacity="0" result="BackgroundImageFix"/>
<feColorMatrix in="SourceAlpha" type="matrix" values="0 0 0 0 0 0 0 0 0 0 0 0 0 0 0 0 0 0 127 0" result="hardAlpha"/>
<feOffset dy="-1"/>
<feGaussianBlur stdDeviation="2"/>
<feComposite in2="hardAlpha" operator="out"/>
<feColorMatrix type="matrix" values="0 0 0 0 0 0 0 0 0 0 0 0 0 0 0 0 0 0 0.15 0"/>
<feBlend mode="normal" in2="BackgroundImageFix" result="effect1_dropShadow_15_3"/>
<feBlend mode="normal" in="SourceGraphic" in2="effect1_dropShadow_15_3" result="shape"/>
<feColorMatrix in="SourceAlpha" type="matrix" values="0 0 0 0 0 0 0 0 0 0 0 0 0 0 0 0 0 0 127 0" result="hardAlpha"/>
<feOffset dy="-4"/>
<feGaussianBlur stdDeviation="2"/>
<feComposite in2="hardAlpha" operator="arithmetic" k2="-1" k3="1"/>
<feColorMatrix type="matrix" values="0 0 0 0 0 0 0 0 0 0 0 0 0 0 0 0 0 0 0.25 0"/>
<feBlend mode="normal" in2="shape" result="effect2_innerShadow_15_3"/>
</filter>
<filter id="filter5_di_15_3" x="210" y="312.755" width="38.0408" height="22.3674" filterUnits="userSpaceOnUse" color-interpolation-filters="sRGB">
<feFlood flood-opacity="0" result="BackgroundImageFix"/>
<feColorMatrix in="SourceAlpha" type="matrix" values="0 0 0 0 0 0 0 0 0 0 0 0 0 0 0 0 0 0 127 0" result="hardAlpha"/>
<feOffset dy="-1"/>
<feGaussianBlur stdDeviation="2"/>
<feComposite in2="hardAlpha" operator="out"/>
<feColorMatrix type="matrix" values="0 0 0 0 0 0 0 0 0 0 0 0 0 0 0 0 0 0 0.15 0"/>
<feBlend mode="normal" in2="BackgroundImageFix" result="effect1_dropShadow_15_3"/>
<feBlend mode="normal" in="SourceGraphic" in2="effect1_dropShadow_15_3" result="shape"/>
<feColorMatrix in="SourceAlpha" type="matrix" values="0 0 0 0 0 0 0 0 0 0 0 0 0 0 0 0 0 0 127 0" result="hardAlpha"/>
<feOffset dy="-4"/>
<feGaussianBlur stdDeviation="2"/>
<feComposite in2="hardAlpha" operator="arithmetic" k2="-1" k3="1"/>
<feColorMatrix type="matrix" values="0 0 0 0 0 0 0 0 0 0 0 0 0 0 0 0 0 0 0.25 0"/>
<feBlend mode="normal" in2="shape" result="effect2_innerShadow_15_3"/>
</filter>
<filter id="filter6_d_15_3" x="0.95874" y="77.6724" width="350.083" height="239.026" filterUnits="userSpaceOnUse" color-interpolation-filters="sRGB">
<feFlood flood-opacity="0" result="BackgroundImageFix"/>
<feColorMatrix in="SourceAlpha" type="matrix" values="0 0 0 0 0 0 0 0 0 0 0 0 0 0 0 0 0 0 127 0" result="hardAlpha"/>
<feOffset dy="16"/>
<feGaussianBlur stdDeviation="18.5"/>
<feComposite in2="hardAlpha" operator="out"/>
<feColorMatrix type="matrix" values="0 0 0 0 0 0 0 0 0 0 0 0 0 0 0 0 0 0 0.25 0"/>
<feBlend mode="normal" in2="BackgroundImageFix" result="effect1_dropShadow_15_3"/>
<feBlend mode="normal" in="SourceGraphic" in2="effect1_dropShadow_15_3" result="shape"/>
</filter>
<filter id="filter7_i_15_3" x="247.672" y="98.6724" width="66.3689" height="171.026" filterUnits="userSpaceOnUse" color-interpolation-filters="sRGB">
<feFlood flood-opacity="0" result="BackgroundImageFix"/>
<feBlend mode="normal" in="SourceGraphic" in2="BackgroundImageFix" result="shape"/>
<feColorMatrix in="SourceAlpha" type="matrix" values="0 0 0 0 0 0 0 0 0 0 0 0 0 0 0 0 0 0 127 0" result="hardAlpha"/>
<feMorphology radius="6" operator="erode" in="SourceAlpha" result="effect1_innerShadow_15_3"/>
<feOffset dx="-19" dy="21"/>
<feComposite in2="hardAlpha" operator="arithmetic" k2="-1" k3="1"/>
<feColorMatrix type="matrix" values="0 0 0 0 0.752941 0 0 0 0 0.356863 0 0 0 0 0.0745098 0 0 0 1 0"/>
<feBlend mode="normal" in2="shape" result="effect1_innerShadow_15_3"/>
</filter>
<filter id="filter8_i_15_3" x="37.9587" y="98.6724" width="66.3689" height="171.026" filterUnits="userSpaceOnUse" color-interpolation-filters="sRGB">
<feFlood flood-opacity="0" result="BackgroundImageFix"/>
<feBlend mode="normal" in="SourceGraphic" in2="BackgroundImageFix" result="shape"/>
<feColorMatrix in="SourceAlpha" type="matrix" values="0 0 0 0 0 0 0 0 0 0 0 0 0 0 0 0 0 0 127 0" result="hardAlpha"/>
<feMorphology radius="6" operator="erode" in="SourceAlpha" result="effect1_innerShadow_15_3"/>
<feOffset dx="19" dy="21"/>
<feComposite in2="hardAlpha" operator="arithmetic" k2="-1" k3="1"/>
<feColorMatrix type="matrix" values="0 0 0 0 0.752941 0 0 0 0 0.356863 0 0 0 0 0.0745098 0 0 0 1 0"/>
<feBlend mode="normal" in2="shape" result="effect1_innerShadow_15_3"/>
</filter>
<filter id="filter9_di_15_3" x="169.189" y="273.6" width="17.0719" height="17.3996" filterUnits="userSpaceOnUse" color-interpolation-filters="sRGB">
<feFlood flood-opacity="0" result="BackgroundImageFix"/>
<feColorMatrix in="SourceAlpha" type="matrix" values="0 0 0 0 0 0 0 0 0 0 0 0 0 0 0 0 0 0 127 0" result="hardAlpha"/>
<feMorphology radius="4" operator="erode" in="SourceAlpha" result="effect1_dropShadow_15_3"/>
<feOffset/>
<feGaussianBlur stdDeviation="2"/>
<feComposite in2="hardAlpha" operator="out"/>
<feColorMatrix type="matrix" values="0 0 0 0 0 0 0 0 0 0 0 0 0 0 0 0 0 0 0.25 0"/>
<feBlend mode="normal" in2="BackgroundImageFix" result="effect1_dropShadow_15_3"/>
<feBlend mode="normal" in="SourceGraphic" in2="effect1_dropShadow_15_3" result="shape"/>
<feColorMatrix in="SourceAlpha" type="matrix" values="0 0 0 0 0 0 0 0 0 0 0 0 0 0 0 0 0 0 127 0" result="hardAlpha"/>
<feOffset dy="-1"/>
<feComposite in2="hardAlpha" operator="arithmetic" k2="-1" k3="1"/>
<feColorMatrix type="matrix" values="0 0 0 0 0 0 0 0 0 0 0 0 0 0 0 0 0 0 0.25 0"/>
<feBlend mode="normal" in2="shape" result="effect2_innerShadow_15_3"/>
</filter>
<filter id="filter10_d_15_3" x="123.731" y="177.434" width="111.209" height="100.566" filterUnits="userSpaceOnUse" color-interpolation-filters="sRGB">
<feFlood flood-opacity="0" result="BackgroundImageFix"/>
<feColorMatrix in="SourceAlpha" type="matrix" values="0 0 0 0 0 0 0 0 0 0 0 0 0 0 0 0 0 0 127 0" result="hardAlpha"/>
<feOffset dy="2"/>
<feGaussianBlur stdDeviation="1"/>
<feComposite in2="hardAlpha" operator="out"/>
<feColorMatrix type="matrix" values="0 0 0 0 0 0 0 0 0 0 0 0 0 0 0 0 0 0 0.25 0"/>
<feBlend mode="normal" in2="BackgroundImageFix" result="effect1_dropShadow_15_3"/>
<feBlend mode="normal" in="SourceGraphic" in2="effect1_dropShadow_15_3" result="shape"/>
</filter>
<filter id="filter11_d_15_3" x="10.9999" y="0" width="335" height="335" filterUnits="userSpaceOnUse" color-interpolation-filters="sRGB">
<feFlood flood-opacity="0" result="BackgroundImageFix"/>
<feColorMatrix in="SourceAlpha" type="matrix" values="0 0 0 0 0 0 0 0 0 0 0 0 0 0 0 0 0 0 127 0" result="hardAlpha"/>
<feOffset dy="13"/>
<feGaussianBlur stdDeviation="28"/>
<feComposite in2="hardAlpha" operator="out"/>
<feColorMatrix type="matrix" values="0 0 0 0 0 0 0 0 0 0 0 0 0 0 0 0 0 0 0.25 0"/>
<feBlend mode="normal" in2="BackgroundImageFix" result="effect1_dropShadow_15_3"/>
<feBlend mode="normal" in="SourceGraphic" in2="effect1_dropShadow_15_3" result="shape"/>
</filter>
<filter id="filter12_d_15_3" x="154" y="236" width="49" height="38" filterUnits="userSpaceOnUse" color-interpolation-filters="sRGB">
<feFlood flood-opacity="0" result="BackgroundImageFix"/>
<feColorMatrix in="SourceAlpha" type="matrix" values="0 0 0 0 0 0 0 0 0 0 0 0 0 0 0 0 0 0 127 0" result="hardAlpha"/>
<feOffset dy="4"/>
<feGaussianBlur stdDeviation="2"/>
<feComposite in2="hardAlpha" operator="out"/>
<feColorMatrix type="matrix" values="0 0 0 0 0 0 0 0 0 0 0 0 0 0 0 0 0 0 0.25 0"/>
<feBlend mode="normal" in2="BackgroundImageFix" result="effect1_dropShadow_15_3"/>
<feBlend mode="normal" in="SourceGraphic" in2="effect1_dropShadow_15_3" result="shape"/>
</filter>
<filter id="filter13_d_15_3" x="137" y="202" width="84" height="63" filterUnits="userSpaceOnUse" color-interpolation-filters="sRGB">
<feFlood flood-opacity="0" result="BackgroundImageFix"/>
<feColorMatrix in="SourceAlpha" type="matrix" values="0 0 0 0 0 0 0 0 0 0 0 0 0 0 0 0 0 0 127 0" result="hardAlpha"/>
<feOffset dy="4"/>
<feGaussianBlur stdDeviation="2"/>
<feComposite in2="hardAlpha" operator="out"/>
<feColorMatrix type="matrix" values="0 0 0 0 0 0 0 0 0 0 0 0 0 0 0 0 0 0 0.25 0"/>
<feBlend mode="normal" in2="BackgroundImageFix" result="effect1_dropShadow_15_3"/>
<feBlend mode="normal" in="SourceGraphic" in2="effect1_dropShadow_15_3" result="shape"/>
</filter>
<filter id="filter14_d_15_3" x="91.2419" y="137.242" width="68.5981" height="43.0091" filterUnits="userSpaceOnUse" color-interpolation-filters="sRGB">
<feFlood flood-opacity="0" result="BackgroundImageFix"/>
<feColorMatrix in="SourceAlpha" type="matrix" values="0 0 0 0 0 0 0 0 0 0 0 0 0 0 0 0 0 0 127 0" result="hardAlpha"/>
<feOffset dy="4"/>
<feGaussianBlur stdDeviation="5"/>
<feComposite in2="hardAlpha" operator="out"/>
<feColorMatrix type="matrix" values="0 0 0 0 0 0 0 0 0 0 0 0 0 0 0 0 0 0 0.25 0"/>
<feBlend mode="normal" in2="BackgroundImageFix" result="effect1_dropShadow_15_3"/>
<feBlend mode="normal" in="SourceGraphic" in2="effect1_dropShadow_15_3" result="shape"/>
</filter>
<filter id="filter15_d_15_3" x="191.242" y="137.242" width="68.5981" height="43.0091" filterUnits="userSpaceOnUse" color-interpolation-filters="sRGB">
<feFlood flood-opacity="0" result="BackgroundImageFix"/>
<feColorMatrix in="SourceAlpha" type="matrix" values="0 0 0 0 0 0 0 0 0 0 0 0 0 0 0 0 0 0 127 0" result="hardAlpha"/>
<feOffset dy="4"/>
<feGaussianBlur stdDeviation="5"/>
<feComposite in2="hardAlpha" operator="out"/>
<feColorMatrix type="matrix" values="0 0 0 0 0 0 0 0 0 0 0 0 0 0 0 0 0 0 0.25 0"/>
<feBlend mode="normal" in2="BackgroundImageFix" result="effect1_dropShadow_15_3"/>
<feBlend mode="normal" in="SourceGraphic" in2="effect1_dropShadow_15_3" result="shape"/>
</filter>
<linearGradient id="paint0_linear_15_3" x1="116" y1="293" x2="144" y2="293" gradientUnits="userSpaceOnUse">
<stop offset="0.474152" stop-color="#FFAB70"/>
<stop offset="0.480238" stop-color="#FFAB70"/>
</linearGradient>
<linearGradient id="paint1_linear_15_3" x1="215" y1="293" x2="243" y2="293" gradientUnits="userSpaceOnUse">
<stop offset="0.474152" stop-color="#FFAB70"/>
<stop offset="0.480238" stop-color="#FFAB70"/>
</linearGradient>
<linearGradient id="paint2_linear_15_3" x1="171" y1="281.5" x2="187" y2="288" gradientUnits="userSpaceOnUse">
<stop stop-color="#FFDE32"/>
<stop offset="0.0997551" stop-color="#FFDE32"/>
<stop offset="0.141385" stop-color="white"/>
<stop offset="0.171875" stop-color="white"/>
<stop offset="0.171975" stop-color="white"/>
<stop offset="0.212597" stop-color="#FFDE32"/>
</linearGradient>
</defs>
</svg>
