<svg width="706" height="1158" viewBox="0 0 706 1158" fill="none" xmlns="http://www.w3.org/2000/svg">
<g filter="url(#filter0_d_15_3)">
<g filter="url(#filter1_i_15_3)">
<rect x="262" y="141" width="243" height="238" rx="39" fill="#432B19"/>
</g>
<g filter="url(#filter2_i_15_3)">
<path d="M181.511 525.148C175.898 531.973 165.815 532.954 158.99 527.341L156.673 525.435C148.569 518.769 147.404 506.795 154.07 498.691L250.631 381.303L279.978 405.444L181.511 525.148Z" fill="#FFDFBA"/>
<path d="M148.532 521.094C153.101 528.658 162.937 531.086 170.5 526.517L173.068 524.966C182.05 519.54 184.933 507.86 179.507 498.878L121.916 403.539L89.39 423.187L148.532 521.094Z" fill="#FFDFBA"/>
<path d="M221.22 414.761C216.102 410.551 215.366 402.989 219.576 397.871L257.694 351.534C266.115 341.298 281.239 339.826 291.476 348.247L322.366 373.659L269.002 438.53C264.791 443.648 257.229 444.384 252.111 440.173L221.22 414.761Z" fill="#8CC572"/>
<rect x="69.4971" y="370.319" width="45" height="68" rx="22.5" transform="rotate(-16.9649 69.4971 370.319)" fill="#FFDFBA"/>
<rect width="17.1814" height="25.2946" rx="8.59072" transform="matrix(-0.855842 -0.517237 -0.517237 0.855842 136.283 392.392)" fill="#FFDFBA"/>
</g>
<g filter="url(#filter3_i_15_3)">
<path d="M584.86 486.204C591.024 492.535 590.889 502.664 584.558 508.829L582.409 510.922C574.891 518.242 562.862 518.082 555.541 510.564L449.501 401.663L476.726 375.153L584.86 486.204Z" fill="#FFDFBA"/>
<path d="M553.876 487.354C548.974 494.706 550.96 504.64 558.312 509.542L560.808 511.206C569.538 517.028 581.335 514.67 587.157 505.939L652.81 407.479L621.194 386.398L553.876 487.354Z" fill="#FFDFBA"/>
<path d="M515.54 412.113C520.429 407.639 520.766 400.048 516.292 395.159L475.789 350.893C466.841 341.114 451.66 340.44 441.881 349.388L430.077 360.189C420.298 369.137 419.624 384.318 428.572 394.097L469.075 438.363C473.549 443.252 481.14 443.589 486.029 439.115L515.54 412.113Z" fill="#8CC572"/>
<g filter="url(#filter4_i_15_3)">
<rect x="606.983" y="372.145" width="17.1814" height="25.2946" rx="8.59072" transform="rotate(-18.488 606.983 372.145)" fill="#FFDFBA"/>
</g>
<rect width="45" height="68" rx="22.5" transform="matrix(-0.869288 -0.494306 -0.494306 0.869288 676.983 365.244)" fill="#FFDFBA"/>
</g>
<rect x="251" y="343" width="231" height="386" rx="25" fill="url(#paint0_linear_15_3)"/>
<g filter="url(#filter5_i_15_3)">
<path d="M251 693H482V729H251V693Z" fill="#353535"/>
<path d="M251 729H338V1068.5C338 1088.66 321.658 1105 301.5 1105H287.5C267.342 1105 251 1088.66 251 1068.5V729Z" fill="#353535"/>
<g filter="url(#filter6_ii_15_3)">
<path d="M338.5 1097.83V1036.86C338.5 1035.08 337.835 1033.36 336.634 1032.04C335.275 1030.54 333.349 1029.69 331.329 1029.69H314.783C312.266 1029.69 309.754 1029.47 307.275 1029.03L269.892 1022.4C266.46 1021.79 263.448 1019.75 261.606 1016.79L260.17 1014.49C258.82 1012.32 256.447 1011 253.893 1011C249.81 1011 246.5 1014.31 246.5 1018.39V1028.87C246.5 1038.73 238.501 1046.73 228.634 1046.73H213.134C197.044 1046.73 184 1059.77 184 1075.87C184 1091.96 197.044 1105 213.134 1105H331.329C333.349 1105 335.275 1104.15 336.634 1102.65C337.835 1101.33 338.5 1099.61 338.5 1097.83Z" fill="#643B1E"/>
</g>
<path d="M395 729H482V1068.5C482 1088.66 465.658 1105 445.5 1105H431.5C411.342 1105 395 1088.66 395 1068.5V729Z" fill="#353535"/>
<g filter="url(#filter7_ii_15_3)">
<path d="M482.5 1097.83V1036.86C482.5 1035.08 481.835 1033.36 480.634 1032.04C479.275 1030.54 477.349 1029.69 475.329 1029.69H458.783C456.266 1029.69 453.754 1029.47 451.275 1029.03L413.892 1022.4C410.46 1021.79 407.448 1019.75 405.606 1016.79L404.17 1014.49C402.82 1012.32 400.447 1011 397.893 1011C393.81 1011 390.5 1014.31 390.5 1018.39V1028.87C390.5 1038.73 382.501 1046.73 372.634 1046.73H357.134C341.044 1046.73 328 1059.77 328 1075.87C328 1091.96 341.044 1105 357.134 1105H475.329C477.349 1105 479.275 1104.15 480.634 1102.65C481.835 1101.33 482.5 1099.61 482.5 1097.83Z" fill="#643B1E"/>
</g>
</g>
<g filter="url(#filter8_i_15_3)">
<path d="M334 297C334 293.686 336.686 291 340 291H380C383.314 291 386 293.686 386 297V341C386 355.359 374.359 367 360 367C345.641 367 334 355.359 334 341V297Z" fill="#FFDFBA"/>
</g>
<g filter="url(#filter9_i_15_3)">
<g filter="url(#filter10_i_15_3)">
<circle cx="238.5" cy="185.5" r="26.5" fill="#FFDFBA"/>
</g>
<g filter="url(#filter11_i_15_3)">
<circle cx="238.5" cy="185.5" r="12.5" fill="#FFDFBA"/>
</g>
</g>
<g filter="url(#filter12_i_15_3)">
<circle cx="360" cy="183" r="128" fill="#FFDFBA"/>
</g>
<path d="M442 133.5C471 181 464 324 464 324L473 327L502 256C502 256 518 127 484 73C450 19 267 6.99999 233 41C199 75 208 118 233 133.5C258 149 413 85.9999 442 133.5Z" fill="#643B1E"/>
<g filter="url(#filter13_i_15_3)">
<circle cx="473.5" cy="184.5" r="26.5" fill="#FFDFBA"/>
</g>
<g filter="url(#filter14_i_15_3)">
<circle cx="473.5" cy="184.5" r="12.5" fill="#FFDFBA"/>
</g>
<mask id="mask0_15_3" style="mask-type:alpha" maskUnits="userSpaceOnUse" x="233" y="122" width="183" height="73">
<path d="M233 122H415.937V195H233V122Z" fill="#C4C4C4"/>
</mask>
<g mask="url(#mask0_15_3)">
<g filter="url(#filter15_i_15_3)">
<circle cx="281.5" cy="185.5" r="27.5" fill="white"/>
</g>
<circle cx="281.5" cy="185.5" r="13.5" fill="#643B1E"/>
<g filter="url(#filter16_i_15_3)">
<circle cx="386.5" cy="185.5" r="27.5" fill="white"/>
</g>
<circle cx="386.5" cy="185.5" r="13.5" fill="#643B1E"/>
</g>
<path d="M359.035 253.183C360.921 255.908 360.253 259.682 357.322 261.228C350.193 264.987 342.232 266.981 334.114 267C325.995 267.018 318.025 265.06 310.879 261.333C307.941 259.801 307.256 256.03 309.129 253.296C311.003 250.562 314.723 249.914 317.718 251.334C322.81 253.749 328.4 255.012 334.086 254.999C339.772 254.986 345.356 253.698 350.438 251.26C353.426 249.826 357.15 250.458 359.035 253.183Z" fill="black"/>
</g>
<defs>
<filter id="filter0_d_15_3" x="38.0772" y="0.945236" width="667.729" height="1157.05" filterUnits="userSpaceOnUse" color-interpolation-filters="sRGB">
<feFlood flood-opacity="0" result="BackgroundImageFix"/>
<feColorMatrix in="SourceAlpha" type="matrix" values="0 0 0 0 0 0 0 0 0 0 0 0 0 0 0 0 0 0 127 0" result="hardAlpha"/>
<feOffset dy="16"/>
<feGaussianBlur stdDeviation="18.5"/>
<feComposite in2="hardAlpha" operator="out"/>
<feColorMatrix type="matrix" values="0 0 0 0 0 0 0 0 0 0 0 0 0 0 0 0 0 0 0.25 0"/>
<feBlend mode="normal" in2="BackgroundImageFix" result="effect1_dropShadow_15_3"/>
<feBlend mode="normal" in="SourceGraphic" in2="effect1_dropShadow_15_3" result="shape"/>
</filter>
<filter id="filter1_i_15_3" x="262" y="141" width="243" height="238" filterUnits="userSpaceOnUse" color-interpolation-filters="sRGB">
<feFlood flood-opacity="0" result="BackgroundImageFix"/>
<feBlend mode="normal" in="SourceGraphic" in2="BackgroundImageFix" result="shape"/>
<feColorMatrix in="SourceAlpha" type="matrix" values="0 0 0 0 0 0 0 0 0 0 0 0 0 0 0 0 0 0 127 0" result="hardAlpha"/>
<feOffset dx="-46" dy="40"/>
<feComposite in2="hardAlpha" operator="arithmetic" k2="-1" k3="1"/>
<feColorMatrix type="matrix" values="0 0 0 0 0.391667 0 0 0 0 0.231703 0 0 0 0 0.115868 0 0 0 1 0"/>
<feBlend mode="normal" in2="shape" result="effect1_innerShadow_15_3"/>
</filter>
<filter id="filter2_i_15_3" x="75.0772" y="329.781" width="250.289" height="201.204" filterUnits="userSpaceOnUse" color-interpolation-filters="sRGB">
<feFlood flood-opacity="0" result="BackgroundImageFix"/>
<feBlend mode="normal" in="SourceGraphic" in2="BackgroundImageFix" result="shape"/>
<feColorMatrix in="SourceAlpha" type="matrix" values="0 0 0 0 0 0 0 0 0 0 0 0 0 0 0 0 0 0 127 0" result="hardAlpha"/>
<feOffset dx="3" dy="-13"/>
<feGaussianBlur stdDeviation="14.5"/>
<feComposite in2="hardAlpha" operator="arithmetic" k2="-1" k3="1"/>
<feColorMatrix type="matrix" values="0 0 0 0 0 0 0 0 0 0 0 0 0 0 0 0 0 0 0.25 0"/>
<feBlend mode="normal" in2="shape" result="effect1_innerShadow_15_3"/>
</filter>
<filter id="filter3_i_15_3" x="422.278" y="339.094" width="258.528" height="177.215" filterUnits="userSpaceOnUse" color-interpolation-filters="sRGB">
<feFlood flood-opacity="0" result="BackgroundImageFix"/>
<feBlend mode="normal" in="SourceGraphic" in2="BackgroundImageFix" result="shape"/>
<feColorMatrix in="SourceAlpha" type="matrix" values="0 0 0 0 0 0 0 0 0 0 0 0 0 0 0 0 0 0 127 0" result="hardAlpha"/>
<feOffset dx="12" dy="-4"/>
<feGaussianBlur stdDeviation="13.5"/>
<feComposite in2="hardAlpha" operator="arithmetic" k2="-1" k3="1"/>
<feColorMatrix type="matrix" values="0 0 0 0 0 0 0 0 0 0 0 0 0 0 0 0 0 0 0.25 0"/>
<feBlend mode="normal" in2="shape" result="effect1_innerShadow_15_3"/>
</filter>
<filter id="filter4_i_15_3" x="609.262" y="368.975" width="19.7589" height="28.8805" filterUnits="userSpaceOnUse" color-interpolation-filters="sRGB">
<feFlood flood-opacity="0" result="BackgroundImageFix"/>
<feBlend mode="normal" in="SourceGraphic" in2="BackgroundImageFix" result="shape"/>
<feColorMatrix in="SourceAlpha" type="matrix" values="0 0 0 0 0 0 0 0 0 0 0 0 0 0 0 0 0 0 127 0" result="hardAlpha"/>
<feOffset dy="4"/>
<feGaussianBlur stdDeviation="7"/>
<feComposite in2="hardAlpha" operator="arithmetic" k2="-1" k3="1"/>
<feColorMatrix type="matrix" values="0 0 0 0 0.796078 0 0 0 0 0.572549 0 0 0 0 0.478431 0 0 0 0.25 0"/>
<feBlend mode="normal" in2="shape" result="effect1_innerShadow_15_3"/>
</filter>
<filter id="filter5_i_15_3" x="169" y="663" width="313.5" height="442" filterUnits="userSpaceOnUse" color-interpolation-filters="sRGB">
<feFlood flood-opacity="0" result="BackgroundImageFix"/>
<feBlend mode="normal" in="SourceGraphic" in2="BackgroundImageFix" result="shape"/>
<feColorMatrix in="SourceAlpha" type="matrix" values="0 0 0 0 0 0 0 0 0 0 0 0 0 0 0 0 0 0 127 0" result="hardAlpha"/>
<feOffset dx="-15" dy="-30"/>
<feGaussianBlur stdDeviation="16"/>
<feComposite in2="hardAlpha" operator="arithmetic" k2="-1" k3="1"/>
<feColorMatrix type="matrix" values="0 0 0 0 0 0 0 0 0 0 0 0 0 0 0 0 0 0 0.25 0"/>
<feBlend mode="normal" in2="shape" result="effect1_innerShadow_15_3"/>
</filter>
<filter id="filter6_ii_15_3" x="168" y="985" width="170.5" height="120" filterUnits="userSpaceOnUse" color-interpolation-filters="sRGB">
<feFlood flood-opacity="0" result="BackgroundImageFix"/>
<feBlend mode="normal" in="SourceGraphic" in2="BackgroundImageFix" result="shape"/>
<feColorMatrix in="SourceAlpha" type="matrix" values="0 0 0 0 0 0 0 0 0 0 0 0 0 0 0 0 0 0 127 0" result="hardAlpha"/>
<feOffset dy="-15"/>
<feComposite in2="hardAlpha" operator="arithmetic" k2="-1" k3="1"/>
<feColorMatrix type="matrix" values="0 0 0 0 0 0 0 0 0 0 0 0 0 0 0 0 0 0 0.25 0"/>
<feBlend mode="normal" in2="shape" result="effect1_innerShadow_15_3"/>
<feColorMatrix in="SourceAlpha" type="matrix" values="0 0 0 0 0 0 0 0 0 0 0 0 0 0 0 0 0 0 127 0" result="hardAlpha"/>
<feOffset dx="-16" dy="-26"/>
<feGaussianBlur stdDeviation="15"/>
<feComposite in2="hardAlpha" operator="arithmetic" k2="-1" k3="1"/>
<feColorMatrix type="matrix" values="0 0 0 0 0 0 0 0 0 0 0 0 0 0 0 0 0 0 0.25 0"/>
<feBlend mode="normal" in2="effect1_innerShadow_15_3" result="effect2_innerShadow_15_3"/>
</filter>
<filter id="filter7_ii_15_3" x="312" y="985" width="170.5" height="120" filterUnits="userSpaceOnUse" color-interpolation-filters="sRGB">
<feFlood flood-opacity="0" result="BackgroundImageFix"/>
<feBlend mode="normal" in="SourceGraphic" in2="BackgroundImageFix" result="shape"/>
<feColorMatrix in="SourceAlpha" type="matrix" values="0 0 0 0 0 0 0 0 0 0 0 0 0 0 0 0 0 0 127 0" result="hardAlpha"/>
<feOffset dy="-15"/>
<feComposite in2="hardAlpha" operator="arithmetic" k2="-1" k3="1"/>
<feColorMatrix type="matrix" values="0 0 0 0 0 0 0 0 0 0 0 0 0 0 0 0 0 0 0.25 0"/>
<feBlend mode="normal" in2="shape" result="effect1_innerShadow_15_3"/>
<feColorMatrix in="SourceAlpha" type="matrix" values="0 0 0 0 0 0 0 0 0 0 0 0 0 0 0 0 0 0 127 0" result="hardAlpha"/>
<feOffset dx="-16" dy="-26"/>
<feGaussianBlur stdDeviation="15"/>
<feComposite in2="hardAlpha" operator="arithmetic" k2="-1" k3="1"/>
<feColorMatrix type="matrix" values="0 0 0 0 0 0 0 0 0 0 0 0 0 0 0 0 0 0 0.25 0"/>
<feBlend mode="normal" in2="effect1_innerShadow_15_3" result="effect2_innerShadow_15_3"/>
</filter>
<filter id="filter8_i_15_3" x="334" y="291" width="52" height="90" filterUnits="userSpaceOnUse" color-interpolation-filters="sRGB">
<feFlood flood-opacity="0" result="BackgroundImageFix"/>
<feBlend mode="normal" in="SourceGraphic" in2="BackgroundImageFix" result="shape"/>
<feColorMatrix in="SourceAlpha" type="matrix" values="0 0 0 0 0 0 0 0 0 0 0 0 0 0 0 0 0 0 127 0" result="hardAlpha"/>
<feOffset dy="34"/>
<feGaussianBlur stdDeviation="7"/>
<feComposite in2="hardAlpha" operator="arithmetic" k2="-1" k3="1"/>
<feColorMatrix type="matrix" values="0 0 0 0 0.796078 0 0 0 0 0.572549 0 0 0 0 0.478431 0 0 0 0.6 0"/>
<feBlend mode="normal" in2="shape" result="effect1_innerShadow_15_3"/>
</filter>
<filter id="filter9_i_15_3" x="212" y="154" width="58" height="58" filterUnits="userSpaceOnUse" color-interpolation-filters="sRGB">
<feFlood flood-opacity="0" result="BackgroundImageFix"/>
<feBlend mode="normal" in="SourceGraphic" in2="BackgroundImageFix" result="shape"/>
<feColorMatrix in="SourceAlpha" type="matrix" values="0 0 0 0 0 0 0 0 0 0 0 0 0 0 0 0 0 0 127 0" result="hardAlpha"/>
<feOffset dx="5" dy="-5"/>
<feGaussianBlur stdDeviation="33.5"/>
<feComposite in2="hardAlpha" operator="arithmetic" k2="-1" k3="1"/>
<feColorMatrix type="matrix" values="0 0 0 0 0.796078 0 0 0 0 0.572549 0 0 0 0 0.478431 0 0 0 0.29 0"/>
<feBlend mode="normal" in2="shape" result="effect1_innerShadow_15_3"/>
</filter>
<filter id="filter10_i_15_3" x="212" y="155" width="57" height="57" filterUnits="userSpaceOnUse" color-interpolation-filters="sRGB">
<feFlood flood-opacity="0" result="BackgroundImageFix"/>
<feBlend mode="normal" in="SourceGraphic" in2="BackgroundImageFix" result="shape"/>
<feColorMatrix in="SourceAlpha" type="matrix" values="0 0 0 0 0 0 0 0 0 0 0 0 0 0 0 0 0 0 127 0" result="hardAlpha"/>
<feOffset dx="4" dy="-4"/>
<feGaussianBlur stdDeviation="2"/>
<feComposite in2="hardAlpha" operator="arithmetic" k2="-1" k3="1"/>
<feColorMatrix type="matrix" values="0 0 0 0 0.796078 0 0 0 0 0.572549 0 0 0 0 0.478431 0 0 0 0.25 0"/>
<feBlend mode="normal" in2="shape" result="effect1_innerShadow_15_3"/>
</filter>
<filter id="filter11_i_15_3" x="226" y="173" width="29" height="25" filterUnits="userSpaceOnUse" color-interpolation-filters="sRGB">
<feFlood flood-opacity="0" result="BackgroundImageFix"/>
<feBlend mode="normal" in="SourceGraphic" in2="BackgroundImageFix" result="shape"/>
<feColorMatrix in="SourceAlpha" type="matrix" values="0 0 0 0 0 0 0 0 0 0 0 0 0 0 0 0 0 0 127 0" result="hardAlpha"/>
<feOffset dx="8"/>
<feGaussianBlur stdDeviation="2"/>
<feComposite in2="hardAlpha" operator="arithmetic" k2="-1" k3="1"/>
<feColorMatrix type="matrix" values="0 0 0 0 0.796078 0 0 0 0 0.572549 0 0 0 0 0.478431 0 0 0 0.25 0"/>
<feBlend mode="normal" in2="shape" result="effect1_innerShadow_15_3"/>
</filter>
<filter id="filter12_i_15_3" x="232" y="55" width="278" height="256" filterUnits="userSpaceOnUse" color-interpolation-filters="sRGB">
<feFlood flood-opacity="0" result="BackgroundImageFix"/>
<feBlend mode="normal" in="SourceGraphic" in2="BackgroundImageFix" result="shape"/>
<feColorMatrix in="SourceAlpha" type="matrix" values="0 0 0 0 0 0 0 0 0 0 0 0 0 0 0 0 0 0 127 0" result="hardAlpha"/>
<feOffset dx="22"/>
<feGaussianBlur stdDeviation="28"/>
<feComposite in2="hardAlpha" operator="arithmetic" k2="-1" k3="1"/>
<feColorMatrix type="matrix" values="0 0 0 0 0.795833 0 0 0 0 0.573 0 0 0 0 0.4775 0 0 0 0.29 0"/>
<feBlend mode="normal" in2="shape" result="effect1_innerShadow_15_3"/>
</filter>
<filter id="filter13_i_15_3" x="443" y="154" width="57" height="57" filterUnits="userSpaceOnUse" color-interpolation-filters="sRGB">
<feFlood flood-opacity="0" result="BackgroundImageFix"/>
<feBlend mode="normal" in="SourceGraphic" in2="BackgroundImageFix" result="shape"/>
<feColorMatrix in="SourceAlpha" type="matrix" values="0 0 0 0 0 0 0 0 0 0 0 0 0 0 0 0 0 0 127 0" result="hardAlpha"/>
<feOffset dx="-4" dy="-4"/>
<feGaussianBlur stdDeviation="2"/>
<feComposite in2="hardAlpha" operator="arithmetic" k2="-1" k3="1"/>
<feColorMatrix type="matrix" values="0 0 0 0 0.796078 0 0 0 0 0.572549 0 0 0 0 0.478431 0 0 0 0.25 0"/>
<feBlend mode="normal" in2="shape" result="effect1_innerShadow_15_3"/>
</filter>
<filter id="filter14_i_15_3" x="457" y="172" width="29" height="25" filterUnits="userSpaceOnUse" color-interpolation-filters="sRGB">
<feFlood flood-opacity="0" result="BackgroundImageFix"/>
<feBlend mode="normal" in="SourceGraphic" in2="BackgroundImageFix" result="shape"/>
<feColorMatrix in="SourceAlpha" type="matrix" values="0 0 0 0 0 0 0 0 0 0 0 0 0 0 0 0 0 0 127 0" result="hardAlpha"/>
<feOffset dx="-8"/>
<feGaussianBlur stdDeviation="2"/>
<feComposite in2="hardAlpha" operator="arithmetic" k2="-1" k3="1"/>
<feColorMatrix type="matrix" values="0 0 0 0 0.796078 0 0 0 0 0.572549 0 0 0 0 0.478431 0 0 0 0.25 0"/>
<feBlend mode="normal" in2="shape" result="effect1_innerShadow_15_3"/>
</filter>
<filter id="filter15_i_15_3" x="254" y="154" width="59" height="59" filterUnits="userSpaceOnUse" color-interpolation-filters="sRGB">
<feFlood flood-opacity="0" result="BackgroundImageFix"/>
<feBlend mode="normal" in="SourceGraphic" in2="BackgroundImageFix" result="shape"/>
<feColorMatrix in="SourceAlpha" type="matrix" values="0 0 0 0 0 0 0 0 0 0 0 0 0 0 0 0 0 0 127 0" result="hardAlpha"/>
<feOffset dx="4" dy="-4"/>
<feGaussianBlur stdDeviation="7.5"/>
<feComposite in2="hardAlpha" operator="arithmetic" k2="-1" k3="1"/>
<feColorMatrix type="matrix" values="0 0 0 0 0 0 0 0 0 0 0 0 0 0 0 0 0 0 0.1 0"/>
<feBlend mode="normal" in2="shape" result="effect1_innerShadow_15_3"/>
</filter>
<filter id="filter16_i_15_3" x="359" y="154" width="59" height="59" filterUnits="userSpaceOnUse" color-interpolation-filters="sRGB">
<feFlood flood-opacity="0" result="BackgroundImageFix"/>
<feBlend mode="normal" in="SourceGraphic" in2="BackgroundImageFix" result="shape"/>
<feColorMatrix in="SourceAlpha" type="matrix" values="0 0 0 0 0 0 0 0 0 0 0 0 0 0 0 0 0 0 127 0" result="hardAlpha"/>
<feOffset dx="4" dy="-4"/>
<feGaussianBlur stdDeviation="7.5"/>
<feComposite in2="hardAlpha" operator="arithmetic" k2="-1" k3="1"/>
<feColorMatrix type="matrix" values="0 0 0 0 0 0 0 0 0 0 0 0 0 0 0 0 0 0 0.1 0"/>
<feBlend mode="normal" in2="shape" result="effect1_innerShadow_15_3"/>
</filter>
<linearGradient id="paint0_linear_15_3" x1="338" y1="498" x2="439.5" y2="680.5" gradientUnits="userSpaceOnUse">
<stop stop-color="#8CC572"/>
<stop offset="1" stop-color="#699355"/>
</linearGradient>
</defs>
</svg>
