<svg width="710" height="1158" viewBox="0 0 710 1158" fill="none" xmlns="http://www.w3.org/2000/svg">
<g filter="url(#filter0_d_15_3)">
<g filter="url(#filter1_i_15_3)">
<rect x="292" y="141" width="243" height="238" rx="39" fill="#432B19"/>
</g>
<g filter="url(#filter2_i_15_3)">
<path d="M174.625 501.215C167.563 506.526 157.532 505.105 152.222 498.043L150.419 495.645C144.112 487.258 145.799 475.347 154.186 469.04L275.674 377.691L298.512 408.064L174.625 501.215Z" fill="#FFDFBA"/>
<path d="M155.886 501.215C162.949 506.526 172.979 505.105 178.29 498.043L180.093 495.645C186.399 487.258 184.713 475.347 176.326 469.04L87.3002 402.101L64.463 432.473L155.886 501.215Z" fill="#FFDFBA"/>
<path d="M239.211 403.283C235.229 397.986 236.294 390.463 241.591 386.48L289.548 350.423C300.143 342.457 315.189 344.588 323.154 355.183L347.192 387.154L280.052 437.634C274.755 441.617 267.232 440.551 263.25 435.254L239.211 403.283Z" fill="#8CC572"/>
<rect x="30" y="380.035" width="45" height="68" rx="22.5" transform="rotate(-24.056 30 380.035)" fill="#FFDFBA"/>
<rect width="17.1814" height="25.2946" rx="8.59072" transform="matrix(-0.913147 -0.407629 -0.407629 0.913147 99 393.695)" fill="#FFDFBA"/>
</g>
<g filter="url(#filter3_i_15_3)">
<path d="M572.763 526.045C577.824 533.29 587.798 535.06 595.043 529.999L597.502 528.281C606.104 522.272 608.206 510.427 602.197 501.825L515.152 377.217L484 398.978L572.763 526.045Z" fill="#FFDFBA"/>
<path d="M567.428 513.986C565.535 505.354 570.997 496.823 579.629 494.93L582.559 494.287C592.809 492.039 602.94 498.526 605.188 508.776L630.539 624.37L593.421 632.511L567.428 513.986Z" fill="#FFDFBA"/>
<path d="M513.012 444.043C507.699 448.005 500.18 446.91 496.218 441.597L446 374.261L478.065 350.348C488.69 342.424 503.727 344.614 511.652 355.239L547.522 403.336C551.484 408.649 550.389 416.167 545.076 420.129L513.012 444.043Z" fill="#8CC572"/>
<g filter="url(#filter4_i_15_3)">
<rect width="17.1814" height="25.2946" rx="8.59072" transform="matrix(0.768129 0.640295 0.640295 -0.768129 575 640.62)" fill="#FFDFBA"/>
</g>
<rect x="637.697" y="672.505" width="45" height="68" rx="22.5" transform="rotate(171.702 637.697 672.505)" fill="#FFDFBA"/>
</g>
<rect x="281" y="343" width="231" height="386" rx="25" fill="url(#paint0_linear_15_3)"/>
<g filter="url(#filter5_i_15_3)">
<path d="M281 693H512V729H281V693Z" fill="#353535"/>
<path d="M281 729H368V1068.5C368 1088.66 351.658 1105 331.5 1105H317.5C297.342 1105 281 1088.66 281 1068.5V729Z" fill="#353535"/>
<g filter="url(#filter6_ii_15_3)">
<path d="M368.5 1097.83V1036.86C368.5 1035.08 367.835 1033.36 366.634 1032.04C365.275 1030.54 363.349 1029.69 361.329 1029.69H344.783C342.266 1029.69 339.754 1029.47 337.275 1029.03L299.893 1022.4C296.46 1021.79 293.448 1019.75 291.606 1016.79L290.17 1014.49C288.82 1012.32 286.447 1011 283.893 1011C279.81 1011 276.5 1014.31 276.5 1018.39V1028.87C276.5 1038.73 268.501 1046.73 258.634 1046.73H243.135C227.044 1046.73 214 1059.77 214 1075.87C214 1091.96 227.044 1105 243.135 1105H361.329C363.349 1105 365.275 1104.15 366.634 1102.65C367.835 1101.33 368.5 1099.61 368.5 1097.83Z" fill="#643B1E"/>
</g>
<path d="M425 729H512V1068.5C512 1088.66 495.658 1105 475.5 1105H461.5C441.342 1105 425 1088.66 425 1068.5V729Z" fill="#353535"/>
<g filter="url(#filter7_ii_15_3)">
<path d="M512.5 1097.83V1036.86C512.5 1035.08 511.835 1033.36 510.634 1032.04C509.275 1030.54 507.349 1029.69 505.329 1029.69H488.783C486.266 1029.69 483.754 1029.47 481.275 1029.03L443.893 1022.4C440.46 1021.79 437.448 1019.75 435.606 1016.79L434.17 1014.49C432.82 1012.32 430.447 1011 427.893 1011C423.81 1011 420.5 1014.31 420.5 1018.39V1028.87C420.5 1038.73 412.501 1046.73 402.634 1046.73H387.135C371.044 1046.73 358 1059.77 358 1075.87C358 1091.96 371.044 1105 387.135 1105H505.329C507.349 1105 509.275 1104.15 510.634 1102.65C511.835 1101.33 512.5 1099.61 512.5 1097.83Z" fill="#643B1E"/>
</g>
</g>
<g filter="url(#filter8_i_15_3)">
<path d="M364 297C364 293.686 366.686 291 370 291H410C413.314 291 416 293.686 416 297V341C416 355.359 404.359 367 390 367C375.641 367 364 355.359 364 341V297Z" fill="#FFDFBA"/>
</g>
<g filter="url(#filter9_i_15_3)">
<g filter="url(#filter10_i_15_3)">
<circle cx="268.5" cy="185.5" r="26.5" fill="#FFDFBA"/>
</g>
<g filter="url(#filter11_i_15_3)">
<circle cx="268.5" cy="185.5" r="12.5" fill="#FFDFBA"/>
</g>
</g>
<g filter="url(#filter12_i_15_3)">
<circle cx="390" cy="183" r="128" fill="#FFDFBA"/>
</g>
<path d="M472 133.5C501 181 494 324 494 324L503 327L532 256C532 256 548 127 514 73C480 19 297 6.99999 263 41C229 75 238 118 263 133.5C288 149 443 85.9999 472 133.5Z" fill="#643B1E"/>
<g filter="url(#filter13_i_15_3)">
<circle cx="503.5" cy="184.5" r="26.5" fill="#FFDFBA"/>
</g>
<g filter="url(#filter14_i_15_3)">
<circle cx="503.5" cy="184.5" r="12.5" fill="#FFDFBA"/>
</g>
<mask id="mask0_15_3" style="mask-type:alpha" maskUnits="userSpaceOnUse" x="268" y="153" width="183" height="73">
<path d="M268 153H450.938V226H268V153Z" fill="#C4C4C4"/>
</mask>
<g mask="url(#mask0_15_3)">
<g filter="url(#filter15_i_15_3)">
<circle cx="311.5" cy="185.5" r="27.5" fill="white"/>
</g>
<circle cx="311.5" cy="185.5" r="13.5" fill="#643B1E"/>
<g filter="url(#filter16_i_15_3)">
<circle cx="416.5" cy="185.5" r="27.5" fill="white"/>
</g>
<circle cx="416.5" cy="185.5" r="13.5" fill="#643B1E"/>
</g>
<path d="M378 249C384.627 249 390.231 254.645 387.279 260.579C386.038 263.074 384.393 265.377 382.385 267.385C377.509 272.261 370.896 275 364 275C357.104 275 350.491 272.261 345.615 267.385C343.607 265.377 341.962 263.074 340.721 260.579C337.769 254.645 343.373 249 350 249L364 249H378Z" fill="black"/>
</g>
<defs>
<filter id="filter0_d_15_3" x="0.211884" y="0.945236" width="671.476" height="1157.05" filterUnits="userSpaceOnUse" color-interpolation-filters="sRGB">
<feFlood flood-opacity="0" result="BackgroundImageFix"/>
<feColorMatrix in="SourceAlpha" type="matrix" values="0 0 0 0 0 0 0 0 0 0 0 0 0 0 0 0 0 0 127 0" result="hardAlpha"/>
<feOffset dy="16"/>
<feGaussianBlur stdDeviation="18.5"/>
<feComposite in2="hardAlpha" operator="out"/>
<feColorMatrix type="matrix" values="0 0 0 0 0 0 0 0 0 0 0 0 0 0 0 0 0 0 0.25 0"/>
<feBlend mode="normal" in2="BackgroundImageFix" result="effect1_dropShadow_15_3"/>
<feBlend mode="normal" in="SourceGraphic" in2="effect1_dropShadow_15_3" result="shape"/>
</filter>
<filter id="filter1_i_15_3" x="292" y="141" width="243" height="238" filterUnits="userSpaceOnUse" color-interpolation-filters="sRGB">
<feFlood flood-opacity="0" result="BackgroundImageFix"/>
<feBlend mode="normal" in="SourceGraphic" in2="BackgroundImageFix" result="shape"/>
<feColorMatrix in="SourceAlpha" type="matrix" values="0 0 0 0 0 0 0 0 0 0 0 0 0 0 0 0 0 0 127 0" result="hardAlpha"/>
<feOffset dx="-46" dy="40"/>
<feComposite in2="hardAlpha" operator="arithmetic" k2="-1" k3="1"/>
<feColorMatrix type="matrix" values="0 0 0 0 0.391667 0 0 0 0 0.231703 0 0 0 0 0.115868 0 0 0 1 0"/>
<feBlend mode="normal" in2="shape" result="effect1_innerShadow_15_3"/>
</filter>
<filter id="filter2_i_15_3" x="37.2119" y="332.604" width="312.98" height="171.824" filterUnits="userSpaceOnUse" color-interpolation-filters="sRGB">
<feFlood flood-opacity="0" result="BackgroundImageFix"/>
<feBlend mode="normal" in="SourceGraphic" in2="BackgroundImageFix" result="shape"/>
<feColorMatrix in="SourceAlpha" type="matrix" values="0 0 0 0 0 0 0 0 0 0 0 0 0 0 0 0 0 0 127 0" result="hardAlpha"/>
<feOffset dx="3" dy="-13"/>
<feGaussianBlur stdDeviation="14.5"/>
<feComposite in2="hardAlpha" operator="arithmetic" k2="-1" k3="1"/>
<feColorMatrix type="matrix" values="0 0 0 0 0 0 0 0 0 0 0 0 0 0 0 0 0 0 0.25 0"/>
<feBlend mode="normal" in2="shape" result="effect1_innerShadow_15_3"/>
</filter>
<filter id="filter3_i_15_3" x="446" y="341.585" width="200.688" height="334.405" filterUnits="userSpaceOnUse" color-interpolation-filters="sRGB">
<feFlood flood-opacity="0" result="BackgroundImageFix"/>
<feBlend mode="normal" in="SourceGraphic" in2="BackgroundImageFix" result="shape"/>
<feColorMatrix in="SourceAlpha" type="matrix" values="0 0 0 0 0 0 0 0 0 0 0 0 0 0 0 0 0 0 127 0" result="hardAlpha"/>
<feOffset dx="12" dy="-4"/>
<feGaussianBlur stdDeviation="13.5"/>
<feComposite in2="hardAlpha" operator="arithmetic" k2="-1" k3="1"/>
<feColorMatrix type="matrix" values="0 0 0 0 0 0 0 0 0 0 0 0 0 0 0 0 0 0 0.25 0"/>
<feBlend mode="normal" in2="shape" result="effect1_innerShadow_15_3"/>
</filter>
<filter id="filter4_i_15_3" x="578.508" y="624.698" width="22.3767" height="27.4138" filterUnits="userSpaceOnUse" color-interpolation-filters="sRGB">
<feFlood flood-opacity="0" result="BackgroundImageFix"/>
<feBlend mode="normal" in="SourceGraphic" in2="BackgroundImageFix" result="shape"/>
<feColorMatrix in="SourceAlpha" type="matrix" values="0 0 0 0 0 0 0 0 0 0 0 0 0 0 0 0 0 0 127 0" result="hardAlpha"/>
<feOffset dy="4"/>
<feGaussianBlur stdDeviation="7"/>
<feComposite in2="hardAlpha" operator="arithmetic" k2="-1" k3="1"/>
<feColorMatrix type="matrix" values="0 0 0 0 0.796078 0 0 0 0 0.572549 0 0 0 0 0.478431 0 0 0 0.25 0"/>
<feBlend mode="normal" in2="shape" result="effect1_innerShadow_15_3"/>
</filter>
<filter id="filter5_i_15_3" x="199" y="663" width="313.5" height="442" filterUnits="userSpaceOnUse" color-interpolation-filters="sRGB">
<feFlood flood-opacity="0" result="BackgroundImageFix"/>
<feBlend mode="normal" in="SourceGraphic" in2="BackgroundImageFix" result="shape"/>
<feColorMatrix in="SourceAlpha" type="matrix" values="0 0 0 0 0 0 0 0 0 0 0 0 0 0 0 0 0 0 127 0" result="hardAlpha"/>
<feOffset dx="-15" dy="-30"/>
<feGaussianBlur stdDeviation="16"/>
<feComposite in2="hardAlpha" operator="arithmetic" k2="-1" k3="1"/>
<feColorMatrix type="matrix" values="0 0 0 0 0 0 0 0 0 0 0 0 0 0 0 0 0 0 0.25 0"/>
<feBlend mode="normal" in2="shape" result="effect1_innerShadow_15_3"/>
</filter>
<filter id="filter6_ii_15_3" x="198" y="985" width="170.5" height="120" filterUnits="userSpaceOnUse" color-interpolation-filters="sRGB">
<feFlood flood-opacity="0" result="BackgroundImageFix"/>
<feBlend mode="normal" in="SourceGraphic" in2="BackgroundImageFix" result="shape"/>
<feColorMatrix in="SourceAlpha" type="matrix" values="0 0 0 0 0 0 0 0 0 0 0 0 0 0 0 0 0 0 127 0" result="hardAlpha"/>
<feOffset dy="-15"/>
<feComposite in2="hardAlpha" operator="arithmetic" k2="-1" k3="1"/>
<feColorMatrix type="matrix" values="0 0 0 0 0 0 0 0 0 0 0 0 0 0 0 0 0 0 0.25 0"/>
<feBlend mode="normal" in2="shape" result="effect1_innerShadow_15_3"/>
<feColorMatrix in="SourceAlpha" type="matrix" values="0 0 0 0 0 0 0 0 0 0 0 0 0 0 0 0 0 0 127 0" result="hardAlpha"/>
<feOffset dx="-16" dy="-26"/>
<feGaussianBlur stdDeviation="15"/>
<feComposite in2="hardAlpha" operator="arithmetic" k2="-1" k3="1"/>
<feColorMatrix type="matrix" values="0 0 0 0 0 0 0 0 0 0 0 0 0 0 0 0 0 0 0.25 0"/>
<feBlend mode="normal" in2="effect1_innerShadow_15_3" result="effect2_innerShadow_15_3"/>
</filter>
<filter id="filter7_ii_15_3" x="342" y="985" width="170.5" height="120" filterUnits="userSpaceOnUse" color-interpolation-filters="sRGB">
<feFlood flood-opacity="0" result="BackgroundImageFix"/>
<feBlend mode="normal" in="SourceGraphic" in2="BackgroundImageFix" result="shape"/>
<feColorMatrix in="SourceAlpha" type="matrix" values="0 0 0 0 0 0 0 0 0 0 0 0 0 0 0 0 0 0 127 0" result="hardAlpha"/>
<feOffset dy="-15"/>
<feComposite in2="hardAlpha" operator="arithmetic" k2="-1" k3="1"/>
<feColorMatrix type="matrix" values="0 0 0 0 0 0 0 0 0 0 0 0 0 0 0 0 0 0 0.25 0"/>
<feBlend mode="normal" in2="shape" result="effect1_innerShadow_15_3"/>
<feColorMatrix in="SourceAlpha" type="matrix" values="0 0 0 0 0 0 0 0 0 0 0 0 0 0 0 0 0 0 127 0" result="hardAlpha"/>
<feOffset dx="-16" dy="-26"/>
<feGaussianBlur stdDeviation="15"/>
<feComposite in2="hardAlpha" operator="arithmetic" k2="-1" k3="1"/>
<feColorMatrix type="matrix" values="0 0 0 0 0 0 0 0 0 0 0 0 0 0 0 0 0 0 0.25 0"/>
<feBlend mode="normal" in2="effect1_innerShadow_15_3" result="effect2_innerShadow_15_3"/>
</filter>
<filter id="filter8_i_15_3" x="364" y="291" width="52" height="90" filterUnits="userSpaceOnUse" color-interpolation-filters="sRGB">
<feFlood flood-opacity="0" result="BackgroundImageFix"/>
<feBlend mode="normal" in="SourceGraphic" in2="BackgroundImageFix" result="shape"/>
<feColorMatrix in="SourceAlpha" type="matrix" values="0 0 0 0 0 0 0 0 0 0 0 0 0 0 0 0 0 0 127 0" result="hardAlpha"/>
<feOffset dy="34"/>
<feGaussianBlur stdDeviation="7"/>
<feComposite in2="hardAlpha" operator="arithmetic" k2="-1" k3="1"/>
<feColorMatrix type="matrix" values="0 0 0 0 0.796078 0 0 0 0 0.572549 0 0 0 0 0.478431 0 0 0 0.6 0"/>
<feBlend mode="normal" in2="shape" result="effect1_innerShadow_15_3"/>
</filter>
<filter id="filter9_i_15_3" x="242" y="154" width="58" height="58" filterUnits="userSpaceOnUse" color-interpolation-filters="sRGB">
<feFlood flood-opacity="0" result="BackgroundImageFix"/>
<feBlend mode="normal" in="SourceGraphic" in2="BackgroundImageFix" result="shape"/>
<feColorMatrix in="SourceAlpha" type="matrix" values="0 0 0 0 0 0 0 0 0 0 0 0 0 0 0 0 0 0 127 0" result="hardAlpha"/>
<feOffset dx="5" dy="-5"/>
<feGaussianBlur stdDeviation="33.5"/>
<feComposite in2="hardAlpha" operator="arithmetic" k2="-1" k3="1"/>
<feColorMatrix type="matrix" values="0 0 0 0 0.796078 0 0 0 0 0.572549 0 0 0 0 0.478431 0 0 0 0.29 0"/>
<feBlend mode="normal" in2="shape" result="effect1_innerShadow_15_3"/>
</filter>
<filter id="filter10_i_15_3" x="242" y="155" width="57" height="57" filterUnits="userSpaceOnUse" color-interpolation-filters="sRGB">
<feFlood flood-opacity="0" result="BackgroundImageFix"/>
<feBlend mode="normal" in="SourceGraphic" in2="BackgroundImageFix" result="shape"/>
<feColorMatrix in="SourceAlpha" type="matrix" values="0 0 0 0 0 0 0 0 0 0 0 0 0 0 0 0 0 0 127 0" result="hardAlpha"/>
<feOffset dx="4" dy="-4"/>
<feGaussianBlur stdDeviation="2"/>
<feComposite in2="hardAlpha" operator="arithmetic" k2="-1" k3="1"/>
<feColorMatrix type="matrix" values="0 0 0 0 0.796078 0 0 0 0 0.572549 0 0 0 0 0.478431 0 0 0 0.25 0"/>
<feBlend mode="normal" in2="shape" result="effect1_innerShadow_15_3"/>
</filter>
<filter id="filter11_i_15_3" x="256" y="173" width="29" height="25" filterUnits="userSpaceOnUse" color-interpolation-filters="sRGB">
<feFlood flood-opacity="0" result="BackgroundImageFix"/>
<feBlend mode="normal" in="SourceGraphic" in2="BackgroundImageFix" result="shape"/>
<feColorMatrix in="SourceAlpha" type="matrix" values="0 0 0 0 0 0 0 0 0 0 0 0 0 0 0 0 0 0 127 0" result="hardAlpha"/>
<feOffset dx="8"/>
<feGaussianBlur stdDeviation="2"/>
<feComposite in2="hardAlpha" operator="arithmetic" k2="-1" k3="1"/>
<feColorMatrix type="matrix" values="0 0 0 0 0.796078 0 0 0 0 0.572549 0 0 0 0 0.478431 0 0 0 0.25 0"/>
<feBlend mode="normal" in2="shape" result="effect1_innerShadow_15_3"/>
</filter>
<filter id="filter12_i_15_3" x="262" y="55" width="278" height="256" filterUnits="userSpaceOnUse" color-interpolation-filters="sRGB">
<feFlood flood-opacity="0" result="BackgroundImageFix"/>
<feBlend mode="normal" in="SourceGraphic" in2="BackgroundImageFix" result="shape"/>
<feColorMatrix in="SourceAlpha" type="matrix" values="0 0 0 0 0 0 0 0 0 0 0 0 0 0 0 0 0 0 127 0" result="hardAlpha"/>
<feOffset dx="22"/>
<feGaussianBlur stdDeviation="28"/>
<feComposite in2="hardAlpha" operator="arithmetic" k2="-1" k3="1"/>
<feColorMatrix type="matrix" values="0 0 0 0 0.795833 0 0 0 0 0.573 0 0 0 0 0.4775 0 0 0 0.29 0"/>
<feBlend mode="normal" in2="shape" result="effect1_innerShadow_15_3"/>
</filter>
<filter id="filter13_i_15_3" x="473" y="154" width="57" height="57" filterUnits="userSpaceOnUse" color-interpolation-filters="sRGB">
<feFlood flood-opacity="0" result="BackgroundImageFix"/>
<feBlend mode="normal" in="SourceGraphic" in2="BackgroundImageFix" result="shape"/>
<feColorMatrix in="SourceAlpha" type="matrix" values="0 0 0 0 0 0 0 0 0 0 0 0 0 0 0 0 0 0 127 0" result="hardAlpha"/>
<feOffset dx="-4" dy="-4"/>
<feGaussianBlur stdDeviation="2"/>
<feComposite in2="hardAlpha" operator="arithmetic" k2="-1" k3="1"/>
<feColorMatrix type="matrix" values="0 0 0 0 0.796078 0 0 0 0 0.572549 0 0 0 0 0.478431 0 0 0 0.25 0"/>
<feBlend mode="normal" in2="shape" result="effect1_innerShadow_15_3"/>
</filter>
<filter id="filter14_i_15_3" x="487" y="172" width="29" height="25" filterUnits="userSpaceOnUse" color-interpolation-filters="sRGB">
<feFlood flood-opacity="0" result="BackgroundImageFix"/>
<feBlend mode="normal" in="SourceGraphic" in2="BackgroundImageFix" result="shape"/>
<feColorMatrix in="SourceAlpha" type="matrix" values="0 0 0 0 0 0 0 0 0 0 0 0 0 0 0 0 0 0 127 0" result="hardAlpha"/>
<feOffset dx="-8"/>
<feGaussianBlur stdDeviation="2"/>
<feComposite in2="hardAlpha" operator="arithmetic" k2="-1" k3="1"/>
<feColorMatrix type="matrix" values="0 0 0 0 0.796078 0 0 0 0 0.572549 0 0 0 0 0.478431 0 0 0 0.25 0"/>
<feBlend mode="normal" in2="shape" result="effect1_innerShadow_15_3"/>
</filter>
<filter id="filter15_i_15_3" x="284" y="154" width="59" height="59" filterUnits="userSpaceOnUse" color-interpolation-filters="sRGB">
<feFlood flood-opacity="0" result="BackgroundImageFix"/>
<feBlend mode="normal" in="SourceGraphic" in2="BackgroundImageFix" result="shape"/>
<feColorMatrix in="SourceAlpha" type="matrix" values="0 0 0 0 0 0 0 0 0 0 0 0 0 0 0 0 0 0 127 0" result="hardAlpha"/>
<feOffset dx="4" dy="-4"/>
<feGaussianBlur stdDeviation="7.5"/>
<feComposite in2="hardAlpha" operator="arithmetic" k2="-1" k3="1"/>
<feColorMatrix type="matrix" values="0 0 0 0 0 0 0 0 0 0 0 0 0 0 0 0 0 0 0.1 0"/>
<feBlend mode="normal" in2="shape" result="effect1_innerShadow_15_3"/>
</filter>
<filter id="filter16_i_15_3" x="389" y="154" width="59" height="59" filterUnits="userSpaceOnUse" color-interpolation-filters="sRGB">
<feFlood flood-opacity="0" result="BackgroundImageFix"/>
<feBlend mode="normal" in="SourceGraphic" in2="BackgroundImageFix" result="shape"/>
<feColorMatrix in="SourceAlpha" type="matrix" values="0 0 0 0 0 0 0 0 0 0 0 0 0 0 0 0 0 0 127 0" result="hardAlpha"/>
<feOffset dx="4" dy="-4"/>
<feGaussianBlur stdDeviation="7.5"/>
<feComposite in2="hardAlpha" operator="arithmetic" k2="-1" k3="1"/>
<feColorMatrix type="matrix" values="0 0 0 0 0 0 0 0 0 0 0 0 0 0 0 0 0 0 0.1 0"/>
<feBlend mode="normal" in2="shape" result="effect1_innerShadow_15_3"/>
</filter>
<linearGradient id="paint0_linear_15_3" x1="368" y1="498" x2="469.5" y2="680.5" gradientUnits="userSpaceOnUse">
<stop stop-color="#8CC572"/>
<stop offset="1" stop-color="#699355"/>
</linearGradient>
</defs>
</svg>
