<svg width="680" height="1158" viewBox="0 0 680 1158" fill="none" xmlns="http://www.w3.org/2000/svg">
<g filter="url(#filter0_d_15_3)">
<g filter="url(#filter1_i_15_3)">
<rect x="262" y="141" width="243" height="238" rx="39" fill="#432B19"/>
</g>
<g filter="url(#filter2_i_15_3)">
<path d="M272.301 553.901C271.206 562.67 263.211 568.891 254.442 567.796L251.465 567.425C241.053 566.125 233.665 556.63 234.965 546.218L253.791 395.388L291.498 400.094L272.301 553.901Z" fill="#FFDFBA"/>
<path d="M271.774 551.552C273.869 542.967 268.608 534.31 260.023 532.215L257.109 531.504C246.914 529.016 236.634 535.264 234.146 545.458L207.742 653.667L244.659 662.676L271.774 551.552Z" fill="#FFDFBA"/>
<path d="M246.829 439.388C240.252 438.567 235.587 432.57 236.408 425.994L243.841 366.456C245.483 353.303 257.476 343.972 270.629 345.614L310.321 350.57L299.915 433.922C299.094 440.499 293.097 445.164 286.52 444.343L246.829 439.388Z" fill="#8CC572"/>
<rect x="229.691" y="710.74" width="45" height="68" rx="22.5" transform="rotate(-161.566 229.691 710.74)" fill="#FFDFBA"/>
<rect width="17.1814" height="25.2946" rx="8.59072" transform="matrix(0.398012 0.91738 0.91738 -0.398012 188.038 654.061)" fill="#FFDFBA"/>
</g>
<g filter="url(#filter3_i_15_3)">
<path d="M508.13 540.157C511.484 548.332 520.831 552.24 529.006 548.885L531.781 547.746C541.489 543.763 546.13 532.663 542.146 522.956L484.441 382.335L449.286 396.761L508.13 540.157Z" fill="#FFDFBA"/>
<path d="M505.559 527.223C505.598 518.386 512.794 511.255 521.63 511.294L524.63 511.308C535.123 511.354 543.592 519.899 543.545 530.392L543.018 648.733L505.018 648.563L505.559 527.223Z" fill="#FFDFBA"/>
<path d="M467.746 447.077C461.696 449.782 454.598 447.071 451.893 441.02L417.607 364.336L454.123 348.01C466.224 342.599 480.419 348.023 485.829 360.123L510.319 414.898C513.024 420.948 510.313 428.045 504.263 430.751L467.746 447.077Z" fill="#8CC572"/>
<g filter="url(#filter4_i_15_3)">
<rect width="17.1814" height="25.2946" rx="8.59072" transform="matrix(0.609606 0.792705 0.792705 -0.609606 485.27 652.45)" fill="#FFDFBA"/>
</g>
<rect x="539.482" y="697.268" width="45" height="68" rx="22.5" transform="rotate(-175.673 539.482 697.268)" fill="#FFDFBA"/>
</g>
<rect x="251" y="343" width="231" height="386" rx="25" fill="url(#paint0_linear_15_3)"/>
<g filter="url(#filter5_i_15_3)">
<path d="M251 693H482V729H251V693Z" fill="#353535"/>
<path d="M251 729H338V1068.5C338 1088.66 321.658 1105 301.5 1105H287.5C267.341 1105 251 1088.66 251 1068.5V729Z" fill="#353535"/>
<g filter="url(#filter6_ii_15_3)">
<path d="M338.5 1097.83V1036.86C338.5 1035.08 337.834 1033.36 336.634 1032.04C335.275 1030.54 333.348 1029.69 331.329 1029.69H314.783C312.266 1029.69 309.753 1029.47 307.275 1029.03L269.892 1022.4C266.46 1021.79 263.448 1019.75 261.606 1016.79L260.17 1014.49C258.82 1012.32 256.447 1011 253.893 1011C249.81 1011 246.5 1014.31 246.5 1018.39V1028.87C246.5 1038.73 238.501 1046.73 228.634 1046.73H213.134C197.044 1046.73 184 1059.77 184 1075.87C184 1091.96 197.044 1105 213.134 1105H331.329C333.348 1105 335.275 1104.15 336.634 1102.65C337.834 1101.33 338.5 1099.61 338.5 1097.83Z" fill="#643B1E"/>
</g>
<path d="M395 729H482V1068.5C482 1088.66 465.658 1105 445.5 1105H431.5C411.341 1105 395 1088.66 395 1068.5V729Z" fill="#353535"/>
<g filter="url(#filter7_ii_15_3)">
<path d="M482.5 1097.83V1036.86C482.5 1035.08 481.834 1033.36 480.634 1032.04C479.275 1030.54 477.348 1029.69 475.329 1029.69H458.783C456.266 1029.69 453.753 1029.47 451.275 1029.03L413.892 1022.4C410.46 1021.79 407.448 1019.75 405.606 1016.79L404.17 1014.49C402.82 1012.32 400.447 1011 397.893 1011C393.81 1011 390.5 1014.31 390.5 1018.39V1028.87C390.5 1038.73 382.501 1046.73 372.634 1046.73H357.134C341.044 1046.73 328 1059.77 328 1075.87C328 1091.96 341.044 1105 357.134 1105H475.329C477.348 1105 479.275 1104.15 480.634 1102.65C481.834 1101.33 482.5 1099.61 482.5 1097.83Z" fill="#643B1E"/>
</g>
</g>
<g filter="url(#filter8_i_15_3)">
<path d="M334 297C334 293.686 336.686 291 340 291H380C383.314 291 386 293.686 386 297V341C386 355.359 374.359 367 360 367C345.641 367 334 355.359 334 341V297Z" fill="#FFDFBA"/>
</g>
<g filter="url(#filter9_i_15_3)">
<g filter="url(#filter10_i_15_3)">
<circle cx="238.5" cy="185.5" r="26.5" fill="#FFDFBA"/>
</g>
<g filter="url(#filter11_i_15_3)">
<circle cx="238.5" cy="185.5" r="12.5" fill="#FFDFBA"/>
</g>
</g>
<g filter="url(#filter12_i_15_3)">
<circle cx="360" cy="183" r="128" fill="#FFDFBA"/>
</g>
<path d="M442 133.5C471 181 464 324 464 324L473 327L502 256C502 256 518 127 484 73C450 19 267 6.99999 233 41C199 75 208 118 233 133.5C258 149 413 85.9999 442 133.5Z" fill="#643B1E"/>
<g filter="url(#filter13_i_15_3)">
<circle cx="473.5" cy="184.5" r="26.5" fill="#FFDFBA"/>
</g>
<g filter="url(#filter14_i_15_3)">
<circle cx="473.5" cy="184.5" r="12.5" fill="#FFDFBA"/>
</g>
<mask id="mask0_15_3" style="mask-type:alpha" maskUnits="userSpaceOnUse" x="242" y="136" width="184" height="73">
<path d="M243 136H425.937V209H243V136Z" fill="#C4C4C4"/>
</mask>
<g mask="url(#mask0_15_3)">
<g filter="url(#filter15_i_15_3)">
<circle cx="281.5" cy="185.5" r="27.5" fill="white"/>
</g>
<circle cx="281.5" cy="185.5" r="13.5" fill="#643B1E"/>
<g filter="url(#filter16_i_15_3)">
<circle cx="386.5" cy="185.5" r="27.5" fill="white"/>
</g>
<circle cx="386.5" cy="185.5" r="13.5" fill="#643B1E"/>
</g>
<path d="M308.901 261C307.041 258.257 307.705 254.492 310.622 252.918C317.765 249.064 325.746 247.019 333.886 247C342.026 246.981 350.016 248.989 357.176 252.81C360.1 254.37 360.782 258.133 358.933 260.885C357.036 263.709 353.204 264.376 350.134 262.908C345.081 260.491 339.545 259.228 333.914 259.241C328.282 259.254 322.751 260.543 317.709 262.983C314.646 264.466 310.811 263.816 308.901 261Z" fill="black"/>
</g>
<defs>
<filter id="filter0_d_15_3" x="147" y="0.945236" width="433.573" height="1157.05" filterUnits="userSpaceOnUse" color-interpolation-filters="sRGB">
<feFlood flood-opacity="0" result="BackgroundImageFix"/>
<feColorMatrix in="SourceAlpha" type="matrix" values="0 0 0 0 0 0 0 0 0 0 0 0 0 0 0 0 0 0 127 0" result="hardAlpha"/>
<feOffset dy="16"/>
<feGaussianBlur stdDeviation="18.5"/>
<feComposite in2="hardAlpha" operator="out"/>
<feColorMatrix type="matrix" values="0 0 0 0 0 0 0 0 0 0 0 0 0 0 0 0 0 0 0.25 0"/>
<feBlend mode="normal" in2="BackgroundImageFix" result="effect1_dropShadow_15_3"/>
<feBlend mode="normal" in="SourceGraphic" in2="effect1_dropShadow_15_3" result="shape"/>
</filter>
<filter id="filter1_i_15_3" x="262" y="141" width="243" height="238" filterUnits="userSpaceOnUse" color-interpolation-filters="sRGB">
<feFlood flood-opacity="0" result="BackgroundImageFix"/>
<feBlend mode="normal" in="SourceGraphic" in2="BackgroundImageFix" result="shape"/>
<feColorMatrix in="SourceAlpha" type="matrix" values="0 0 0 0 0 0 0 0 0 0 0 0 0 0 0 0 0 0 127 0" result="hardAlpha"/>
<feOffset dx="-46" dy="40"/>
<feComposite in2="hardAlpha" operator="arithmetic" k2="-1" k3="1"/>
<feColorMatrix type="matrix" values="0 0 0 0 0.391667 0 0 0 0 0.231703 0 0 0 0 0.115868 0 0 0 1 0"/>
<feBlend mode="normal" in2="shape" result="effect1_innerShadow_15_3"/>
</filter>
<filter id="filter2_i_15_3" x="190.745" y="332.427" width="122.576" height="372.36" filterUnits="userSpaceOnUse" color-interpolation-filters="sRGB">
<feFlood flood-opacity="0" result="BackgroundImageFix"/>
<feBlend mode="normal" in="SourceGraphic" in2="BackgroundImageFix" result="shape"/>
<feColorMatrix in="SourceAlpha" type="matrix" values="0 0 0 0 0 0 0 0 0 0 0 0 0 0 0 0 0 0 127 0" result="hardAlpha"/>
<feOffset dx="3" dy="-13"/>
<feGaussianBlur stdDeviation="14.5"/>
<feComposite in2="hardAlpha" operator="arithmetic" k2="-1" k3="1"/>
<feColorMatrix type="matrix" values="0 0 0 0 0 0 0 0 0 0 0 0 0 0 0 0 0 0 0.25 0"/>
<feBlend mode="normal" in2="shape" result="effect1_innerShadow_15_3"/>
</filter>
<filter id="filter3_i_15_3" x="417.607" y="341.913" width="137.966" height="353.722" filterUnits="userSpaceOnUse" color-interpolation-filters="sRGB">
<feFlood flood-opacity="0" result="BackgroundImageFix"/>
<feBlend mode="normal" in="SourceGraphic" in2="BackgroundImageFix" result="shape"/>
<feColorMatrix in="SourceAlpha" type="matrix" values="0 0 0 0 0 0 0 0 0 0 0 0 0 0 0 0 0 0 127 0" result="hardAlpha"/>
<feOffset dx="12" dy="-4"/>
<feGaussianBlur stdDeviation="13.5"/>
<feComposite in2="hardAlpha" operator="arithmetic" k2="-1" k3="1"/>
<feColorMatrix type="matrix" values="0 0 0 0 0 0 0 0 0 0 0 0 0 0 0 0 0 0 0.25 0"/>
<feBlend mode="normal" in2="shape" result="effect1_innerShadow_15_3"/>
</filter>
<filter id="filter4_i_15_3" x="488.725" y="640.486" width="23.6136" height="26.1281" filterUnits="userSpaceOnUse" color-interpolation-filters="sRGB">
<feFlood flood-opacity="0" result="BackgroundImageFix"/>
<feBlend mode="normal" in="SourceGraphic" in2="BackgroundImageFix" result="shape"/>
<feColorMatrix in="SourceAlpha" type="matrix" values="0 0 0 0 0 0 0 0 0 0 0 0 0 0 0 0 0 0 127 0" result="hardAlpha"/>
<feOffset dy="4"/>
<feGaussianBlur stdDeviation="7"/>
<feComposite in2="hardAlpha" operator="arithmetic" k2="-1" k3="1"/>
<feColorMatrix type="matrix" values="0 0 0 0 0.796078 0 0 0 0 0.572549 0 0 0 0 0.478431 0 0 0 0.25 0"/>
<feBlend mode="normal" in2="shape" result="effect1_innerShadow_15_3"/>
</filter>
<filter id="filter5_i_15_3" x="169" y="663" width="313.5" height="442" filterUnits="userSpaceOnUse" color-interpolation-filters="sRGB">
<feFlood flood-opacity="0" result="BackgroundImageFix"/>
<feBlend mode="normal" in="SourceGraphic" in2="BackgroundImageFix" result="shape"/>
<feColorMatrix in="SourceAlpha" type="matrix" values="0 0 0 0 0 0 0 0 0 0 0 0 0 0 0 0 0 0 127 0" result="hardAlpha"/>
<feOffset dx="-15" dy="-30"/>
<feGaussianBlur stdDeviation="16"/>
<feComposite in2="hardAlpha" operator="arithmetic" k2="-1" k3="1"/>
<feColorMatrix type="matrix" values="0 0 0 0 0 0 0 0 0 0 0 0 0 0 0 0 0 0 0.25 0"/>
<feBlend mode="normal" in2="shape" result="effect1_innerShadow_15_3"/>
</filter>
<filter id="filter6_ii_15_3" x="168" y="985" width="170.5" height="120" filterUnits="userSpaceOnUse" color-interpolation-filters="sRGB">
<feFlood flood-opacity="0" result="BackgroundImageFix"/>
<feBlend mode="normal" in="SourceGraphic" in2="BackgroundImageFix" result="shape"/>
<feColorMatrix in="SourceAlpha" type="matrix" values="0 0 0 0 0 0 0 0 0 0 0 0 0 0 0 0 0 0 127 0" result="hardAlpha"/>
<feOffset dy="-15"/>
<feComposite in2="hardAlpha" operator="arithmetic" k2="-1" k3="1"/>
<feColorMatrix type="matrix" values="0 0 0 0 0 0 0 0 0 0 0 0 0 0 0 0 0 0 0.25 0"/>
<feBlend mode="normal" in2="shape" result="effect1_innerShadow_15_3"/>
<feColorMatrix in="SourceAlpha" type="matrix" values="0 0 0 0 0 0 0 0 0 0 0 0 0 0 0 0 0 0 127 0" result="hardAlpha"/>
<feOffset dx="-16" dy="-26"/>
<feGaussianBlur stdDeviation="15"/>
<feComposite in2="hardAlpha" operator="arithmetic" k2="-1" k3="1"/>
<feColorMatrix type="matrix" values="0 0 0 0 0 0 0 0 0 0 0 0 0 0 0 0 0 0 0.25 0"/>
<feBlend mode="normal" in2="effect1_innerShadow_15_3" result="effect2_innerShadow_15_3"/>
</filter>
<filter id="filter7_ii_15_3" x="312" y="985" width="170.5" height="120" filterUnits="userSpaceOnUse" color-interpolation-filters="sRGB">
<feFlood flood-opacity="0" result="BackgroundImageFix"/>
<feBlend mode="normal" in="SourceGraphic" in2="BackgroundImageFix" result="shape"/>
<feColorMatrix in="SourceAlpha" type="matrix" values="0 0 0 0 0 0 0 0 0 0 0 0 0 0 0 0 0 0 127 0" result="hardAlpha"/>
<feOffset dy="-15"/>
<feComposite in2="hardAlpha" operator="arithmetic" k2="-1" k3="1"/>
<feColorMatrix type="matrix" values="0 0 0 0 0 0 0 0 0 0 0 0 0 0 0 0 0 0 0.25 0"/>
<feBlend mode="normal" in2="shape" result="effect1_innerShadow_15_3"/>
<feColorMatrix in="SourceAlpha" type="matrix" values="0 0 0 0 0 0 0 0 0 0 0 0 0 0 0 0 0 0 127 0" result="hardAlpha"/>
<feOffset dx="-16" dy="-26"/>
<feGaussianBlur stdDeviation="15"/>
<feComposite in2="hardAlpha" operator="arithmetic" k2="-1" k3="1"/>
<feColorMatrix type="matrix" values="0 0 0 0 0 0 0 0 0 0 0 0 0 0 0 0 0 0 0.25 0"/>
<feBlend mode="normal" in2="effect1_innerShadow_15_3" result="effect2_innerShadow_15_3"/>
</filter>
<filter id="filter8_i_15_3" x="334" y="291" width="52" height="90" filterUnits="userSpaceOnUse" color-interpolation-filters="sRGB">
<feFlood flood-opacity="0" result="BackgroundImageFix"/>
<feBlend mode="normal" in="SourceGraphic" in2="BackgroundImageFix" result="shape"/>
<feColorMatrix in="SourceAlpha" type="matrix" values="0 0 0 0 0 0 0 0 0 0 0 0 0 0 0 0 0 0 127 0" result="hardAlpha"/>
<feOffset dy="34"/>
<feGaussianBlur stdDeviation="7"/>
<feComposite in2="hardAlpha" operator="arithmetic" k2="-1" k3="1"/>
<feColorMatrix type="matrix" values="0 0 0 0 0.796078 0 0 0 0 0.572549 0 0 0 0 0.478431 0 0 0 0.6 0"/>
<feBlend mode="normal" in2="shape" result="effect1_innerShadow_15_3"/>
</filter>
<filter id="filter9_i_15_3" x="212" y="154" width="58" height="58" filterUnits="userSpaceOnUse" color-interpolation-filters="sRGB">
<feFlood flood-opacity="0" result="BackgroundImageFix"/>
<feBlend mode="normal" in="SourceGraphic" in2="BackgroundImageFix" result="shape"/>
<feColorMatrix in="SourceAlpha" type="matrix" values="0 0 0 0 0 0 0 0 0 0 0 0 0 0 0 0 0 0 127 0" result="hardAlpha"/>
<feOffset dx="5" dy="-5"/>
<feGaussianBlur stdDeviation="33.5"/>
<feComposite in2="hardAlpha" operator="arithmetic" k2="-1" k3="1"/>
<feColorMatrix type="matrix" values="0 0 0 0 0.796078 0 0 0 0 0.572549 0 0 0 0 0.478431 0 0 0 0.29 0"/>
<feBlend mode="normal" in2="shape" result="effect1_innerShadow_15_3"/>
</filter>
<filter id="filter10_i_15_3" x="212" y="155" width="57" height="57" filterUnits="userSpaceOnUse" color-interpolation-filters="sRGB">
<feFlood flood-opacity="0" result="BackgroundImageFix"/>
<feBlend mode="normal" in="SourceGraphic" in2="BackgroundImageFix" result="shape"/>
<feColorMatrix in="SourceAlpha" type="matrix" values="0 0 0 0 0 0 0 0 0 0 0 0 0 0 0 0 0 0 127 0" result="hardAlpha"/>
<feOffset dx="4" dy="-4"/>
<feGaussianBlur stdDeviation="2"/>
<feComposite in2="hardAlpha" operator="arithmetic" k2="-1" k3="1"/>
<feColorMatrix type="matrix" values="0 0 0 0 0.796078 0 0 0 0 0.572549 0 0 0 0 0.478431 0 0 0 0.25 0"/>
<feBlend mode="normal" in2="shape" result="effect1_innerShadow_15_3"/>
</filter>
<filter id="filter11_i_15_3" x="226" y="173" width="29" height="25" filterUnits="userSpaceOnUse" color-interpolation-filters="sRGB">
<feFlood flood-opacity="0" result="BackgroundImageFix"/>
<feBlend mode="normal" in="SourceGraphic" in2="BackgroundImageFix" result="shape"/>
<feColorMatrix in="SourceAlpha" type="matrix" values="0 0 0 0 0 0 0 0 0 0 0 0 0 0 0 0 0 0 127 0" result="hardAlpha"/>
<feOffset dx="8"/>
<feGaussianBlur stdDeviation="2"/>
<feComposite in2="hardAlpha" operator="arithmetic" k2="-1" k3="1"/>
<feColorMatrix type="matrix" values="0 0 0 0 0.796078 0 0 0 0 0.572549 0 0 0 0 0.478431 0 0 0 0.25 0"/>
<feBlend mode="normal" in2="shape" result="effect1_innerShadow_15_3"/>
</filter>
<filter id="filter12_i_15_3" x="232" y="55" width="278" height="256" filterUnits="userSpaceOnUse" color-interpolation-filters="sRGB">
<feFlood flood-opacity="0" result="BackgroundImageFix"/>
<feBlend mode="normal" in="SourceGraphic" in2="BackgroundImageFix" result="shape"/>
<feColorMatrix in="SourceAlpha" type="matrix" values="0 0 0 0 0 0 0 0 0 0 0 0 0 0 0 0 0 0 127 0" result="hardAlpha"/>
<feOffset dx="22"/>
<feGaussianBlur stdDeviation="28"/>
<feComposite in2="hardAlpha" operator="arithmetic" k2="-1" k3="1"/>
<feColorMatrix type="matrix" values="0 0 0 0 0.795833 0 0 0 0 0.573 0 0 0 0 0.4775 0 0 0 0.29 0"/>
<feBlend mode="normal" in2="shape" result="effect1_innerShadow_15_3"/>
</filter>
<filter id="filter13_i_15_3" x="443" y="154" width="57" height="57" filterUnits="userSpaceOnUse" color-interpolation-filters="sRGB">
<feFlood flood-opacity="0" result="BackgroundImageFix"/>
<feBlend mode="normal" in="SourceGraphic" in2="BackgroundImageFix" result="shape"/>
<feColorMatrix in="SourceAlpha" type="matrix" values="0 0 0 0 0 0 0 0 0 0 0 0 0 0 0 0 0 0 127 0" result="hardAlpha"/>
<feOffset dx="-4" dy="-4"/>
<feGaussianBlur stdDeviation="2"/>
<feComposite in2="hardAlpha" operator="arithmetic" k2="-1" k3="1"/>
<feColorMatrix type="matrix" values="0 0 0 0 0.796078 0 0 0 0 0.572549 0 0 0 0 0.478431 0 0 0 0.25 0"/>
<feBlend mode="normal" in2="shape" result="effect1_innerShadow_15_3"/>
</filter>
<filter id="filter14_i_15_3" x="457" y="172" width="29" height="25" filterUnits="userSpaceOnUse" color-interpolation-filters="sRGB">
<feFlood flood-opacity="0" result="BackgroundImageFix"/>
<feBlend mode="normal" in="SourceGraphic" in2="BackgroundImageFix" result="shape"/>
<feColorMatrix in="SourceAlpha" type="matrix" values="0 0 0 0 0 0 0 0 0 0 0 0 0 0 0 0 0 0 127 0" result="hardAlpha"/>
<feOffset dx="-8"/>
<feGaussianBlur stdDeviation="2"/>
<feComposite in2="hardAlpha" operator="arithmetic" k2="-1" k3="1"/>
<feColorMatrix type="matrix" values="0 0 0 0 0.796078 0 0 0 0 0.572549 0 0 0 0 0.478431 0 0 0 0.25 0"/>
<feBlend mode="normal" in2="shape" result="effect1_innerShadow_15_3"/>
</filter>
<filter id="filter15_i_15_3" x="254" y="154" width="59" height="59" filterUnits="userSpaceOnUse" color-interpolation-filters="sRGB">
<feFlood flood-opacity="0" result="BackgroundImageFix"/>
<feBlend mode="normal" in="SourceGraphic" in2="BackgroundImageFix" result="shape"/>
<feColorMatrix in="SourceAlpha" type="matrix" values="0 0 0 0 0 0 0 0 0 0 0 0 0 0 0 0 0 0 127 0" result="hardAlpha"/>
<feOffset dx="4" dy="-4"/>
<feGaussianBlur stdDeviation="7.5"/>
<feComposite in2="hardAlpha" operator="arithmetic" k2="-1" k3="1"/>
<feColorMatrix type="matrix" values="0 0 0 0 0 0 0 0 0 0 0 0 0 0 0 0 0 0 0.1 0"/>
<feBlend mode="normal" in2="shape" result="effect1_innerShadow_15_3"/>
</filter>
<filter id="filter16_i_15_3" x="359" y="154" width="59" height="59" filterUnits="userSpaceOnUse" color-interpolation-filters="sRGB">
<feFlood flood-opacity="0" result="BackgroundImageFix"/>
<feBlend mode="normal" in="SourceGraphic" in2="BackgroundImageFix" result="shape"/>
<feColorMatrix in="SourceAlpha" type="matrix" values="0 0 0 0 0 0 0 0 0 0 0 0 0 0 0 0 0 0 127 0" result="hardAlpha"/>
<feOffset dx="4" dy="-4"/>
<feGaussianBlur stdDeviation="7.5"/>
<feComposite in2="hardAlpha" operator="arithmetic" k2="-1" k3="1"/>
<feColorMatrix type="matrix" values="0 0 0 0 0 0 0 0 0 0 0 0 0 0 0 0 0 0 0.1 0"/>
<feBlend mode="normal" in2="shape" result="effect1_innerShadow_15_3"/>
</filter>
<linearGradient id="paint0_linear_15_3" x1="338" y1="498" x2="439.5" y2="680.5" gradientUnits="userSpaceOnUse">
<stop stop-color="#8CC572"/>
<stop offset="1" stop-color="#699355"/>
</linearGradient>
</defs>
</svg>
