<svg width="680" height="1158" viewBox="0 0 680 1158" fill="none" xmlns="http://www.w3.org/2000/svg">
<g filter="url(#filter0_d_15_3)">
<g filter="url(#filter1_i_15_3)">
<rect x="262" y="141" width="243" height="238" rx="39" fill="#432B19"/>
</g>
<g filter="url(#filter2_i_15_3)">
<path d="M245.081 551.064C242.483 559.51 233.53 564.25 225.084 561.652L222.216 560.77C212.187 557.684 206.558 547.052 209.643 537.023L254.339 391.742L290.659 402.916L245.081 551.064Z" fill="#FFDFBA"/>
<path d="M244.422 549.078C248.308 541.141 245.023 531.558 237.087 527.673L234.392 526.354C224.968 521.74 213.587 525.64 208.973 535.065L160 635.105L194.13 651.812L244.422 549.078Z" fill="#FFDFBA"/>
<path d="M239.852 433.868C233.518 431.92 229.963 425.205 231.912 418.87L249.556 361.523C253.454 348.855 266.884 341.744 279.553 345.642L317.784 357.406L293.082 437.691C291.133 444.026 284.418 447.581 278.083 445.632L239.852 433.868Z" fill="#8CC572"/>
<rect x="172.848" y="693.122" width="45" height="68" rx="22.5" transform="rotate(-152.315 172.848 693.122)" fill="#FFDFBA"/>
<rect width="17.1814" height="25.2946" rx="8.59072" transform="matrix(0.245361 0.969432 0.969432 -0.245361 140.848 630.484)" fill="#FFDFBA"/>
</g>
<g filter="url(#filter3_i_15_3)">
<path d="M513.858 541.064C517.678 549.032 527.235 552.394 535.203 548.573L537.908 547.276C547.37 542.739 551.362 531.391 546.825 521.929L481.106 384.871L446.842 401.3L513.858 541.064Z" fill="#FFDFBA"/>
<path d="M510.545 528.299C510.075 519.475 516.847 511.941 525.671 511.47L528.667 511.311C539.145 510.752 548.093 518.794 548.651 529.272L554.95 647.447L517.004 649.469L510.545 528.299Z" fill="#FFDFBA"/>
<path d="M468.173 450.468C462.289 453.518 455.047 451.22 451.997 445.336L413.345 370.757L448.859 352.351C460.627 346.252 475.112 350.847 481.211 362.616L508.819 415.886C511.869 421.771 509.571 429.013 503.687 432.062L468.173 450.468Z" fill="#8CC572"/>
<g filter="url(#filter4_i_15_3)">
<rect width="17.1814" height="25.2946" rx="8.59072" transform="matrix(0.65431 0.756226 0.756226 -0.65431 497.512 654.488)" fill="#FFDFBA"/>
</g>
<rect x="554.219" y="696.105" width="45" height="68" rx="22.5" transform="rotate(-178.979 554.219 696.105)" fill="#FFDFBA"/>
</g>
<rect x="251" y="343" width="231" height="386" rx="25" fill="url(#paint0_linear_15_3)"/>
<g filter="url(#filter5_i_15_3)">
<path d="M251 693H482V729H251V693Z" fill="#353535"/>
<path d="M251 729H338V1068.5C338 1088.66 321.658 1105 301.5 1105H287.5C267.342 1105 251 1088.66 251 1068.5V729Z" fill="#353535"/>
<g filter="url(#filter6_ii_15_3)">
<path d="M338.5 1097.83V1036.86C338.5 1035.08 337.835 1033.36 336.634 1032.04C335.275 1030.54 333.349 1029.69 331.329 1029.69H314.783C312.266 1029.69 309.754 1029.47 307.275 1029.03L269.893 1022.4C266.46 1021.79 263.448 1019.75 261.606 1016.79L260.17 1014.49C258.82 1012.32 256.447 1011 253.893 1011C249.81 1011 246.5 1014.31 246.5 1018.39V1028.87C246.5 1038.73 238.501 1046.73 228.635 1046.73H213.135C197.044 1046.73 184 1059.77 184 1075.87C184 1091.96 197.044 1105 213.135 1105H331.329C333.349 1105 335.275 1104.15 336.634 1102.65C337.835 1101.33 338.5 1099.61 338.5 1097.83Z" fill="#643B1E"/>
</g>
<path d="M395 729H482V1068.5C482 1088.66 465.658 1105 445.5 1105H431.5C411.342 1105 395 1088.66 395 1068.5V729Z" fill="#353535"/>
<g filter="url(#filter7_ii_15_3)">
<path d="M482.5 1097.83V1036.86C482.5 1035.08 481.835 1033.36 480.634 1032.04C479.275 1030.54 477.349 1029.69 475.329 1029.69H458.783C456.266 1029.69 453.754 1029.47 451.275 1029.03L413.893 1022.4C410.46 1021.79 407.448 1019.75 405.606 1016.79L404.17 1014.49C402.82 1012.32 400.447 1011 397.893 1011C393.81 1011 390.5 1014.31 390.5 1018.39V1028.87C390.5 1038.73 382.501 1046.73 372.635 1046.73H357.135C341.044 1046.73 328 1059.77 328 1075.87C328 1091.96 341.044 1105 357.135 1105H475.329C477.349 1105 479.275 1104.15 480.634 1102.65C481.835 1101.33 482.5 1099.61 482.5 1097.83Z" fill="#643B1E"/>
</g>
</g>
<g filter="url(#filter8_i_15_3)">
<path d="M334 297C334 293.686 336.686 291 340 291H380C383.314 291 386 293.686 386 297V341C386 355.359 374.359 367 360 367C345.641 367 334 355.359 334 341V297Z" fill="#FFDFBA"/>
</g>
<g filter="url(#filter9_i_15_3)">
<g filter="url(#filter10_i_15_3)">
<circle cx="238.5" cy="185.5" r="26.5" fill="#FFDFBA"/>
</g>
<g filter="url(#filter11_i_15_3)">
<circle cx="238.5" cy="185.5" r="12.5" fill="#FFDFBA"/>
</g>
</g>
<g filter="url(#filter12_i_15_3)">
<circle cx="360" cy="183" r="128" fill="#FFDFBA"/>
</g>
<path d="M442 133.5C471 181 464 324 464 324L473 327L502 256C502 256 518 127 484 73C450 19 267 6.99999 233 41C199 75 208 118 233 133.5C258 149 413 85.9999 442 133.5Z" fill="#643B1E"/>
<g filter="url(#filter13_i_15_3)">
<circle cx="473.5" cy="184.5" r="26.5" fill="#FFDFBA"/>
</g>
<g filter="url(#filter14_i_15_3)">
<circle cx="473.5" cy="184.5" r="12.5" fill="#FFDFBA"/>
</g>
<mask id="mask0_15_3" style="mask-type:alpha" maskUnits="userSpaceOnUse" x="243" y="122" width="183" height="73">
<path d="M243 122H425.938V195H243V122Z" fill="#C4C4C4"/>
</mask>
<g mask="url(#mask0_15_3)">
<g filter="url(#filter15_i_15_3)">
<circle cx="281.5" cy="185.5" r="27.5" fill="white"/>
</g>
<circle cx="281.5" cy="185.5" r="13.5" fill="#643B1E"/>
<g filter="url(#filter16_i_15_3)">
<circle cx="386.5" cy="185.5" r="27.5" fill="white"/>
</g>
<circle cx="386.5" cy="185.5" r="13.5" fill="#643B1E"/>
</g>
<rect x="309" y="255" width="51" height="12" rx="6" fill="black"/>
</g>
<defs>
<filter id="filter0_d_15_3" x="103.873" y="0.945236" width="488.16" height="1157.05" filterUnits="userSpaceOnUse" color-interpolation-filters="sRGB">
<feFlood flood-opacity="0" result="BackgroundImageFix"/>
<feColorMatrix in="SourceAlpha" type="matrix" values="0 0 0 0 0 0 0 0 0 0 0 0 0 0 0 0 0 0 127 0" result="hardAlpha"/>
<feOffset dy="16"/>
<feGaussianBlur stdDeviation="18.5"/>
<feComposite in2="hardAlpha" operator="out"/>
<feColorMatrix type="matrix" values="0 0 0 0 0 0 0 0 0 0 0 0 0 0 0 0 0 0 0.25 0"/>
<feBlend mode="normal" in2="BackgroundImageFix" result="effect1_dropShadow_15_3"/>
<feBlend mode="normal" in="SourceGraphic" in2="effect1_dropShadow_15_3" result="shape"/>
</filter>
<filter id="filter1_i_15_3" x="262" y="141" width="243" height="238" filterUnits="userSpaceOnUse" color-interpolation-filters="sRGB">
<feFlood flood-opacity="0" result="BackgroundImageFix"/>
<feBlend mode="normal" in="SourceGraphic" in2="BackgroundImageFix" result="shape"/>
<feColorMatrix in="SourceAlpha" type="matrix" values="0 0 0 0 0 0 0 0 0 0 0 0 0 0 0 0 0 0 127 0" result="hardAlpha"/>
<feOffset dx="-46" dy="40"/>
<feComposite in2="hardAlpha" operator="arithmetic" k2="-1" k3="1"/>
<feColorMatrix type="matrix" values="0 0 0 0 0.391667 0 0 0 0 0.231703 0 0 0 0 0.115868 0 0 0 1 0"/>
<feBlend mode="normal" in2="shape" result="effect1_innerShadow_15_3"/>
</filter>
<filter id="filter2_i_15_3" x="140.873" y="331.575" width="179.911" height="353.674" filterUnits="userSpaceOnUse" color-interpolation-filters="sRGB">
<feFlood flood-opacity="0" result="BackgroundImageFix"/>
<feBlend mode="normal" in="SourceGraphic" in2="BackgroundImageFix" result="shape"/>
<feColorMatrix in="SourceAlpha" type="matrix" values="0 0 0 0 0 0 0 0 0 0 0 0 0 0 0 0 0 0 127 0" result="hardAlpha"/>
<feOffset dx="3" dy="-13"/>
<feGaussianBlur stdDeviation="14.5"/>
<feComposite in2="hardAlpha" operator="arithmetic" k2="-1" k3="1"/>
<feColorMatrix type="matrix" values="0 0 0 0 0 0 0 0 0 0 0 0 0 0 0 0 0 0 0.25 0"/>
<feBlend mode="normal" in2="shape" result="effect1_innerShadow_15_3"/>
</filter>
<filter id="filter3_i_15_3" x="413.345" y="345.654" width="153.687" height="350.054" filterUnits="userSpaceOnUse" color-interpolation-filters="sRGB">
<feFlood flood-opacity="0" result="BackgroundImageFix"/>
<feBlend mode="normal" in="SourceGraphic" in2="BackgroundImageFix" result="shape"/>
<feColorMatrix in="SourceAlpha" type="matrix" values="0 0 0 0 0 0 0 0 0 0 0 0 0 0 0 0 0 0 127 0" result="hardAlpha"/>
<feOffset dx="12" dy="-4"/>
<feGaussianBlur stdDeviation="13.5"/>
<feComposite in2="hardAlpha" operator="arithmetic" k2="-1" k3="1"/>
<feColorMatrix type="matrix" values="0 0 0 0 0 0 0 0 0 0 0 0 0 0 0 0 0 0 0.25 0"/>
<feBlend mode="normal" in2="shape" result="effect1_innerShadow_15_3"/>
</filter>
<filter id="filter4_i_15_3" x="501.039" y="641.464" width="23.3171" height="26.4902" filterUnits="userSpaceOnUse" color-interpolation-filters="sRGB">
<feFlood flood-opacity="0" result="BackgroundImageFix"/>
<feBlend mode="normal" in="SourceGraphic" in2="BackgroundImageFix" result="shape"/>
<feColorMatrix in="SourceAlpha" type="matrix" values="0 0 0 0 0 0 0 0 0 0 0 0 0 0 0 0 0 0 127 0" result="hardAlpha"/>
<feOffset dy="4"/>
<feGaussianBlur stdDeviation="7"/>
<feComposite in2="hardAlpha" operator="arithmetic" k2="-1" k3="1"/>
<feColorMatrix type="matrix" values="0 0 0 0 0.796078 0 0 0 0 0.572549 0 0 0 0 0.478431 0 0 0 0.25 0"/>
<feBlend mode="normal" in2="shape" result="effect1_innerShadow_15_3"/>
</filter>
<filter id="filter5_i_15_3" x="169" y="663" width="313.5" height="442" filterUnits="userSpaceOnUse" color-interpolation-filters="sRGB">
<feFlood flood-opacity="0" result="BackgroundImageFix"/>
<feBlend mode="normal" in="SourceGraphic" in2="BackgroundImageFix" result="shape"/>
<feColorMatrix in="SourceAlpha" type="matrix" values="0 0 0 0 0 0 0 0 0 0 0 0 0 0 0 0 0 0 127 0" result="hardAlpha"/>
<feOffset dx="-15" dy="-30"/>
<feGaussianBlur stdDeviation="16"/>
<feComposite in2="hardAlpha" operator="arithmetic" k2="-1" k3="1"/>
<feColorMatrix type="matrix" values="0 0 0 0 0 0 0 0 0 0 0 0 0 0 0 0 0 0 0.25 0"/>
<feBlend mode="normal" in2="shape" result="effect1_innerShadow_15_3"/>
</filter>
<filter id="filter6_ii_15_3" x="168" y="985" width="170.5" height="120" filterUnits="userSpaceOnUse" color-interpolation-filters="sRGB">
<feFlood flood-opacity="0" result="BackgroundImageFix"/>
<feBlend mode="normal" in="SourceGraphic" in2="BackgroundImageFix" result="shape"/>
<feColorMatrix in="SourceAlpha" type="matrix" values="0 0 0 0 0 0 0 0 0 0 0 0 0 0 0 0 0 0 127 0" result="hardAlpha"/>
<feOffset dy="-15"/>
<feComposite in2="hardAlpha" operator="arithmetic" k2="-1" k3="1"/>
<feColorMatrix type="matrix" values="0 0 0 0 0 0 0 0 0 0 0 0 0 0 0 0 0 0 0.25 0"/>
<feBlend mode="normal" in2="shape" result="effect1_innerShadow_15_3"/>
<feColorMatrix in="SourceAlpha" type="matrix" values="0 0 0 0 0 0 0 0 0 0 0 0 0 0 0 0 0 0 127 0" result="hardAlpha"/>
<feOffset dx="-16" dy="-26"/>
<feGaussianBlur stdDeviation="15"/>
<feComposite in2="hardAlpha" operator="arithmetic" k2="-1" k3="1"/>
<feColorMatrix type="matrix" values="0 0 0 0 0 0 0 0 0 0 0 0 0 0 0 0 0 0 0.25 0"/>
<feBlend mode="normal" in2="effect1_innerShadow_15_3" result="effect2_innerShadow_15_3"/>
</filter>
<filter id="filter7_ii_15_3" x="312" y="985" width="170.5" height="120" filterUnits="userSpaceOnUse" color-interpolation-filters="sRGB">
<feFlood flood-opacity="0" result="BackgroundImageFix"/>
<feBlend mode="normal" in="SourceGraphic" in2="BackgroundImageFix" result="shape"/>
<feColorMatrix in="SourceAlpha" type="matrix" values="0 0 0 0 0 0 0 0 0 0 0 0 0 0 0 0 0 0 127 0" result="hardAlpha"/>
<feOffset dy="-15"/>
<feComposite in2="hardAlpha" operator="arithmetic" k2="-1" k3="1"/>
<feColorMatrix type="matrix" values="0 0 0 0 0 0 0 0 0 0 0 0 0 0 0 0 0 0 0.25 0"/>
<feBlend mode="normal" in2="shape" result="effect1_innerShadow_15_3"/>
<feColorMatrix in="SourceAlpha" type="matrix" values="0 0 0 0 0 0 0 0 0 0 0 0 0 0 0 0 0 0 127 0" result="hardAlpha"/>
<feOffset dx="-16" dy="-26"/>
<feGaussianBlur stdDeviation="15"/>
<feComposite in2="hardAlpha" operator="arithmetic" k2="-1" k3="1"/>
<feColorMatrix type="matrix" values="0 0 0 0 0 0 0 0 0 0 0 0 0 0 0 0 0 0 0.25 0"/>
<feBlend mode="normal" in2="effect1_innerShadow_15_3" result="effect2_innerShadow_15_3"/>
</filter>
<filter id="filter8_i_15_3" x="334" y="291" width="52" height="90" filterUnits="userSpaceOnUse" color-interpolation-filters="sRGB">
<feFlood flood-opacity="0" result="BackgroundImageFix"/>
<feBlend mode="normal" in="SourceGraphic" in2="BackgroundImageFix" result="shape"/>
<feColorMatrix in="SourceAlpha" type="matrix" values="0 0 0 0 0 0 0 0 0 0 0 0 0 0 0 0 0 0 127 0" result="hardAlpha"/>
<feOffset dy="34"/>
<feGaussianBlur stdDeviation="7"/>
<feComposite in2="hardAlpha" operator="arithmetic" k2="-1" k3="1"/>
<feColorMatrix type="matrix" values="0 0 0 0 0.796078 0 0 0 0 0.572549 0 0 0 0 0.478431 0 0 0 0.6 0"/>
<feBlend mode="normal" in2="shape" result="effect1_innerShadow_15_3"/>
</filter>
<filter id="filter9_i_15_3" x="212" y="154" width="58" height="58" filterUnits="userSpaceOnUse" color-interpolation-filters="sRGB">
<feFlood flood-opacity="0" result="BackgroundImageFix"/>
<feBlend mode="normal" in="SourceGraphic" in2="BackgroundImageFix" result="shape"/>
<feColorMatrix in="SourceAlpha" type="matrix" values="0 0 0 0 0 0 0 0 0 0 0 0 0 0 0 0 0 0 127 0" result="hardAlpha"/>
<feOffset dx="5" dy="-5"/>
<feGaussianBlur stdDeviation="33.5"/>
<feComposite in2="hardAlpha" operator="arithmetic" k2="-1" k3="1"/>
<feColorMatrix type="matrix" values="0 0 0 0 0.796078 0 0 0 0 0.572549 0 0 0 0 0.478431 0 0 0 0.29 0"/>
<feBlend mode="normal" in2="shape" result="effect1_innerShadow_15_3"/>
</filter>
<filter id="filter10_i_15_3" x="212" y="155" width="57" height="57" filterUnits="userSpaceOnUse" color-interpolation-filters="sRGB">
<feFlood flood-opacity="0" result="BackgroundImageFix"/>
<feBlend mode="normal" in="SourceGraphic" in2="BackgroundImageFix" result="shape"/>
<feColorMatrix in="SourceAlpha" type="matrix" values="0 0 0 0 0 0 0 0 0 0 0 0 0 0 0 0 0 0 127 0" result="hardAlpha"/>
<feOffset dx="4" dy="-4"/>
<feGaussianBlur stdDeviation="2"/>
<feComposite in2="hardAlpha" operator="arithmetic" k2="-1" k3="1"/>
<feColorMatrix type="matrix" values="0 0 0 0 0.796078 0 0 0 0 0.572549 0 0 0 0 0.478431 0 0 0 0.25 0"/>
<feBlend mode="normal" in2="shape" result="effect1_innerShadow_15_3"/>
</filter>
<filter id="filter11_i_15_3" x="226" y="173" width="29" height="25" filterUnits="userSpaceOnUse" color-interpolation-filters="sRGB">
<feFlood flood-opacity="0" result="BackgroundImageFix"/>
<feBlend mode="normal" in="SourceGraphic" in2="BackgroundImageFix" result="shape"/>
<feColorMatrix in="SourceAlpha" type="matrix" values="0 0 0 0 0 0 0 0 0 0 0 0 0 0 0 0 0 0 127 0" result="hardAlpha"/>
<feOffset dx="8"/>
<feGaussianBlur stdDeviation="2"/>
<feComposite in2="hardAlpha" operator="arithmetic" k2="-1" k3="1"/>
<feColorMatrix type="matrix" values="0 0 0 0 0.796078 0 0 0 0 0.572549 0 0 0 0 0.478431 0 0 0 0.25 0"/>
<feBlend mode="normal" in2="shape" result="effect1_innerShadow_15_3"/>
</filter>
<filter id="filter12_i_15_3" x="232" y="55" width="278" height="256" filterUnits="userSpaceOnUse" color-interpolation-filters="sRGB">
<feFlood flood-opacity="0" result="BackgroundImageFix"/>
<feBlend mode="normal" in="SourceGraphic" in2="BackgroundImageFix" result="shape"/>
<feColorMatrix in="SourceAlpha" type="matrix" values="0 0 0 0 0 0 0 0 0 0 0 0 0 0 0 0 0 0 127 0" result="hardAlpha"/>
<feOffset dx="22"/>
<feGaussianBlur stdDeviation="28"/>
<feComposite in2="hardAlpha" operator="arithmetic" k2="-1" k3="1"/>
<feColorMatrix type="matrix" values="0 0 0 0 0.795833 0 0 0 0 0.573 0 0 0 0 0.4775 0 0 0 0.29 0"/>
<feBlend mode="normal" in2="shape" result="effect1_innerShadow_15_3"/>
</filter>
<filter id="filter13_i_15_3" x="443" y="154" width="57" height="57" filterUnits="userSpaceOnUse" color-interpolation-filters="sRGB">
<feFlood flood-opacity="0" result="BackgroundImageFix"/>
<feBlend mode="normal" in="SourceGraphic" in2="BackgroundImageFix" result="shape"/>
<feColorMatrix in="SourceAlpha" type="matrix" values="0 0 0 0 0 0 0 0 0 0 0 0 0 0 0 0 0 0 127 0" result="hardAlpha"/>
<feOffset dx="-4" dy="-4"/>
<feGaussianBlur stdDeviation="2"/>
<feComposite in2="hardAlpha" operator="arithmetic" k2="-1" k3="1"/>
<feColorMatrix type="matrix" values="0 0 0 0 0.796078 0 0 0 0 0.572549 0 0 0 0 0.478431 0 0 0 0.25 0"/>
<feBlend mode="normal" in2="shape" result="effect1_innerShadow_15_3"/>
</filter>
<filter id="filter14_i_15_3" x="457" y="172" width="29" height="25" filterUnits="userSpaceOnUse" color-interpolation-filters="sRGB">
<feFlood flood-opacity="0" result="BackgroundImageFix"/>
<feBlend mode="normal" in="SourceGraphic" in2="BackgroundImageFix" result="shape"/>
<feColorMatrix in="SourceAlpha" type="matrix" values="0 0 0 0 0 0 0 0 0 0 0 0 0 0 0 0 0 0 127 0" result="hardAlpha"/>
<feOffset dx="-8"/>
<feGaussianBlur stdDeviation="2"/>
<feComposite in2="hardAlpha" operator="arithmetic" k2="-1" k3="1"/>
<feColorMatrix type="matrix" values="0 0 0 0 0.796078 0 0 0 0 0.572549 0 0 0 0 0.478431 0 0 0 0.25 0"/>
<feBlend mode="normal" in2="shape" result="effect1_innerShadow_15_3"/>
</filter>
<filter id="filter15_i_15_3" x="254" y="154" width="59" height="59" filterUnits="userSpaceOnUse" color-interpolation-filters="sRGB">
<feFlood flood-opacity="0" result="BackgroundImageFix"/>
<feBlend mode="normal" in="SourceGraphic" in2="BackgroundImageFix" result="shape"/>
<feColorMatrix in="SourceAlpha" type="matrix" values="0 0 0 0 0 0 0 0 0 0 0 0 0 0 0 0 0 0 127 0" result="hardAlpha"/>
<feOffset dx="4" dy="-4"/>
<feGaussianBlur stdDeviation="7.5"/>
<feComposite in2="hardAlpha" operator="arithmetic" k2="-1" k3="1"/>
<feColorMatrix type="matrix" values="0 0 0 0 0 0 0 0 0 0 0 0 0 0 0 0 0 0 0.1 0"/>
<feBlend mode="normal" in2="shape" result="effect1_innerShadow_15_3"/>
</filter>
<filter id="filter16_i_15_3" x="359" y="154" width="59" height="59" filterUnits="userSpaceOnUse" color-interpolation-filters="sRGB">
<feFlood flood-opacity="0" result="BackgroundImageFix"/>
<feBlend mode="normal" in="SourceGraphic" in2="BackgroundImageFix" result="shape"/>
<feColorMatrix in="SourceAlpha" type="matrix" values="0 0 0 0 0 0 0 0 0 0 0 0 0 0 0 0 0 0 127 0" result="hardAlpha"/>
<feOffset dx="4" dy="-4"/>
<feGaussianBlur stdDeviation="7.5"/>
<feComposite in2="hardAlpha" operator="arithmetic" k2="-1" k3="1"/>
<feColorMatrix type="matrix" values="0 0 0 0 0 0 0 0 0 0 0 0 0 0 0 0 0 0 0.1 0"/>
<feBlend mode="normal" in2="shape" result="effect1_innerShadow_15_3"/>
</filter>
<linearGradient id="paint0_linear_15_3" x1="338" y1="498" x2="439.5" y2="680.5" gradientUnits="userSpaceOnUse">
<stop stop-color="#8CC572"/>
<stop offset="1" stop-color="#699355"/>
</linearGradient>
</defs>
</svg>
